<svg width="95" height="95" viewBox="0 0 95 95" fill="none" xmlns="http://www.w3.org/2000/svg">
<g clip-path="url(#clip0_146_2815)">
<path d="M10.1036 80.4531L87 80.4531" stroke="#757575" stroke-width="1.5" stroke-dasharray="10.55 10.55"/>
<path d="M8.79578 88.3003L85.6921 88.3003" stroke="#757575" stroke-width="1.5" stroke-dasharray="10.55 10.55"/>
<path d="M84 70L84 40.1539L48.5077 18.3125C48.1949 18.12 47.8017 18.1145 47.4836 18.2982L12.5 38.496C12.1906 38.6746 12 39.0048 12 39.362L12 70" stroke="black" stroke-width="1.5" stroke-linecap="round"/>
<path d="M47.9915 59.1252C50.9847 58.9673 53.2831 56.4128 53.1252 53.4196C52.9673 50.4264 50.4129 48.128 47.4197 48.2859C44.4265 48.4438 42.128 50.9982 42.2859 53.9914C42.4438 56.9846 44.9983 59.2831 47.9915 59.1252Z" fill="#0035F5"/>
</g>
<defs>
<clipPath id="clip0_146_2815">
<rect width="95" height="95" fill="white"/>
</clipPath>
</defs>
</svg>
