<svg width="95" height="95" viewBox="0 0 95 95" fill="none" xmlns="http://www.w3.org/2000/svg">
<path d="M39.787 17.319L43.8169 11.03L37.5298 7.00012" stroke="black" stroke-width="1.5" stroke-linecap="round" stroke-linejoin="round"/>
<path d="M50.8529 11.1724C70.5076 13.1405 85.8535 29.73 85.8535 49.9037C85.8535 55.5944 84.6324 61.0001 82.4384 65.8725" stroke="black" stroke-width="1.5" stroke-linecap="round" stroke-linejoin="round"/>
<path d="M11.4152 65.8725C9.22117 61.0001 8 55.5944 8 49.9037C8 29.73 23.346 13.1405 43.0007 11.1724" stroke="black" stroke-width="1.5" stroke-linecap="round" stroke-linejoin="round"/>
<path d="M78.5041 72.6704C71.4356 82.4601 59.9241 88.8326 46.9247 88.8326C33.9254 88.8326 22.4159 82.4621 15.3454 72.6704" stroke="black" stroke-width="1.5" stroke-linecap="round" stroke-linejoin="round"/>
<path d="M79.1737 59.6122L82.1513 66.4609L89 63.4812" stroke="black" stroke-width="1.5" stroke-linecap="round" stroke-linejoin="round"/>
<path d="M22.3792 72.941L14.9525 72.1676L14.1771 79.5964" stroke="black" stroke-width="1.5" stroke-linecap="round" stroke-linejoin="round"/>
<path d="M43.3857 75.3274C41.0392 75.0312 38.7881 74.4372 36.6718 73.5881L36.9502 72.8928C34.8357 72.0444 32.8599 70.9325 31.0664 69.5989L30.6211 70.1995C28.7531 68.8105 27.0759 67.1892 25.6367 65.3772L26.2236 64.9104C24.8266 63.1514 23.6596 61.2094 22.7675 59.1282L22.08 59.4241C21.1785 57.3211 20.5487 55.0795 20.2334 52.7405L20.9756 52.6409C20.827 51.5389 20.75 50.414 20.75 49.2717C20.75 48.1296 20.827 47.0053 20.9756 45.9036L20.2343 45.804C20.5496 43.4653 21.1788 41.2241 22.0801 39.1213L22.7676 39.4163C23.6596 37.335 24.8266 35.393 26.2236 33.634L25.6367 33.1682C27.076 31.3559 28.7529 29.7341 30.6211 28.345L31.0664 28.9456C32.86 27.6118 34.8356 26.4991 36.9502 25.6506L36.6718 24.9573C38.7885 24.108 41.0397 23.5141 43.3867 23.218L43.4795 23.9612C44.5844 23.8217 45.7119 23.7502 46.8564 23.7502C48.0007 23.7503 49.1276 23.8217 50.2324 23.9612L50.3261 23.218C52.6731 23.5142 54.9244 24.1079 57.041 24.9573L56.7617 25.6506C58.8762 26.4991 60.8519 27.6118 62.6455 28.9456L63.0918 28.345C64.9598 29.7341 66.637 31.356 68.0761 33.1682L67.4892 33.634C68.8861 35.393 70.0523 37.3352 70.9443 39.4163L71.6328 39.1213C72.534 41.224 73.1632 43.4654 73.4785 45.804L72.7363 45.9036C72.8477 46.7301 72.9187 47.5693 72.9472 48.4192L72.9619 49.2717C72.9619 50.414 72.8849 51.5389 72.7363 52.6409L73.4795 52.7405C73.1641 55.0794 72.5342 57.3211 71.6328 59.4241L70.9443 59.1282C70.0523 61.2093 68.8862 63.1514 67.4892 64.9104L68.0761 65.3772C66.6371 67.1892 64.9596 68.8105 63.0918 70.1995L62.6455 69.5989C60.8519 70.9325 58.8761 72.0444 56.7617 72.8928L57.041 73.5881C54.9248 74.4373 52.6736 75.0312 50.3271 75.3274L50.3261 75.3264L50.2324 74.5832C49.1276 74.7227 48.0007 74.7942 46.8564 74.7942C45.7119 74.7942 44.5844 74.7227 43.4795 74.5832L43.3857 75.3264L43.3857 75.3274Z" stroke="#757575" stroke-width="1.5" stroke-dasharray="7 7"/>
<path d="M21.9915 53.1252C24.9847 52.9673 27.2831 50.4128 27.1252 47.4196C26.9673 44.4264 24.4129 42.128 21.4197 42.2859C18.4265 42.4438 16.128 44.9982 16.2859 47.9914C16.4438 50.9846 18.9983 53.2831 21.9915 53.1252Z" fill="#0035F5"/>
</svg>
