<svg width="95" height="95" viewBox="0 0 95 95" fill="none" xmlns="http://www.w3.org/2000/svg">
<path d="M22 67.41L72.344 31.3072" stroke="#757575" stroke-width="2.08929" stroke-linecap="round" stroke-dasharray="7 7"/>
<path d="M39.787 17.3189L43.8169 11.0299L37.5298 7" stroke="black" stroke-width="1.5" stroke-linecap="round" stroke-linejoin="round"/>
<path d="M50.8528 11.1722C70.5075 13.1404 85.8535 29.7299 85.8535 49.9036C85.8535 55.5942 84.6324 60.9999 82.4383 65.8724" stroke="black" stroke-width="1.5" stroke-linecap="round" stroke-linejoin="round"/>
<path d="M11.4152 65.8724C9.22117 60.9999 8 55.5942 8 49.9036C8 29.7299 23.346 13.1404 43.0007 11.1722" stroke="black" stroke-width="1.5" stroke-linecap="round" stroke-linejoin="round"/>
<path d="M78.5041 72.6703C71.4356 82.46 59.924 88.8324 46.9247 88.8324C33.9254 88.8324 22.4159 82.462 15.3453 72.6703" stroke="black" stroke-width="1.5" stroke-linecap="round" stroke-linejoin="round"/>
<path d="M79.1737 59.6121L82.1513 66.4608L89 63.4811" stroke="black" stroke-width="1.5" stroke-linecap="round" stroke-linejoin="round"/>
<path d="M22.3792 72.9409L14.9525 72.1675L14.1771 79.5962" stroke="black" stroke-width="1.5" stroke-linecap="round" stroke-linejoin="round"/>
<path d="M46.9915 54.5534C49.9847 54.3955 52.2831 51.841 52.1252 48.8478C51.9673 45.8546 49.4129 43.5562 46.4197 43.7141C43.4265 43.872 41.128 46.4265 41.2859 49.4197C41.4438 52.4128 43.9983 54.7113 46.9915 54.5534Z" fill="#0035F5"/>
</svg>
