<svg width="95" height="95" viewBox="0 0 95 95" fill="none" xmlns="http://www.w3.org/2000/svg">
<path d="M47.5 3.25C66.6276 3.25 82.9194 15.3867 89.0977 32.3789L87.8174 33.2588C81.9509 16.6507 66.1165 4.75 47.5 4.75C23.8898 4.75 4.75 23.8898 4.75 47.5C4.75 71.1102 23.8898 90.25 47.5 90.25C64.1747 90.25 78.6175 80.7022 85.665 66.7764L87.0186 67.4229C79.7292 81.8534 64.7716 91.75 47.5 91.75C23.0614 91.75 3.25 71.9386 3.25 47.5C3.25 23.0614 23.0614 3.25 47.5 3.25Z" fill="black"/>
<path d="M58.3857 74.3274C56.0392 74.0312 53.7881 73.4372 51.6719 72.5881L51.9502 71.8928C49.8358 71.0444 47.8599 69.9325 46.0664 68.5989L45.6211 69.1995C43.7532 67.8105 42.0759 66.1892 40.6367 64.3772L41.2236 63.9104C39.8266 62.1514 38.6597 60.2094 37.7676 58.1282L37.0801 58.4241C36.1786 56.3211 35.5488 54.0795 35.2334 51.7405L35.9756 51.6409C35.827 50.5389 35.75 49.414 35.75 48.2717C35.75 47.1296 35.827 46.0053 35.9756 44.9036L35.2344 44.804C35.5497 42.4653 36.1788 40.2241 37.0801 38.1213L37.7676 38.4163C38.6597 36.335 39.8267 34.393 41.2236 32.634L40.6367 32.1682C42.076 30.3559 43.7529 28.7341 45.6211 27.345L46.0664 27.9456C47.86 26.6118 49.8357 25.4991 51.9502 24.6506L51.6719 23.9573C53.7885 23.108 56.0398 22.5141 58.3867 22.218L58.4795 22.9612C59.5845 22.8217 60.712 22.7502 61.8564 22.7502C63.0008 22.7503 64.1276 22.8217 65.2324 22.9612L65.3262 22.218C67.6731 22.5142 69.9245 23.1079 72.041 23.9573L71.7617 24.6506C73.8763 25.4991 75.8519 26.6118 77.6455 27.9456L78.0918 27.345C79.9599 28.7341 81.637 30.356 83.0762 32.1682L82.4893 32.634C83.8861 34.393 85.0523 36.3352 85.9443 38.4163L86.6328 38.1213C87.534 40.224 88.1632 42.4654 88.4785 44.804L87.7363 44.9036C87.8478 45.7301 87.9187 46.5693 87.9473 47.4192L87.9619 48.2717C87.9619 49.414 87.8849 50.5389 87.7363 51.6409L88.4795 51.7405C88.1642 54.0794 87.5343 56.3211 86.6328 58.4241L85.9443 58.1282C85.0523 60.2093 83.8862 62.1514 82.4893 63.9104L83.0762 64.3772C81.6371 66.1892 79.9597 67.8105 78.0918 69.1995L77.6455 68.5989C75.852 69.9325 73.8762 71.0444 71.7617 71.8928L72.041 72.5881C69.9248 73.4373 67.6736 74.0312 65.3271 74.3274L65.3262 74.3264L65.2324 73.5832C64.1276 73.7227 63.0008 73.7942 61.8564 73.7942C60.712 73.7942 59.5845 73.7227 58.4795 73.5832L58.3857 74.3264L58.3857 74.3274Z" stroke="#757575" stroke-width="1.5" stroke-dasharray="7 7"/>
<path d="M61.9915 53.1252C64.9847 52.9673 67.2831 50.4128 67.1252 47.4196C66.9673 44.4264 64.4129 42.128 61.4197 42.2859C58.4265 42.4438 56.128 44.9982 56.2859 47.9914C56.4438 50.9846 58.9983 53.2831 61.9915 53.1252Z" fill="#0035F5"/>
</svg>
