<svg width="95" height="95" viewBox="0 0 95 95" fill="none" xmlns="http://www.w3.org/2000/svg">
<path d="M42.1152 24.1943C44.2133 24.4591 46.226 24.9899 48.1182 25.749L47.8018 26.54C49.6778 27.2928 51.4302 28.2797 53.0215 29.4629L53.5293 28.7793C55.1993 30.0211 56.6986 31.4708 57.9854 33.0908L57.3184 33.6221C58.5574 35.1823 59.5917 36.9044 60.3828 38.75L61.166 38.4141C61.972 40.2943 62.5344 42.2984 62.8164 44.3896L61.9727 44.5029C62.1044 45.4801 62.1729 46.478 62.1729 47.4912C62.1728 48.5043 62.1044 49.5014 61.9727 50.4785L62.8164 50.5918C62.5345 52.683 61.972 54.6871 61.166 56.5674L60.3828 56.2314C59.5917 58.0771 58.5575 59.8 57.3184 61.3604L57.9854 61.8896C56.6985 63.51 55.1995 64.9602 53.5293 66.2021L53.0215 65.5195C51.4303 66.7027 49.6776 67.6887 47.8018 68.4414L48.1182 69.2314C46.2259 69.9907 44.2134 70.5214 42.1152 70.7861L42.0088 69.9404C41.0284 70.0642 40.0283 70.1289 39.0127 70.1289C37.9971 70.1289 36.9969 70.0642 36.0166 69.9404L35.9102 70.7861C33.8117 70.5213 31.7987 69.9909 29.9062 69.2314L30.2246 68.4414C28.3486 67.6887 26.5951 66.7028 25.0039 65.5195L24.4951 66.2021C22.8252 64.9603 21.3267 63.5097 20.04 61.8896L20.707 61.3604C19.4679 59.8001 18.4337 58.0771 17.6426 56.2314L16.8584 56.5674C16.0526 54.6872 15.4899 52.6829 15.208 50.5918L16.0537 50.4785C15.9549 49.7457 15.8915 49.0017 15.8662 48.248L15.8535 47.4912C15.8535 46.478 15.9219 45.4801 16.0537 44.5029L15.208 44.3896C15.4899 42.2986 16.0525 40.2942 16.8584 38.4141L17.6426 38.75C18.4337 36.9043 19.4689 35.1824 20.708 33.6221L20.04 33.0918C21.3267 31.4717 22.8252 30.0211 24.4951 28.7793L25.0039 29.4629C26.5951 28.2797 28.3486 27.2928 30.2246 26.54L29.9062 25.749C31.7986 24.9897 33.8118 24.4592 35.9102 24.1943L36.0166 25.041C36.9969 24.9173 37.9971 24.8535 39.0127 24.8535C40.0283 24.8535 41.0285 24.9173 42.0088 25.041L42.1152 24.1943Z" stroke="#757575" stroke-width="1.70683" stroke-dasharray="7 7"/>
<path d="M60.0127 2C73.2747 2 84.0264 12.5175 84.0264 25.4912L84.0186 26.0977C83.7234 37.4883 75.1388 46.8607 63.9463 48.665C63.7176 48.1106 63.4554 47.5736 63.1602 47.0576C74.0146 45.5623 82.3192 36.4491 82.3193 25.4912C82.3193 13.4953 72.3676 3.70703 60.0127 3.70703C47.6579 3.70719 37.707 13.4954 37.707 25.4912C37.7071 31.7761 40.4398 37.4537 44.8174 41.4365C44.2806 41.7012 43.7628 41.9984 43.2676 42.3271C38.9224 38.1907 36.1727 32.4585 36.0078 26.0977L36 25.4912C36 12.5176 46.7508 2.00015 60.0127 2Z" fill="black"/>
<path d="M47.9997 47.9368C60.8082 47.9368 71.1599 58.0897 71.1599 70.5745C71.1597 83.0591 60.8081 93.2122 47.9997 93.2122C35.1915 93.212 24.8407 83.059 24.8405 70.5745C24.8405 58.0898 35.1914 47.9369 47.9997 47.9368Z" stroke="black" stroke-width="1.70683"/>
<path d="M50.9915 54.1252C53.9847 53.9673 56.2831 51.4128 56.1252 48.4196C55.9673 45.4264 53.4129 43.128 50.4197 43.2859C47.4265 43.4438 45.128 45.9982 45.2859 48.9914C45.4438 51.9846 47.9983 54.2831 50.9915 54.1252Z" fill="#0035F5"/>
<path d="M37.5 42L44.5 42L43.6412 35" stroke="#262222" stroke-width="1.5" stroke-linecap="round"/>
</svg>
