<svg width="95" height="95" viewBox="0 0 95 95" fill="none" xmlns="http://www.w3.org/2000/svg">
<path d="M32.1093 55.1608L32.1093 90.6652" stroke="black" stroke-width="1.5" stroke-linecap="round" stroke-linejoin="round"/>
<path d="M42.7035 67.9305L32.115 55.0042L20.9971 67.4797" stroke="black" stroke-width="1.5" stroke-linecap="round" stroke-linejoin="round"/>
<path d="M62.2871 83.9828L62.2871 48.4784" stroke="black" stroke-width="1.5" stroke-linecap="round" stroke-linejoin="round"/>
<path d="M72.8813 71.213L62.2927 84.1393L51.1749 71.6639" stroke="black" stroke-width="1.5" stroke-linecap="round" stroke-linejoin="round"/>
<path d="M72.1464 16.8C82.0166 25.1777 87.7175 38.1215 86.2763 51.9744" stroke="#757575" stroke-width="1.5" stroke-linecap="round" stroke-linejoin="round"/>
<path d="M30.0454 10.3995C36.1665 7.79698 43.0177 6.66257 50.1077 7.40018C56.1204 8.02573 61.6911 9.93242 66.5689 12.8234" stroke="#757575" stroke-width="1.5" stroke-linecap="round" stroke-linejoin="round" stroke-dasharray="5 5"/>
<path d="M9.42777 65.598C6.19294 58.9941 4.71015 51.4294 5.52748 43.5732C6.39723 35.2132 9.74585 27.707 14.7728 21.7188" stroke="black" stroke-width="1.5" stroke-linecap="round" stroke-linejoin="round"/>
<path d="M84.9915 58.1252C87.9847 57.9673 90.2831 55.4128 90.1252 52.4196C89.9673 49.4264 87.4129 47.128 84.4197 47.2859C81.4265 47.4438 79.128 49.9982 79.2859 52.9914C79.4438 55.9846 81.9983 58.2831 84.9915 58.1252Z" fill="#0035F5"/>
</svg>
