<svg width="95" height="95" viewBox="0 0 95 95" fill="none" xmlns="http://www.w3.org/2000/svg">
<g clip-path="url(#clip0_146_2776)">
<path d="M48.392 66.7367C72.9091 66.7367 92.7841 58.2935 92.7841 47.8782C92.7841 37.4629 72.9091 29.0197 48.392 29.0197C23.875 29.0197 4 37.4629 4 47.8782C4 58.2935 23.875 66.7367 48.392 66.7367Z" stroke="black" stroke-width="1.5" stroke-linecap="round" stroke-linejoin="round"/>
<path d="M70.5917 86.3399C79.6116 81.1322 76.9861 59.6984 64.7276 38.466C52.4691 17.2337 35.2196 4.243 26.1997 9.45064C17.1798 14.6583 19.8052 36.0922 32.0638 57.3245C44.3223 78.5569 61.5718 91.5475 70.5917 86.3399Z" stroke="#757575" stroke-width="1.5" stroke-linecap="round" stroke-linejoin="round" stroke-dasharray="7 7"/>
<path d="M64.7169 57.303C76.9754 36.0707 79.6009 14.6368 70.581 9.42916C61.5611 4.22152 44.3115 17.2122 32.053 38.4445C19.7944 59.6769 17.169 81.1108 26.1889 86.3184C35.2088 91.5261 52.4583 78.5354 64.7169 57.303Z" stroke="#757575" stroke-width="1.5" stroke-linecap="round" stroke-linejoin="round" stroke-dasharray="7 7"/>
<path d="M48.241 53.1252C51.2342 52.9673 53.5326 50.4128 53.3747 47.4196C53.2168 44.4264 50.6624 42.128 47.6692 42.2859C44.676 42.4438 42.3775 44.9982 42.5354 47.9914C42.6933 50.9846 45.2478 53.2831 48.241 53.1252Z" fill="#0035F5"/>
</g>
<defs>
<clipPath id="clip0_146_2776">
<rect width="95" height="95" fill="white"/>
</clipPath>
</defs>
</svg>
