<svg width="95" height="95" viewBox="0 0 95 95" fill="none" xmlns="http://www.w3.org/2000/svg">
<path d="M16.6375 66.3445C10.6713 68.4704 1.2899 74.6972 11.4942 82.5973C16.0203 85.2718 36.5935 95.3527 70.1277 87.3291C74.4481 86.3005 95.8442 78.4827 81.8544 69.4305" stroke="#030303" stroke-width="1.5" stroke-linecap="round"/>
<path d="M80.3812 73.5447L80.3812 68.0203L86.1679 67.3731" stroke="#030303" stroke-width="1.5" stroke-linecap="round" stroke-linejoin="round"/>
<path d="M75.2901 51.0385C75.0453 52.4117 74.7083 53.7831 74.275 55.1492" stroke="black" stroke-width="1.5" stroke-linecap="round" stroke-linejoin="round"/>
<path d="M74.7846 37.2942C72.6099 28.8136 67.0436 21.3633 59.1304 16.9687" stroke="black" stroke-width="1.5" stroke-linecap="round" stroke-linejoin="round"/>
<path d="M33.5098 76.2836C18.1957 71.4269 9.00642 56.2716 11.1606 40.8759" stroke="black" stroke-width="1.5" stroke-linecap="round" stroke-linejoin="round"/>
<path d="M48.8015 13.3291C34.8512 10.9229 20.913 17.9204 14.4695 30.4423" stroke="#757575" stroke-width="1.5" stroke-linecap="round" stroke-linejoin="round" stroke-dasharray="7 7"/>
<path d="M75.2901 51.0385C74.6925 55.0757 73.3351 58.9523 71.3222 62.4579C68.1894 67.92 63.4689 72.4921 57.5446 75.4073" stroke="black" stroke-width="1.5" stroke-linecap="round" stroke-linejoin="round"/>
<path d="M9.48987 46.116C12.3908 46.8703 15.3539 45.1302 16.1082 42.2293C16.8625 39.3284 15.1224 36.3653 12.2215 35.6109C9.32063 34.8566 6.3575 36.5967 5.60317 39.4976C4.84885 42.3985 6.58898 45.3617 9.48987 46.116Z" fill="#0035F5"/>
<path d="M45.9114 24.5382L46.0265 23.7978C44.0463 23.4918 42.0194 23.4406 39.9987 23.6612L40.0796 24.4077L40.161 25.1528C42.0496 24.9465 43.9448 24.9933 45.7968 25.2795L45.9114 24.5382ZM56.5026 29.193L56.9718 28.6069C55.3858 27.3353 53.6488 26.2898 51.8141 25.4843L51.5134 26.1706L51.2119 26.8574C52.9279 27.6108 54.5514 28.5893 56.0337 29.7778L56.5026 29.193ZM64.0411 38.252C63.6791 37.3246 63.253 36.4099 62.7616 35.5143C62.2701 34.6187 61.7274 33.768 61.1397 32.9645L60.5343 33.4081L59.9293 33.8503C60.4788 34.6016 60.9864 35.3973 61.4466 36.2359C61.9067 37.0744 62.3052 37.9301 62.6437 38.7971L63.3422 38.5252L64.0411 38.252ZM33.8181 66.392C32.1019 65.6385 30.4782 64.6593 28.9958 63.4707L28.5265 64.0568L28.0577 64.6416C29.6437 65.9132 31.3803 66.96 33.215 67.7656L33.8181 66.392ZM65.3416 50.1368C65.6477 48.1565 65.6984 46.129 65.4778 44.1082L64.7318 44.19L63.9862 44.2705C64.1925 46.1593 64.1463 48.055 63.86 49.9072L64.6012 50.0218L65.3416 50.1368ZM44.9495 68.8422L44.8685 68.0957C42.9797 68.3019 41.084 68.2558 39.2318 67.9695L39.0027 69.452C40.9829 69.758 43.0101 69.8079 45.0308 69.5873L44.9495 68.8422ZM60.5321 61.0813C61.8035 59.4955 62.8497 57.7589 63.6552 55.9245L62.2817 55.3214C61.5282 57.0373 60.5496 58.661 59.3612 60.1432L59.9465 60.6129L60.5321 61.0813ZM53.6247 66.8711C54.5202 66.3797 55.3711 65.8368 56.1745 65.2492L55.7314 64.6446L55.2887 64.0388C54.5375 64.5882 53.7416 65.096 52.9031 65.5561C52.0647 66.0161 51.2089 66.4148 50.3419 66.7532L50.6143 67.4525L50.887 68.1506C51.8143 67.7886 52.7292 67.3625 53.6247 66.8711Z" fill="#757575"/>
</svg>
