<svg width="89" height="89" viewBox="0 0 89 89" fill="none" xmlns="http://www.w3.org/2000/svg">
<circle cx="44.5" cy="44.5" r="44" stroke="white"/>
<path d="M71.7769 35.1635C74.9594 37.6713 77 41.5585 77 45.9238C77 53.488 70.8727 59.6235 63.3085 59.6235C55.7443 59.6235 51.7642 55.4112 48.0026 50.2892" stroke="white" stroke-width="1.10342" stroke-linecap="round" stroke-linejoin="round"/>
<path d="M12.9845 45.9238C12.9845 53.488 19.1118 59.6235 26.676 59.6235C35.8328 59.6235 40.4084 52.775 44.9922 45.9238C49.5733 39.0754 54.149 32.2324 63.3085 32.2324" stroke="white" stroke-width="1.10342" stroke-linecap="round" stroke-linejoin="round"/>
<path d="M41.7551 41.2552C38.0482 36.2753 33.7157 32.2323 26.676 32.2323C21.3737 32.2323 16.7762 35.2427 14.5034 39.649" stroke="white" stroke-width="1.10342" stroke-linecap="round" stroke-linejoin="round"/>
<path d="M59.5688 29.853L63.3086 32.2323L60.26 35.4476" stroke="white" stroke-width="1.10342" stroke-linecap="round" stroke-linejoin="round"/>
<path d="M18.7321 38.3431L14.5006 39.6516L14.0198 35.2453" stroke="white" stroke-width="1.10342" stroke-linecap="round" stroke-linejoin="round"/>
<path d="M47.9235 54.7144L47.9999 50.2836L52.3352 51.2042" stroke="white" stroke-width="1.10342" stroke-linecap="round" stroke-linejoin="round"/>
</svg>
