<svg width="89" height="89" viewBox="0 0 89 89" fill="none" xmlns="http://www.w3.org/2000/svg">
<circle cx="44.5" cy="44.5" r="44" stroke="white"/>
<path d="M43.7948 66.7254C38.8741 66.2074 29.3434 62.8406 30.5865 53.5171" stroke="white" stroke-linecap="round"/>
<path d="M64.0627 38.7549C66.1753 43.2291 68.2471 53.1224 59.6337 56.9015" stroke="white" stroke-linecap="round"/>
<path d="M30.5865 36.2059C33.405 32.1392 40.9369 25.3983 48.5165 30.9681" stroke="white" stroke-linecap="round"/>
<path d="M28.6943 38.106C28.8185 38.1026 28.9508 38.1248 29.0781 38.189C29.205 38.253 29.2984 38.345 29.3662 38.44C29.4887 38.6115 29.5486 38.8245 29.5889 38.9947C29.6309 39.1725 29.6717 39.4029 29.7168 39.6285C29.901 40.5496 30.2655 42.0209 31.7539 43.8814C32.5964 44.9344 33.9592 46.2564 35.459 47.8589C36.937 49.4383 38.5102 51.2541 39.6836 53.2183C40.8565 55.1817 41.6538 57.3331 41.5234 59.5757C41.3921 61.8343 40.3246 64.1099 37.917 66.3169L37.8652 66.3648L37.8027 66.396C35.8819 67.3564 32.4335 67.9608 29.1455 66.7066C25.8145 65.4359 22.7403 62.2943 21.5488 55.94L21.5439 55.9146L21.542 55.8892C21.2746 52.6795 22.1762 44.7623 27.8838 38.4204L27.9473 38.3501L28.0322 38.3072C28.2395 38.2035 28.4674 38.1121 28.6943 38.106Z" stroke="white" stroke-linecap="round"/>
<path d="M47.446 66.5213C47.3786 66.4169 47.3289 66.2924 47.3176 66.1502C47.3065 66.0086 47.3366 65.881 47.3825 65.7737C47.4655 65.5799 47.6164 65.4181 47.7409 65.2954C47.8711 65.1671 48.0468 65.0126 48.2161 64.857C48.9077 64.2211 49.9758 63.1457 50.7929 60.9076C51.2553 59.6408 51.6773 57.7896 52.2681 55.6757C52.8503 53.5924 53.5851 51.3051 54.6545 49.2823C55.7234 47.2604 57.1478 45.4618 59.1321 44.4087C61.1306 43.3481 63.6296 43.0787 66.7659 43.9902L66.8337 44.0095L66.8929 44.0467C68.711 45.1896 71.0182 47.8227 71.6538 51.2839C72.2976 54.7905 71.2092 59.0491 66.3975 63.367L66.3783 63.3844L66.3576 63.3992C63.7535 65.2945 56.5193 68.6352 48.1356 67.0507L48.0426 67.033L47.9617 66.9827C47.7655 66.8594 47.5691 66.7121 47.446 66.5213Z" stroke="white" stroke-linecap="round"/>
<path d="M62.9414 36.7131C62.8846 36.8237 62.8016 36.929 62.6842 37.0098C62.567 37.0903 62.4415 37.128 62.3256 37.1419C62.1163 37.1669 61.9007 37.1171 61.7322 37.0707C61.556 37.0221 61.3343 36.9471 61.1149 36.8783C60.2185 36.5973 58.7531 36.2101 56.4062 36.6215C55.0779 36.8544 53.2638 37.4145 51.1377 37.9599C49.0424 38.4973 46.6941 39.0046 44.4077 39.0899C42.1222 39.1752 39.8524 38.8408 37.9482 37.649C36.0305 36.4486 34.5476 34.419 33.7688 31.2471L33.7517 31.1788L33.7543 31.1089C33.835 28.9629 34.9617 25.6483 37.6415 23.3672C40.3563 21.0564 44.5886 19.8697 50.7339 21.8778L50.7585 21.8857L50.7817 21.8962C53.7251 23.2039 60.2354 27.7985 63.055 35.8512L63.0862 35.9406L63.083 36.0358C63.0743 36.2674 63.045 36.5111 62.9414 36.7131Z" stroke="white" stroke-linecap="round"/>
</svg>
