<svg width="88" height="78" viewBox="0 0 88 78" fill="none" xmlns="http://www.w3.org/2000/svg">
<path d="M12.616 60H2.72403C1.95602 60 1.47468 59.1701 1.85601 58.5035L34.445 1.52977C34.8305 0.855777 35.8036 0.85914 36.1844 1.53578L67 56.2832" stroke="black" stroke-width="1.5" stroke-linecap="round"/>
<path d="M27 61H86.2567C87.029 61 87.5098 60.1618 87.12 59.4952L53.7747 2.47608C53.3886 1.81584 52.4344 1.81584 52.0483 2.47608L46.4336 12.0769" stroke="#757575" stroke-width="1.5" stroke-linecap="round" stroke-dasharray="7 7"/>
<path d="M41.373 25L10.915 75.4834C10.5129 76.1499 10.9928 77 11.7712 77H75.3257C76.0824 77 76.5649 76.1921 76.2062 75.5259L70.0873 64.1632" stroke="black" stroke-width="1.5" stroke-linecap="round"/>
<path d="M40.2386 31.4771C43.1317 31.4771 45.4771 29.1317 45.4771 26.2386C45.4771 23.3454 43.1317 21 40.2386 21C37.3454 21 35 23.3454 35 26.2386C35 29.1317 37.3454 31.4771 40.2386 31.4771Z" fill="#0035F5"/>
</svg>
