<svg width="95" height="95" viewBox="0 0 95 95" fill="none" xmlns="http://www.w3.org/2000/svg">
<g clip-path="url(#clip0_124_201)">
<path d="M70.7646 69.927L70.7646 24.2569C70.7646 23.4083 70.0767 22.7205 69.2282 22.7205L24.7469 22.7205C23.8984 22.7205 23.2105 23.4083 23.2105 24.2569L23.2105 69.927C23.2105 70.7755 23.8984 71.4634 24.7469 71.4634L69.2282 71.4634C70.0767 71.4634 70.7646 70.7755 70.7646 69.927Z" stroke="#757575" stroke-width="1.5" stroke-linecap="round" stroke-linejoin="round" stroke-dasharray="7 7"/>
<path d="M88.6879 4.56992L4.18157 92.4795" stroke="black" stroke-width="1.5" stroke-linecap="round" stroke-linejoin="round"/>
<path d="M4.22907 75.2446L3.65586 93.1722L21.6288 90.9659" stroke="black" stroke-width="1.5" stroke-linecap="round" stroke-linejoin="round"/>
<path d="M71.9534 4.43601L89.8449 3.16357L88.3418 21.209" stroke="black" stroke-width="1.5" stroke-linecap="round" stroke-linejoin="round"/>
<path d="M46.9915 53.1252C49.9847 52.9673 52.2831 50.4128 52.1252 47.4196C51.9673 44.4264 49.4129 42.128 46.4197 42.2859C43.4265 42.4438 41.128 44.9982 41.2859 47.9914C41.4438 50.9846 43.9983 53.2831 46.9915 53.1252Z" fill="#0035F5"/>
</g>
<defs>
<clipPath id="clip0_124_201">
<rect width="95" height="95" fill="white"/>
</clipPath>
</defs>
</svg>
