<svg width="95" height="95" viewBox="0 0 95 95" fill="none" xmlns="http://www.w3.org/2000/svg">
<path d="M48.0713 5.2547C48.0942 5.25688 48.1168 5.2611 48.1396 5.26544C48.165 5.27028 48.1901 5.27562 48.2148 5.28302C48.2511 5.29391 48.2872 5.30634 48.3223 5.32306C48.3273 5.32543 48.332 5.32839 48.3369 5.33087C48.3496 5.33726 48.3626 5.34322 48.375 5.3504L81.875 24.6912C83.6539 25.7183 84.7498 27.6167 84.75 29.6707V65.5291C84.7499 67.5256 83.7139 69.3791 82.0137 70.4256L48.3936 91.1151C48.3679 91.1308 48.3411 91.1437 48.3145 91.1561C48.3095 91.1583 48.3048 91.1607 48.2998 91.1629C48.2702 91.1759 48.2395 91.1843 48.209 91.1932C48.1892 91.1989 48.1696 91.2047 48.1494 91.2088C48.1224 91.2143 48.0956 91.218 48.0684 91.2205C48.0456 91.2226 48.023 91.2244 48 91.2244C47.9757 91.2244 47.9518 91.2229 47.9277 91.2205C47.9039 91.2182 47.8802 91.2154 47.8564 91.2108C47.8309 91.2058 47.8061 91.1988 47.7812 91.1912C47.754 91.1829 47.7267 91.1745 47.7002 91.1629C47.695 91.1606 47.6897 91.1585 47.6846 91.1561C47.6582 91.1438 47.6318 91.1307 47.6064 91.1151L13.9863 70.4256C12.286 69.3791 11.2501 67.5257 11.25 65.5291V29.6707C11.2502 27.6167 12.3461 25.7183 14.125 24.6912L47.625 5.3504C47.6376 5.34315 47.6503 5.33634 47.6631 5.3299C47.6674 5.32774 47.6715 5.32513 47.6758 5.32306C47.7126 5.30535 47.7509 5.29231 47.7891 5.28107C47.8086 5.27534 47.8287 5.2725 47.8486 5.26837C47.8754 5.26283 47.9018 5.25726 47.9287 5.2547C47.9524 5.25242 47.9761 5.25277 48 5.25275C48.0239 5.25277 48.0476 5.25241 48.0713 5.2547ZM14.875 25.991C13.5603 26.7501 12.7502 28.1527 12.75 29.6707V65.5291C12.7501 67.0048 13.5157 68.3748 14.7725 69.1483L48 89.5955L81.2275 69.1483C82.4842 68.3748 83.2499 67.0048 83.25 65.5291V29.6707C83.2498 28.1526 82.4398 26.7491 81.125 25.9901L48 6.86505L14.875 25.991Z" fill="black"/>
<path d="M13 67.5L46 51L65.5 61" stroke="#757575" stroke-width="1.5" stroke-dasharray="7 7"/>
<path d="M64.9915 66.1252C67.9847 65.9673 70.2831 63.4128 70.1252 60.4196C69.9673 57.4264 67.4129 55.128 64.4197 55.2859C61.4265 55.4438 59.128 57.9982 59.2859 60.9914C59.4438 63.9846 61.9983 66.2831 64.9915 66.1252Z" fill="#0035F5"/>
</svg>
