<svg width="95" height="95" viewBox="0 0 95 95" fill="none" xmlns="http://www.w3.org/2000/svg">
<path d="M15.404 62.589L4.19891 82.0001C3.62182 83 4.3433 84.2499 5.49774 84.2501H33.2526L34.488 85.7501H5.49774L5.28387 85.7433C3.17109 85.5995 1.86657 83.3401 2.79852 81.4386L2.89911 81.2501L14.3854 61.3526L15.404 62.589ZM92.1003 81.2501C93.2548 83.2501 91.811 85.7501 89.5016 85.7501H72.1423L71.0456 84.2501H89.5016C90.6563 84.2501 91.3778 83.0001 90.8005 82.0001L60.2009 29.0001H61.9333L92.1003 81.2501ZM57.7741 84.2501L58.8708 85.7501H48.3688L47.1335 84.2501H57.7741ZM27.111 42.3136L21.1237 52.6837L20.1042 51.4474L26.1432 40.9893L27.111 42.3136ZM46.9997 8.58701C46.6806 8.69856 46.3925 8.91819 46.2009 9.25009L32.9665 32.171L31.9987 30.8468L44.902 8.50009C45.3837 7.66603 46.167 7.18138 46.9997 7.04306V8.58701Z" fill="black"/>
<path d="M17.5 57L40.5 85.5" stroke="#757575" stroke-width="1.5" stroke-dasharray="7 7"/>
<path d="M29 35.9999L65.5 85.4999" stroke="#757575" stroke-width="1.5" stroke-dasharray="7 7"/>
<path d="M62.9915 37.1252C65.9847 36.9673 68.2831 34.4128 68.1252 31.4196C67.9673 28.4264 65.4129 26.128 62.4197 26.2859C59.4265 26.4438 57.128 28.9982 57.2859 31.9914C57.4438 34.9846 59.9983 37.2831 62.9915 37.1252Z" fill="#0035F5"/>
</svg>
