<svg width="95" height="95" viewBox="0 0 95 95" fill="none" xmlns="http://www.w3.org/2000/svg">
<path d="M46.9915 53.5534C49.9847 53.3955 52.2831 50.841 52.1252 47.8478C51.9673 44.8546 49.4129 42.5562 46.4197 42.7141C43.4265 42.872 41.128 45.4265 41.2859 48.4197C41.4438 51.4128 43.9983 53.7113 46.9915 53.5534Z" fill="#0035F5"/>
<path d="M8.5 86.5H34V88H7V65H8.5V86.5ZM87 88H63V86.5H85.5V65H87V88ZM87 36H85.5V9.5H63V8H87V36ZM34 9.5H8.5V36H7V8H34V9.5Z" fill="black"/>
<rect x="19.75" y="20.75" width="53.5" height="53.5" stroke="#757575" stroke-width="1.5" stroke-dasharray="7 7"/>
</svg>
