<svg width="95" height="95" viewBox="0 0 95 95" fill="none" xmlns="http://www.w3.org/2000/svg">
<path d="M39.787 17.3189L43.8169 11.0299L37.5298 7" stroke="black" stroke-width="1.5" stroke-linecap="round" stroke-linejoin="round"/>
<path d="M50.8529 11.1722C70.5075 13.1404 85.8535 29.7299 85.8535 49.9036C85.8535 55.5942 84.6324 60.9999 82.4383 65.8724" stroke="black" stroke-width="1.5" stroke-linecap="round" stroke-linejoin="round"/>
<path d="M11.4152 65.8725C9.22117 61 8 55.5943 8 49.9037C8 29.73 23.346 13.1404 43.0007 11.1723" stroke="black" stroke-width="1.5" stroke-linecap="round" stroke-linejoin="round"/>
<path d="M78.5041 72.6703C71.4356 82.46 59.924 88.8324 46.9247 88.8324C33.9254 88.8324 22.4159 82.462 15.3454 72.6703" stroke="black" stroke-width="1.5" stroke-linecap="round" stroke-linejoin="round"/>
<path d="M79.1737 59.6121L82.1513 66.4608L89 63.4811" stroke="black" stroke-width="1.5" stroke-linecap="round" stroke-linejoin="round"/>
<path d="M22.3792 72.941L14.9525 72.1675L14.1771 79.5963" stroke="black" stroke-width="1.5" stroke-linecap="round" stroke-linejoin="round"/>
<path d="M34.9998 49.3219L67.8952 49.2542" stroke="#757575" stroke-width="1.5" stroke-dasharray="3 3"/>
<path d="M61 42L67.2929 48.2929C67.6834 48.6834 67.6834 49.3166 67.2929 49.7071L61 56" stroke="#262222" stroke-width="1.5" stroke-linecap="round"/>
<path d="M31.9915 54.1252C34.9847 53.9673 37.2831 51.4128 37.1252 48.4196C36.9673 45.4264 34.4129 43.128 31.4197 43.2859C28.4265 43.4438 26.128 45.9982 26.2859 48.9914C26.4438 51.9846 28.9983 54.2831 31.9915 54.1252Z" fill="#0035F5"/>
</svg>
