<svg width="95" height="95" viewBox="0 0 95 95" fill="none" xmlns="http://www.w3.org/2000/svg">
<path d="M35.6367 59.2427L91.5025 12.2459" stroke="#262222" stroke-width="1.5" stroke-linecap="round"/>
<path d="M38.0597 93.1454C19.0954 93.1454 3.75009 78.1098 3.75009 59.5975C3.75031 41.0854 19.0955 26.0507 38.0597 26.0507C57.0238 26.0507 72.369 41.0854 72.3692 59.5975C72.3692 78.1098 57.0239 93.1454 38.0597 93.1454Z" stroke="black" stroke-width="1.5"/>
<path d="M29.5077 91.3444C25.8251 90.616 22.4021 89.1672 19.3905 87.151L19.8065 86.5289C16.8273 84.5344 14.262 81.969 12.2674 78.9899L11.6454 79.4069C9.62905 76.3953 8.18055 72.9722 7.452 69.2897L8.18637 69.1442C7.84534 67.4203 7.66686 65.6374 7.66684 63.8121C7.66684 61.9869 7.84537 60.2039 8.18637 58.4801L7.452 58.3356C8.18039 54.6529 9.62915 51.23 11.6454 48.2184L12.2674 48.6344C14.262 45.6551 16.8272 43.0899 19.8065 41.0953L19.3905 40.4733C22.4021 38.4571 25.825 37.0083 29.5077 36.2799L29.6522 37.0143C31.376 36.6733 33.159 36.4947 34.9842 36.4947C36.8095 36.4948 38.5924 36.6732 40.3163 37.0143L40.4618 36.2799C44.1443 37.0085 47.5674 38.457 50.579 40.4733L50.162 41.0953C53.1411 43.0899 55.7065 45.6552 57.701 48.6344L58.3231 48.2184C60.3392 51.23 61.7881 54.653 62.5165 58.3356L61.7821 58.4801C62.1231 60.2039 62.3016 61.9869 62.3016 63.8121C62.3016 65.6374 62.1231 67.4203 61.7821 69.1442L62.5165 69.2897C61.7879 72.9721 60.3393 76.3954 58.3231 79.4069L57.701 78.9899C55.7065 81.9691 53.1412 84.5344 50.162 86.5289L50.5789 87.151C47.5675 89.1672 44.1442 90.6158 40.4618 91.3444L40.3163 90.61C38.5924 90.951 36.8095 91.1295 34.9842 91.1295C33.159 91.1295 31.376 90.951 29.6522 90.61L29.5077 91.3444Z" stroke="#757575" stroke-width="1.5" stroke-dasharray="9.14 9.14"/>
<path d="M92.388 12.2459L87.4086 28.3415L82.4293 44.4372" stroke="#262222" stroke-width="1.5" stroke-linecap="round"/>
<path d="M87.7305 10.2143L59.7879 10.2142" stroke="#262222" stroke-width="1.5" stroke-linecap="round"/>
<path d="M34.4196 53.286C31.4264 53.4439 29.128 55.9983 29.2859 58.9915C29.4438 61.9847 31.9983 64.2832 34.9915 64.1253C37.9847 63.9674 40.2831 61.4129 40.1252 58.4197C39.9673 55.4265 37.4128 53.1281 34.4196 53.286Z" fill="#0035F5"/>
</svg>
