<svg width="95" height="95" viewBox="0 0 95 95" fill="none" xmlns="http://www.w3.org/2000/svg">
<g clip-path="url(#clip0_142_2579)">
<path d="M89.8491 43.804C90.1806 47.6257 89.9971 51.5564 89.2383 55.51C84.8146 78.5615 62.5415 93.6622 39.49 89.2384C32.0314 87.807 25.4075 84.5042 20.0057 79.9137C20.6174 79.7496 21.215 79.5448 21.7947 79.3015C26.8509 83.3956 32.9583 86.3412 39.7943 87.6531C61.9703 91.9089 83.3972 77.3819 87.653 55.2058C88.3589 51.5275 88.5445 47.8701 88.2677 44.308C88.8064 44.1711 89.3341 44.0024 89.8491 43.804ZM55.51 5.76168C64.6136 7.50875 72.4754 12.0414 78.386 18.3048C77.896 18.5591 77.4217 18.8422 76.9656 19.1518C71.3083 13.2615 63.8367 9.00338 55.2057 7.34701C33.0296 3.09122 11.6028 17.6182 7.34696 39.7943C6.30997 45.1978 6.39038 50.5564 7.42269 55.6334C6.93822 56.0368 6.48076 56.4738 6.05312 56.9407C4.78189 51.3734 4.61632 45.458 5.76163 39.4901C10.1854 16.4386 32.4585 1.3379 55.51 5.76168Z" fill="black"/>
<path d="M47.4196 42.2859C44.4264 42.4438 42.128 44.9983 42.2859 47.9915C42.4438 50.9847 44.9983 53.2831 47.9915 53.1252C50.9847 52.9673 53.2831 50.4128 53.1252 47.4196C52.9673 44.4264 50.4128 42.128 47.4196 42.2859Z" fill="#0035F5"/>
<path d="M48.3394 76.1954L47.303 21.0927" stroke="#262222" stroke-width="1.5" stroke-linecap="round"/>
<path d="M47.6963 21L56.7137 29.97L65.7311 38.94" stroke="#262222" stroke-width="1.5" stroke-linecap="round"/>
<path d="M43.5 22.9999L37.6659 28.9999L29.3622 37.9399" stroke="#262222" stroke-width="1.5" stroke-linecap="round"/>
</g>
<defs>
<clipPath id="clip0_142_2579">
<rect width="95" height="95" fill="white"/>
</clipPath>
</defs>
</svg>
