<svg width="95" height="95" viewBox="0 0 95 95" fill="none" xmlns="http://www.w3.org/2000/svg">
<path d="M47.9915 56.1252C50.9847 55.9673 53.2831 53.4128 53.1252 50.4196C52.9673 47.4264 50.4129 45.128 47.4197 45.2859C44.4265 45.4438 42.128 47.9982 42.2859 50.9914C42.4438 53.9846 44.9983 56.2831 47.9915 56.1252Z" fill="#0035F5"/>
<path d="M8.2346 72.9607L10.4369 64.4572L18.9425 66.6594" stroke="black" stroke-width="1.5" stroke-linecap="round" stroke-linejoin="round"/>
<path d="M7.55209 54.7372C7.18946 52.5451 7 50.294 7 47.998C7 25.3537 25.3558 7 47.998 7C64.6078 7 78.9115 16.8787 85.3533 31.0805" stroke="black" stroke-width="1.5" stroke-linecap="round" stroke-linejoin="round"/>
<path d="M88.4479 41.2606C88.8105 43.4527 89 45.7039 89 47.9999C89 70.6441 70.6443 88.9979 48.0021 88.9979C31.3923 88.9979 17.0886 79.1192 10.6468 64.9174" stroke="#757575" stroke-width="1.5" stroke-linecap="round" stroke-linejoin="round" stroke-dasharray="7 7"/>
<path d="M77.1879 30.1819L85.883 31.4409L87.1421 22.7458" stroke="black" stroke-width="1.5" stroke-linecap="round" stroke-linejoin="round"/>
<path d="M29.5596 51.6979L29.5596 31.5796L65.7976 31.5796L65.5717 67.9952L54.2613 68.3992" stroke="black" stroke-width="1.6" stroke-linecap="round"/>
<path d="M29.8096 59.5702L29.8096 68.3173L41.0558 68.3173" stroke="black" stroke-width="1.6" stroke-linecap="round"/>
<path d="M41.3057 31.3295L41.3057 25.5814M53.4267 31.3295L53.4267 25.5814" stroke="black" stroke-width="1.6" stroke-linecap="round"/>
<path d="M29.3097 59.1952L23.5616 59.1952M29.3097 47.0742L23.5616 47.0742" stroke="black" stroke-width="1.6" stroke-linecap="round"/>
<path d="M72.0455 55.6964L66.2974 55.6964M72.0455 43.5755L66.2974 43.5755" stroke="black" stroke-width="1.6" stroke-linecap="round"/>
</svg>
