<svg width="95" height="95" viewBox="0 0 95 95" fill="none" xmlns="http://www.w3.org/2000/svg">
<g clip-path="url(#clip0_146_2874)">
<circle cx="36.2877" cy="59.4795" r="32.5377" transform="rotate(-8.38152 36.2877 59.4795)" stroke="#757575" stroke-width="1.5" stroke-dasharray="7 7"/>
<path d="M60.5713 4.01074C78.5586 4.46634 93 19.191 93 37.2881L92.9893 38.1465C92.6035 53.3787 81.9847 66.0658 67.751 69.5957C68.055 69.0203 68.3308 68.428 68.5771 67.8203C81.8187 63.9825 91.4998 51.7669 91.5 37.2881C91.5 19.7324 77.2685 5.50031 59.7129 5.5C42.157 5.5 27.9248 19.7322 27.9248 37.2881C27.9249 43.1795 29.5299 48.6953 32.3232 53.4258C32.0875 54.0311 31.8813 54.6512 31.7061 55.2842C28.5094 50.3198 26.5952 44.4514 26.4355 38.1465L26.4248 37.2881C26.4248 18.9038 41.3286 4 59.7129 4L60.5713 4.01074Z" fill="black"/>
<path d="M33.9915 61.1252C36.9847 60.9673 39.2831 58.4128 39.1252 55.4196C38.9673 52.4264 36.4129 50.128 33.4197 50.2859C30.4265 50.4438 28.128 52.9982 28.2859 55.9914C28.4438 58.9846 30.9983 61.2831 33.9915 61.1252Z" fill="#0035F5"/>
</g>
<defs>
<clipPath id="clip0_146_2874">
<rect width="95" height="95" fill="white"/>
</clipPath>
</defs>
</svg>
