<svg width="95" height="95" viewBox="0 0 95 95" fill="none" xmlns="http://www.w3.org/2000/svg">
<g clip-path="url(#clip0_146_2880)">
<path d="M48.0138 63.8652C48.1811 64.0848 48.4949 64.1273 48.7145 63.9599L51.6135 61.7512L52.5225 62.9443L49.6236 65.1531L49.4547 65.2682C48.648 65.7629 47.5994 65.6212 46.9528 64.9302L46.8206 64.7743L44.6119 61.8753L45.805 60.9663L48.0138 63.8652ZM64.1177 54.11L58.3197 58.5275L57.4106 57.3343L63.2086 52.9168L64.1177 54.11ZM75.7128 45.2756L69.9148 49.6931L69.0058 48.4999L74.8037 44.0824L75.7128 45.2756ZM84.7877 35.847L84.9029 36.0159C85.3975 36.8226 85.2557 37.8712 84.5648 38.5177L84.4089 38.6499L81.51 40.8587L80.6009 39.6655L83.4999 37.4568C83.7194 37.2895 83.7618 36.9757 83.5946 36.7561L81.3858 33.8571L82.579 32.948L84.7877 35.847ZM78.1621 27.1508L76.9689 28.0599L72.5514 22.262L73.7446 21.3529L78.1621 27.1508ZM69.3277 15.5557L68.1345 16.4648L63.7171 10.6668L64.9102 9.75777L69.3277 15.5557ZM31.9808 42.822L30.7877 43.7311L26.9431 38.6851L28.1362 37.776L31.9808 42.822ZM24.5043 26.1704L21.6053 28.3791C21.3857 28.5465 21.3433 28.8602 21.5106 29.0799L23.7194 31.9788L22.5262 32.8879L20.3175 29.9889C19.6898 29.1652 19.8 28.0109 20.5404 27.3182L20.6962 27.186L23.5952 24.9772L24.5043 26.1704ZM55.6505 0.567689C56.5148 0.0378317 57.657 0.237879 58.2846 1.06162L60.4933 3.96059L59.3002 4.86966L57.0914 1.97068C56.9241 1.75107 56.6103 1.70873 56.3907 1.87599L53.4917 4.08473L52.5826 2.89158L55.4816 0.682839L55.6505 0.567689ZM36.0994 17.336L30.3015 21.7535L29.3924 20.5603L35.1903 16.1429L36.0994 17.336ZM47.6945 8.50163L41.8966 12.9191L40.9875 11.726L46.7855 7.30848L47.6945 8.50163Z" fill="#757575"/>
<path d="M14.4473 55.8402C13.6993 56.5244 13.5758 57.6774 14.194 58.5082L40.2995 93.593L40.43 93.7504C41.0686 94.4487 42.1155 94.6023 42.9278 94.1169L43.098 94.0037L78.1828 67.8982L78.3401 67.7678C79.0385 67.1292 79.192 66.0823 78.7066 65.2699L78.5934 65.0998L67.4029 50.0602L66.1995 50.9556L77.39 65.9952C77.5547 66.2167 77.5088 66.53 77.2873 66.6948L42.2025 92.8003C41.981 92.965 41.6678 92.919 41.5029 92.6976L15.3974 57.6128C15.2326 57.3913 15.2787 57.0781 15.5001 56.9132L50.5849 30.8077C50.8064 30.6429 51.1197 30.6888 51.2845 30.9104L58.8047 41.0172L60.0081 40.1218L52.4879 30.015C51.8697 29.1841 50.7299 28.971 49.8596 29.4911L49.6895 29.6043L14.6047 55.7098L14.4473 55.8402Z" fill="black"/>
<path d="M50.9915 53.1254C53.9847 52.9675 56.2831 50.413 56.1252 47.4198C55.9673 44.4266 53.4129 42.1282 50.4197 42.2861C47.4265 42.444 45.128 44.9985 45.2859 47.9917C45.4438 50.9849 47.9983 53.2833 50.9915 53.1254Z" fill="#0035F5"/>
<path d="M40.5 57.0001L46 53.0001" stroke="black" stroke-width="1.5"/>
<path d="M56 43.5001L60 40.0001" stroke="black" stroke-width="1.5"/>
</g>
<defs>
<clipPath id="clip0_146_2880">
<rect width="95" height="95" fill="white"/>
</clipPath>
</defs>
</svg>
