<svg width="95" height="95" viewBox="0 0 95 95" fill="none" xmlns="http://www.w3.org/2000/svg">
<path d="M73.4385 54.0625L76.6865 59.6875L76.0371 60.0625L77.6611 62.875C78.0606 63.5669 78.2394 64.2942 78.2383 64.999H78.9854C78.9829 66.7736 78.018 68.4456 76.4824 69.335L76.1084 68.6875C75.4985 69.0409 74.7794 69.25 73.9805 69.25H70.7334V70H64.2383V69.25H57.7432V70H51.248V69.25H44.752V70H38.2568V69.25H31.7617V70H25.2666V69.25H22.0195C21.2206 69.25 20.5015 69.0409 19.8916 68.6875L19.5166 69.335C17.9814 68.4455 17.0161 66.7733 17.0137 64.999H17.7617C17.7608 64.3822 17.8974 63.7481 18.1992 63.1357L18.3389 62.875L19.9629 60.0625L19.3125 59.6875L22.5605 54.0625L23.21 54.4375L26.458 48.8125L25.8076 48.4375L29.0557 42.8125L29.7051 43.1875L32.9531 37.5625L32.3037 37.1875L32.3027 37.1865L35.5508 31.5625L36.2002 31.9375L39.4482 26.3125L38.7988 25.9375L38.7979 25.9365L42.0459 20.3125L42.6953 20.6875L44.3193 17.875C44.7188 17.1831 45.2592 16.665 45.8701 16.3135L45.4971 15.665C47.0345 14.7805 48.9644 14.7808 50.502 15.665L50.1299 16.3135C50.7408 16.665 51.2812 17.1831 51.6807 17.875L53.3047 20.6875L53.9531 20.3125L57.2012 25.9365L56.5518 26.3125L59.7998 31.9375L60.4482 31.5625L63.6963 37.1865L63.0469 37.5625L66.2949 43.1875L66.9434 42.8125L70.1914 48.4375L69.542 48.8125L72.79 54.4375L73.4385 54.0625Z" stroke="#757575" stroke-width="1.5" stroke-dasharray="7 7"/>
<circle cx="47.5" cy="47.5" r="41.693" stroke="black" stroke-width="1.61392"/>
<path d="M46.9915 53.1252C49.9847 52.9673 52.2831 50.4128 52.1252 47.4196C51.9673 44.4264 49.4129 42.128 46.4197 42.2859C43.4265 42.4438 41.128 44.9982 41.2859 47.9914C41.4438 50.9846 43.9983 53.2831 46.9915 53.1252Z" fill="#0035F5"/>
</svg>
