<svg width="95" height="95" viewBox="0 0 95 95" fill="none" xmlns="http://www.w3.org/2000/svg">
<path d="M47.5 5C70.9721 5 90 24.0279 90 47.5C90 70.9721 70.9721 90 47.5 90C37.3115 90 27.9617 86.4131 20.6406 80.4355C21.2332 80.247 21.8048 80.0124 22.3535 79.7383C29.2892 85.1559 38.017 88.3857 47.5 88.3857C70.0808 88.3857 88.3857 70.0808 88.3857 47.5C88.3857 24.9192 70.0808 6.61426 47.5 6.61426C24.9192 6.61426 6.61426 24.9192 6.61426 47.5C6.61426 51.992 7.34036 56.3143 8.67871 60.3574C8.234 60.7857 7.82186 61.2472 7.44727 61.7393C5.8645 57.2874 5 52.4949 5 47.5C5 24.0279 24.0279 5 47.5 5Z" fill="black"/>
<path d="M21 80L70.5 30" stroke="#757575" stroke-width="1.5" stroke-dasharray="7 7"/>
<path d="M48.9915 55.1252C51.9847 54.9673 54.2831 52.4128 54.1252 49.4196C53.9673 46.4264 51.4129 44.128 48.4197 44.2859C45.4265 44.4438 43.128 46.9982 43.2859 49.9914C43.4438 52.9846 45.9983 55.2831 48.9915 55.1252Z" fill="#0035F5"/>
<path d="M13 23.5L44 46.5" stroke="#262222" stroke-width="1.5" stroke-linecap="round"/>
</svg>
