<svg width="220" height="350" viewBox="0 0 220 350" fill="none" xmlns="http://www.w3.org/2000/svg">
<path d="M109.442 295.671C99.7707 295.671 91.332 304.147 91.332 313.852C91.3322 323.556 99.7708 332.031 109.442 332.031C119.114 332.031 127.553 323.556 127.554 313.852C127.554 304.147 119.114 295.671 109.442 295.671ZM162.396 78.5752H163.273V77.4609H162.396V78.5752ZM80.7441 316.953L80.3359 316.839C59.3681 310.991 41.9133 300.473 27.9492 284.117L27.7832 283.922H9.97266C8.34468 283.922 7.03052 283.38 6.125 282.471C5.21928 281.561 4.67871 280.241 4.67871 278.604C4.67876 276.968 5.21939 275.649 6.125 274.739C7.03053 273.83 8.3446 273.287 9.97266 273.287H56.7822C58.4101 273.287 59.7234 273.83 60.6289 274.739C61.5346 275.649 62.0761 276.968 62.0762 278.604C62.0762 280.241 61.5346 281.561 60.6289 282.471C59.7235 283.38 58.41 283.922 56.7822 283.922H42.5674L43.5146 284.872C54.1214 295.521 67.0851 302.62 81.2217 306.168L81.751 306.301L81.8945 305.773C85.3352 293.108 96.8054 285.036 109.442 285.036C120.912 285.036 131.273 291.948 137.041 302.372L137.286 302.816L137.751 302.613C164.859 290.78 184.447 264.192 194.23 232.464C204.015 200.73 204.017 163.781 191.882 131.121C189.539 124.817 186.014 117.041 181.604 109.681C177.197 102.326 171.886 95.3506 165.959 90.6797L165.558 90.3643L165.208 90.7363L109.188 150.317C108.884 150.346 108.556 150.419 108.235 150.507C107.815 150.622 107.361 150.774 106.926 150.92C106.483 151.068 106.059 151.209 105.675 151.314C105.283 151.422 104.977 151.479 104.762 151.479C102.376 151.479 101.457 151.453 100.476 150.468L95.7949 145.768L95.3994 145.371L95.0049 145.768L73.9404 166.916C73.4788 167.379 72.7417 167.647 71.9033 167.787C71.0773 167.925 70.2426 167.927 69.6543 167.927C69.0745 167.927 68.5844 167.923 67.9609 167.673C67.3258 167.418 66.5093 166.887 65.3682 165.741L40.793 141.068C38.6722 138.939 38.6694 135.772 40.7842 133.64L63.0059 113.679L63.4424 113.287L63.0283 112.871L58.3467 108.172C56.2228 106.04 56.2228 102.866 58.3467 100.733L58.3496 100.73L131.926 25.6895C132.598 25.6105 132.975 25.222 133.242 24.9541C133.529 24.666 133.678 24.5303 134.018 24.5303H134.108L134.194 24.502L158.681 16.3066C160.978 16.3072 163.08 16.3438 165.22 18.4922L189.794 43.165C190.877 44.252 191.88 46.3493 190.86 48.3975L190.843 48.4326L190.83 48.4697L182.639 73.1426L182.61 73.2285V73.3184C182.61 73.5092 182.566 73.616 182.51 73.6973C182.442 73.794 182.329 73.8944 182.126 74.0303C181.748 74.283 181.069 74.6352 180.433 75.2744L174.581 81.1494L174.203 81.5283L174.567 81.9209C198.373 107.641 210.466 145.944 210.839 184.27C211.211 222.596 199.861 260.845 176.901 286.457C166.445 298.122 152.484 306.306 138.483 312.162L138.142 312.306V313.852C138.142 320.769 135.847 326.528 132.401 331.141L131.735 332.031H208.913C210.541 332.031 211.854 332.574 212.76 333.483C213.665 334.393 214.207 335.712 214.207 337.349C214.207 338.985 213.665 340.306 212.76 341.215C211.854 342.124 210.541 342.666 208.913 342.666H9.97266C8.34468 342.666 7.03052 342.124 6.125 341.215C5.21928 340.306 4.67871 338.985 4.67871 337.349C4.67876 335.712 5.21939 334.393 6.125 333.483C7.03053 332.574 8.3446 332.031 9.97266 332.031H87.3799L86.4326 331.081C83.0148 327.65 80.7442 323.088 80.7441 317.376V316.953Z" stroke="white" stroke-width="2"/>
<circle cx="109.5" cy="313.688" r="17.8528" fill="white"/>
</svg>
