<svg width="220" height="350" viewBox="0 0 220 350" fill="none" xmlns="http://www.w3.org/2000/svg">
<path d="M135.555 319.321C135.555 333.475 127.246 344.946 113.023 344.946H59.9141C45.6912 344.946 37.3828 333.475 37.3828 319.321M141.188 287.29C148.297 287.29 154.062 294.461 154.062 303.305C154.062 312.15 148.297 319.321 141.188 319.321H31.75C24.6406 319.321 18.875 312.15 18.875 303.305C18.875 294.461 24.6406 287.29 31.75 287.29" stroke="white" stroke-width="1.6875" stroke-miterlimit="10" stroke-linecap="round"/>
<path d="M31.75 263.266V263.178C31.75 241.157 49.8555 229.634 71.9844 229.634H100.953C123.082 229.634 141.188 241.245 141.188 263.266V263.178M94.1867 94.981L105.958 223.215M144.406 287.29H78.1443C77.2917 287.29 76.4742 287.627 75.871 288.227L65.0761 298.969C64.9267 299.118 64.7492 299.236 64.5538 299.317C64.3584 299.397 64.149 299.439 63.9375 299.439C63.726 299.439 63.5166 299.397 63.3212 299.317C63.1258 299.236 62.9483 299.118 62.7989 298.969L52.004 288.227C51.4008 287.627 50.5833 287.29 49.7307 287.29H28.5312C25.9703 287.29 23.5141 286.277 21.7033 284.475C19.8924 282.673 18.875 280.229 18.875 277.68C18.875 275.132 19.8924 272.688 21.7033 270.886C23.5141 269.083 25.9703 268.071 28.5312 268.071H144.406C146.967 268.071 149.423 269.083 151.234 270.886C153.045 272.688 154.062 275.132 154.062 277.68C154.062 280.229 153.045 282.673 151.234 284.475C149.423 286.277 146.967 287.29 144.406 287.29Z" stroke="white" stroke-width="2" stroke-miterlimit="10" stroke-linecap="round"/>
<path d="M115.438 344.874H171.488C174.736 344.874 177.864 343.653 180.245 341.454C182.626 339.255 184.084 336.242 184.327 333.019L198.723 92.0952" stroke="white" stroke-width="2"  stroke-miterlimit="10" stroke-linecap="round"/>
<path d="M146.131 91.899L156.938 13.4702L175.848 7.06396" stroke="white" stroke-width="2"  stroke-linecap="round" stroke-linejoin="round"/>
<path d="M82.5625 92.0952H211.707" stroke="white" stroke-width="2"  stroke-miterlimit="10" stroke-linecap="round"/>
</svg>
