<svg width="220" height="350" viewBox="0 0 220 350" fill="none" xmlns="http://www.w3.org/2000/svg">
<path d="M180.145 322.619V339.095H39.8564V322.619H180.145ZM40.8564 338.095H179.145V323.619H40.8564V338.095ZM163.668 307.642C163.668 305.723 162.905 303.882 161.548 302.524C160.19 301.167 158.349 300.404 156.43 300.404H63.5713C61.6517 300.404 59.8105 301.167 58.4531 302.524C57.0958 303.882 56.3331 305.723 56.333 307.642C56.333 309.562 57.0958 311.403 58.4531 312.76C59.8105 314.118 61.6516 314.881 63.5713 314.881H156.43C158.349 314.881 160.19 314.118 161.548 312.76C162.905 311.403 163.668 309.562 163.668 307.642ZM87.2861 61.406V292.666H70.8096V61.406H87.2861ZM118.238 61.406V292.666H101.763V190.24H101.762V61.406H118.238ZM149.191 61.406V292.666H132.715V61.406H149.191ZM133.715 291.666H148.191V62.406H133.715V291.666ZM102.762 163.832H102.763V291.666H117.238V62.406H102.762V163.832ZM71.8096 291.666H86.2861V62.406H71.8096V291.666ZM156.43 38.1912C158.615 38.1912 160.71 39.0593 162.255 40.6042C163.8 42.1492 164.668 44.2447 164.668 46.4294C164.668 48.6142 163.8 50.7098 162.255 52.2546C160.71 53.7995 158.614 54.6677 156.43 54.6677H63.5713C61.3865 54.6677 59.291 53.7994 57.7461 52.2546C56.2012 50.7098 55.3331 48.6142 55.333 46.4294C55.333 44.2446 56.2012 42.1492 57.7461 40.6042C59.2911 39.0593 61.3864 38.1912 63.5713 38.1912H156.43ZM180.145 14.9763V31.4529H39.8564V14.9763H180.145ZM164.668 307.642C164.668 309.827 163.8 311.923 162.255 313.468C160.71 315.012 158.615 315.881 156.43 315.881H63.5713C61.3864 315.881 59.2911 315.012 57.7461 313.468C56.2012 311.923 55.333 309.827 55.333 307.642C55.3331 305.458 56.2012 303.362 57.7461 301.817C59.291 300.272 61.3864 299.404 63.5713 299.404H156.43C158.615 299.404 160.71 300.272 162.255 301.817C163.8 303.362 164.668 305.458 164.668 307.642Z" stroke-width="2" stroke="white"/>
</svg>
