<svg width="220" height="350" viewBox="0 0 220 350" fill="none" xmlns="http://www.w3.org/2000/svg">
<g clip-path="url(#clip0_384_4)">
<path d="M124.856 350L119.022 311.385C117.33 300.184 121.26 288.867 129.532 281.126L145.588 266.099C147.211 264.579 148.978 263.221 150.863 262.043L161.806 255.204C165.58 252.844 168.768 249.657 171.127 245.882C176.484 237.311 185.878 232.105 195.985 232.105H196.406M196.406 232.105L193.918 247.28C192.892 253.542 189.951 259.332 185.501 263.855L167.542 282.109M196.406 232.105L198.004 204.678C198.529 195.66 203.554 187.511 211.375 182.992C213.898 181.534 217.043 183.404 216.969 186.316L214.936 265.596C214.784 271.505 212.397 277.136 208.256 281.354L177.387 312.795C173.118 317.144 170.443 322.807 169.796 328.867L167.542 350" stroke="white" stroke-width="2"/>
<path d="M95.1439 350L100.978 311.385C102.67 300.184 98.7396 288.867 90.4682 281.126L74.4122 266.099C72.789 264.579 71.0224 263.221 69.1371 262.043L58.1943 255.204C54.4197 252.844 51.2319 249.657 48.8728 245.882C43.5161 237.311 34.122 232.105 24.0151 232.105H23.594M23.594 232.105L26.0817 247.28C27.1082 253.542 30.0485 259.332 34.4987 263.855L52.458 282.109M23.594 232.105L21.9963 204.678C21.471 195.66 16.4462 187.511 8.62471 182.992C6.10174 181.534 2.95661 183.404 3.0313 186.316L5.06411 265.596C5.21562 271.505 7.60274 277.136 11.7438 281.354L42.613 312.795C46.8825 317.144 49.5574 322.807 50.2038 328.867L52.458 350" stroke="white" stroke-width="2"/>
<path d="M35.7633 48.4998C73.864 48.4998 101.911 26.8915 111.173 16.0874C120.434 26.8915 148.481 48.4998 186.582 48.4998C186.582 91.4957 196.542 181.072 111.173 203.947C25.8028 181.072 35.7633 91.4957 35.7633 48.4998Z" stroke-width="2" stroke="white"/>
<path d="M111.233 71.0479V110.017M111.233 148.987V110.017M111.233 110.017H148.457M111.233 110.017H73.8882" stroke="white" stroke-width="18"/>
</g>
<defs>
<clipPath id="clip0_384_4">
<rect width="220" height="350" fill="white"/>
</clipPath>
</defs>
</svg>
