<svg width="220" height="351" viewBox="0 0 220 351" fill="none" xmlns="http://www.w3.org/2000/svg">
<path d="M189.708 206.225L173.852 253.797H126.299L110.44 206.225L150.075 178.483L189.708 206.225ZM149.861 187.54L119.305 208.88L119.076 209.039L119.164 209.304L131.487 246.273L131.572 246.528H168.578L168.663 246.273L180.985 209.304L181.074 209.039L180.846 208.88L150.288 187.54L150.075 187.391L149.861 187.54Z" stroke="white" stroke-width="2"/>
<path d="M130.67 254.17V339.095L149.963 322.752L169.255 339.095V254.17" stroke="white" stroke-width="2"/>
<path d="M136.319 217.847L145.66 227.188L163.83 209.018" stroke="white" stroke-width="4.47348"/>
<path d="M201.885 263.295V13.4175H18.1157V263.295H110" stroke-width="2" stroke="white"/>
<rect x="42.3726" y="35.968" width="136.218" height="1" fill="#D9D9D9" />
<rect x="42.3726" y="57.9583" width="136.218" height="1" fill="#D9D9D9"/>
<rect x="42.3726" y="79.9485" width="136.218" height="1" fill="#D9D9D9"/>
<rect x="42.3726" y="101.939" width="136.218" height="1" fill="#D9D9D9"/>
<rect x="42.3726" y="123.929" width="68.7435" height="1" fill="#D9D9D9"/>
</svg>
