<svg width="220" height="351" viewBox="0 0 220 351" fill="none" xmlns="http://www.w3.org/2000/svg">
<path d="M84.5594 168.685L81.5664 339.286H165.371L120.476 177.664" stroke="white" stroke-width="2" stroke-linecap="round" stroke-linejoin="round"/>
<path d="M84.5596 168.685V72.9081M120.476 177.664L138.434 66.9221" stroke="white" stroke-width="2"/>
<path d="M164.938 182.932L141.427 60.936L84.5596 72.9081L54.6295 120.796L37.0476 79.1527" stroke="white" stroke-width="2" stroke-linecap="round" stroke-linejoin="round"/>
<path d="M114.489 42.9779C124.407 42.9779 132.447 34.9378 132.447 25.0199C132.447 15.1019 124.407 7.06177 114.489 7.06177C104.571 7.06177 96.5312 15.1019 96.5312 25.0199C96.5312 34.9378 104.571 42.9779 114.489 42.9779Z" stroke="white" stroke-width="2"/>
<path d="M179.184 220.328C179.184 199.675 172.806 182.932 164.938 182.932C157.07 182.932 150.691 199.675 150.691 220.328" stroke-width="2" stroke="white"/>
<path d="M133.544 221.338H197.115L206.397 297.566H154.078" stroke-width="2" stroke="white"/>
<path d="M49.46 56.5505C51.6689 56.5505 53.4597 58.3416 53.46 60.5505V75.2927C53.4598 77.5018 51.669 79.2927 49.46 79.2927H24.1357C21.9267 79.2927 20.1359 77.5018 20.1357 75.2927V60.5515C20.1357 58.3424 21.9266 56.5505 24.1357 56.5505H49.46ZM25.959 66.783C25.4067 66.783 24.959 67.2307 24.959 67.783V68.8816C24.959 69.4337 25.4059 69.8823 25.958 69.8826H28.2275C28.7798 69.8826 29.2275 69.4339 29.2275 68.8816V67.783C29.2275 67.2307 28.7798 66.783 28.2275 66.783H25.959Z" stroke-width="2" fill="white"/>
</svg>
