<svg width="220" height="350" viewBox="0 0 220 350" fill="none" xmlns="http://www.w3.org/2000/svg">
<mask id="path-1-inside-1_384_7" fill="white">
<path d="M110 104.2C77.6486 104.2 51.4453 117.302 51.4453 133.478V148.116H168.555V133.478C168.555 117.302 142.352 104.2 110 104.2ZM80.7227 60.2843C80.7227 68.0491 83.8073 75.4959 89.2979 80.9865C94.7884 86.4771 102.235 89.5617 110 89.5617C117.765 89.5617 125.212 86.4771 130.702 80.9865C136.193 75.4959 139.277 68.0491 139.277 60.2843M106.34 9.04883C104.145 9.04883 102.681 10.5859 102.681 12.7085V34.6665H95.3614V16.3682C95.3614 16.3682 78.8929 22.6628 78.8929 43.8157C78.8929 43.8157 73.4034 44.8404 73.4034 52.9649H146.597C146.231 44.8404 141.107 43.8157 141.107 43.8157C141.107 22.6628 124.639 16.3682 124.639 16.3682V34.6665H117.319V12.7085C117.319 10.5859 115.929 9.04883 113.66 9.04883H106.34Z" />
</mask>
<path d="M51.4453 148.116H50.7072V148.855H51.4453V148.116ZM168.555 148.116V148.855H169.293V148.116H168.555ZM110 89.5617V90.2997V89.5617ZM102.681 34.6665V35.4046H103.419V34.6665H102.681ZM95.3614 34.6665H94.6233V35.4046H95.3614V34.6665ZM95.3614 16.3682H96.0995V15.2959L95.0979 15.6787L95.3614 16.3682ZM78.8929 43.8157L79.0283 44.5413L79.631 44.4288V43.8157H78.8929ZM73.4034 52.9649H72.6653V53.703H73.4034V52.9649ZM146.597 52.9649V53.703H147.369L147.334 52.9317L146.597 52.9649ZM141.107 43.8157H140.369V44.4208L140.963 44.5395L141.107 43.8157ZM124.639 16.3682L124.902 15.6787L123.901 15.2959V16.3682H124.639ZM124.639 34.6665V35.4046H125.377V34.6665H124.639ZM117.319 34.6665H116.581V35.4046H117.319V34.6665ZM110 104.2V103.462C93.7347 103.462 78.9782 106.754 68.2608 112.113C57.5873 117.45 50.7072 124.96 50.7072 133.478H51.4453H52.1834C52.1834 125.82 58.4049 118.691 68.921 113.433C79.393 108.197 93.914 104.938 110 104.938V104.2ZM51.4453 133.478H50.7072V148.116H51.4453H52.1834V133.478H51.4453ZM51.4453 148.116V148.855H168.555V148.116V147.378H51.4453V148.116ZM168.555 148.116H169.293V133.478H168.555H167.817V148.116H168.555ZM168.555 133.478H169.293C169.293 124.96 162.413 117.45 151.739 112.113C141.022 106.754 126.266 103.462 110 103.462V104.2V104.938C126.086 104.938 140.607 108.197 151.079 113.433C161.595 118.691 167.817 125.82 167.817 133.478H168.555ZM80.7227 60.2843H79.9846C79.9846 68.2449 83.147 75.8794 88.776 81.5084L89.2979 80.9865L89.8198 80.4646C84.4676 75.1125 81.4608 67.8534 81.4608 60.2843H80.7227ZM89.2979 80.9865L88.776 81.5084C94.4049 87.1374 102.04 90.2997 110 90.2997V89.5617V88.8236C102.431 88.8236 95.1719 85.8168 89.8198 80.4646L89.2979 80.9865ZM110 89.5617V90.2997C117.961 90.2997 125.595 87.1374 131.224 81.5084L130.702 80.9865L130.18 80.4646C124.828 85.8168 117.569 88.8236 110 88.8236V89.5617ZM130.702 80.9865L131.224 81.5084C136.853 75.8794 140.016 68.2449 140.016 60.2843H139.277H138.539C138.539 67.8534 135.533 75.1125 130.18 80.4646L130.702 80.9865ZM106.34 9.04883V8.31074C105.065 8.31074 103.954 8.76087 103.162 9.5645C102.371 10.3665 101.943 11.4744 101.943 12.7085H102.681H103.419C103.419 11.82 103.723 11.098 104.213 10.6009C104.701 10.1053 105.421 9.78691 106.34 9.78691V9.04883ZM102.681 12.7085H101.943V34.6665H102.681H103.419V12.7085H102.681ZM102.681 34.6665V33.9285H95.3614V34.6665V35.4046H102.681V34.6665ZM95.3614 34.6665H96.0995V16.3682H95.3614H94.6233V34.6665H95.3614ZM95.3614 16.3682C95.0979 15.6787 95.0974 15.6789 95.0969 15.6791C95.0967 15.6792 95.0961 15.6794 95.0956 15.6796C95.0946 15.68 95.0934 15.6805 95.0919 15.6811C95.0888 15.6822 95.0848 15.6838 95.0798 15.6857C95.0699 15.6897 95.056 15.6952 95.0383 15.7023C95.003 15.7165 94.9524 15.7373 94.8877 15.7648C94.7584 15.8197 94.5723 15.9018 94.3377 16.013C93.8684 16.2354 93.2043 16.5748 92.4102 17.0483C90.8229 17.9948 88.7108 19.4806 86.599 21.644C82.3641 25.9825 78.1548 33.0238 78.1548 43.8157H78.8929H79.631C79.631 33.4547 83.6559 26.7723 87.6553 22.6752C89.6606 20.6208 91.6657 19.2109 93.1662 18.3162C93.9161 17.869 94.5385 17.5514 94.9699 17.3469C95.1855 17.2447 95.3533 17.1709 95.4652 17.1233C95.5211 17.0995 95.5631 17.0823 95.59 17.0715C95.6035 17.066 95.6132 17.0622 95.6191 17.0599C95.622 17.0587 95.624 17.058 95.625 17.0576C95.6254 17.0574 95.6257 17.0573 95.6257 17.0573C95.6257 17.0573 95.6255 17.0574 95.6255 17.0574C95.6252 17.0575 95.6249 17.0576 95.3614 16.3682ZM78.8929 43.8157C78.7574 43.0902 78.7569 43.0903 78.7564 43.0904C78.7561 43.0904 78.7556 43.0905 78.7552 43.0906C78.7543 43.0908 78.7534 43.091 78.7524 43.0911C78.7503 43.0915 78.748 43.092 78.7452 43.0925C78.7398 43.0936 78.7331 43.095 78.7251 43.0967C78.709 43.1001 78.6878 43.1047 78.6617 43.1109C78.6096 43.1232 78.538 43.1414 78.4499 43.1672C78.2737 43.2187 78.0301 43.3006 77.7417 43.4256C77.1652 43.6753 76.4047 44.0997 75.6464 44.8023C74.1095 46.2265 72.6653 48.7168 72.6653 52.9649H73.4034H74.1414C74.1414 49.0886 75.442 47.0043 76.6498 45.885C77.2639 45.3159 77.8757 44.9763 78.3286 44.78C78.5548 44.682 78.7401 44.6203 78.8641 44.5841C78.9261 44.5659 78.9725 44.5543 79.0008 44.5476C79.0149 44.5442 79.0245 44.5422 79.0292 44.5412C79.0315 44.5407 79.0327 44.5405 79.0325 44.5405C79.0325 44.5405 79.0321 44.5406 79.0314 44.5407C79.031 44.5408 79.0306 44.5409 79.0301 44.541C79.0298 44.541 79.0294 44.5411 79.0293 44.5411C79.0288 44.5412 79.0283 44.5413 78.8929 43.8157ZM73.4034 52.9649V53.703H146.597V52.9649V52.2268H73.4034V52.9649ZM146.597 52.9649L147.334 52.9317C147.144 48.702 145.704 46.2283 144.226 44.8108C143.494 44.1095 142.77 43.6838 142.221 43.4319C141.947 43.306 141.716 43.2233 141.548 43.171C141.464 43.1448 141.396 43.1262 141.345 43.1136C141.32 43.1072 141.3 43.1024 141.284 43.0989C141.276 43.0971 141.27 43.0957 141.264 43.0945C141.262 43.094 141.259 43.0935 141.257 43.093C141.256 43.0928 141.255 43.0926 141.254 43.0925C141.254 43.0924 141.253 43.0923 141.253 43.0922C141.253 43.0921 141.252 43.092 141.107 43.8157C140.963 44.5395 140.962 44.5394 140.962 44.5393C140.961 44.5393 140.961 44.5392 140.961 44.5391C140.96 44.539 140.96 44.5389 140.959 44.5388C140.958 44.5386 140.958 44.5385 140.958 44.5385C140.957 44.5384 140.958 44.5385 140.96 44.539C140.964 44.5398 140.972 44.5417 140.984 44.5449C141.01 44.5512 141.052 44.5626 141.109 44.5803C141.222 44.6157 141.394 44.6765 141.606 44.7736C142.029 44.9678 142.609 45.3061 143.204 45.8765C144.379 47.0025 145.684 49.1034 145.86 52.9981L146.597 52.9649ZM141.107 43.8157H141.845C141.845 33.0238 137.636 25.9825 133.401 21.644C131.289 19.4806 129.177 17.9948 127.59 17.0483C126.796 16.5748 126.132 16.2354 125.663 16.013C125.428 15.9018 125.242 15.8197 125.112 15.7648C125.048 15.7373 124.997 15.7165 124.962 15.7023C124.944 15.6952 124.93 15.6897 124.92 15.6857C124.915 15.6838 124.911 15.6822 124.908 15.6811C124.907 15.6805 124.906 15.68 124.905 15.6796C124.904 15.6794 124.904 15.6792 124.903 15.6791C124.903 15.6789 124.902 15.6787 124.639 16.3682C124.375 17.0576 124.375 17.0575 124.375 17.0574C124.375 17.0574 124.375 17.0573 124.375 17.0573C124.375 17.0573 124.375 17.0574 124.375 17.0576C124.376 17.058 124.378 17.0587 124.381 17.0599C124.387 17.0622 124.397 17.066 124.41 17.0715C124.437 17.0823 124.479 17.0995 124.535 17.1233C124.647 17.1709 124.815 17.2447 125.03 17.3469C125.462 17.5514 126.084 17.869 126.834 18.3162C128.335 19.2109 130.34 20.6208 132.345 22.6752C136.344 26.7723 140.369 33.4547 140.369 43.8157H141.107ZM124.639 16.3682H123.901V34.6665H124.639H125.377V16.3682H124.639ZM124.639 34.6665V33.9285H117.319V34.6665V35.4046H124.639V34.6665ZM117.319 34.6665H118.058V12.7085H117.319H116.581V34.6665H117.319ZM117.319 12.7085H118.058C118.058 11.4848 117.654 10.3756 116.87 9.56829C116.082 8.75771 114.967 8.31074 113.66 8.31074V9.04883V9.78691C114.621 9.78691 115.336 10.1085 115.811 10.5971C116.289 11.089 116.581 11.8096 116.581 12.7085H117.319ZM113.66 9.04883V8.31074H106.34V9.04883V9.78691H113.66V9.04883Z" fill="white" stroke-width="2" stroke="white" mask="url(#path-1-inside-1_384_7)"/>
<rect x="18.5" y="159.5" width="183" height="176" stroke-width="2" stroke="white"/>
<rect x="69.1729" y="159.5" width="84.0854" height="69.7466" stroke-width="2" stroke="white"/>
<rect x="68.6729" y="159" width="10.4634" height="70.7466" fill="white"/>
</svg>
