<svg width="220" height="350" viewBox="0 0 220 350" fill="none" xmlns="http://www.w3.org/2000/svg">
<path d="M114.651 137.603V228.746H212.411V137.603H114.651ZM68.3296 221.554L113.151 194.661V171.688L68.3296 144.795V221.554Z" stroke="white" stroke-width="2"/>
<path d="M113.901 171.264L67.5794 143.471V222.879L113.901 195.086V171.264ZM213.161 136.853H113.901V229.496H213.161V136.853Z" stroke="white" stroke-width="2" stroke-linecap="square"/>
<path d="M137.894 127.989C146.053 116.363 150.842 102.199 150.842 86.917C150.842 47.3836 118.794 15.3354 79.2603 15.3354C39.7269 15.3354 7.67871 47.3836 7.67871 86.917C7.67871 116.712 25.8824 142.255 51.7747 153.032" stroke="white" stroke-width="1.5"/>
<path d="M132.472 249.394V341.301H7.67871V223.508H58.311" stroke="white" stroke-width="2"/>
<path d="M86.4062 263.011L114.982 301.063L115.717 302.041H24.4092L25.1748 301.055L47.3838 272.479L47.8516 271.877L48.3369 272.465L63.6934 291.05L85.4355 263.004L85.9258 262.372L86.4062 263.011Z" stroke="white" stroke-width="2"/>
<rect x="115.268" y="136.908" width="13.9521" height="92.5878" fill="white"/>
</svg>
