<svg width="220" height="350" viewBox="0 0 220 350" fill="none" xmlns="http://www.w3.org/2000/svg">
<path d="M204.846 77.2168L110 133.424L15.1528 77.2168L110 21.0088L204.846 77.2168Z" stroke="white" stroke-width="2"/>
<path d="M157.914 118.29L205.828 146.684L110 203.472L14.1724 146.684L62.0863 118.29" stroke="white" stroke-width="2"/>
<path d="M157.914 185.298L205.828 213.692L110 270.48L14.1724 213.692L62.0863 185.298" stroke="white" stroke-width="2"/>
<path d="M157.914 252.306L205.828 280.7L110 337.488L14.1724 280.7L62.0863 252.306" stroke="white" stroke-width="2"/>
<path d="M124.658 69.4956C127.501 71.0398 130.398 72.5613 133.251 74.0913L133.26 74.0962L133.268 74.1001C133.944 74.4309 134.187 74.886 134.2 75.2339C134.29 78.2273 134.377 81.2225 134.474 84.2173V84.2183C134.477 84.5978 134.291 85.0483 133.673 85.3774L133.666 85.3804L133.66 85.3843C127.618 88.8343 121.568 92.2782 115.522 95.7251C112.534 94.1354 109.47 92.5034 106.487 90.9019L123.322 81.3091L123.327 81.3062C123.957 80.9376 124.334 80.3583 124.263 79.7036C124.194 79.0769 123.731 78.5616 123.088 78.2437H123.089C120.711 76.9752 118.335 75.7053 115.953 74.438C118.861 72.7845 121.722 71.1246 124.658 69.4956ZM104.399 58.7075C107.434 60.3209 110.474 61.9258 113.472 63.5532C110.832 65.0439 108.203 66.5413 105.577 68.0405L96.915 72.979C96.2881 73.3022 95.8134 73.8252 95.7432 74.4565C95.6679 75.1341 96.0768 75.7146 96.7686 76.0669V76.0679C98.847 77.1834 100.942 78.2933 103.024 79.4058V79.4067C103.397 79.6096 103.774 79.8078 104.15 80.0073C101.268 81.6711 98.3123 83.3409 95.416 84.9956C94.0201 84.258 92.6313 83.5182 91.2432 82.7769L86.8301 80.4233L86.8232 80.4194L86.6895 80.3472C86.0482 79.9777 85.8035 79.5111 85.7949 79.1392V79.1333C85.6983 76.2792 85.6246 73.3415 85.5264 70.4819H85.5273C85.5218 70.1879 85.5612 69.9107 85.6797 69.6665C85.7942 69.4305 85.9981 69.1913 86.3809 68.9927L86.3906 68.9878L86.3994 68.9829C92.3857 65.5563 98.4166 62.1378 104.399 58.7075Z" stroke="white" stroke-width="2"/>
</svg>
