<svg xmlns="http://www.w3.org/2000/svg" width="138" height="230" viewBox="0 0 138 230">
  <defs>
    <style>
      .cls-1 {
        fill: none;
        stroke: #fff;
        stroke-width: 2px;
        fill-rule: evenodd;
      }
    </style>
  </defs>
  <path class="cls-1" d="M38.058,71.826s-2.21-12.8,10.849-13.036H73.62s12.155-.231,12.055,13.036H38.058Z"/>
  <path class="cls-1" d="M85.976,72.1a145.592,145.592,0,0,1-9.945,17.2s3.24,6.749-.6,10.263L62.469,111.489s-3.089,2.866-5.726.555l-9.343-8.6S44.764,100.9,48,97.9L60.962,86.249s6.1-3.929,11.151-.277L79.949,72.1"/>
  <path id="Shape_3_copy" data-name="Shape 3 copy" class="cls-1" d="M121.84,129.646S135.753,127.618,136,139.6V162.28s0.251,11.154-14.164,11.062v-43.7Z"/>
  <path class="cls-1" d="M15.989,71.826H106.84a15,15,0,0,1,15,15V214.092a15,15,0,0,1-15,15H15.989a15,15,0,0,1-15-15V86.826A15,15,0,0,1,15.989,71.826Z"/>
  <path class="cls-1" d="M29.921,71.826V19.681S29.846,2.207,49.51,1.93H74.825s18.007,0,18.384,17.751l0.3,52.145H29.921Z"/>
  <path id="Shape_2_copy" data-name="Shape 2 copy" class="cls-1" d="M30.03,72.1l0.3,156.711"/>
  <path id="Shape_2_copy_3" data-name="Shape 2 copy 3" class="cls-1" d="M93.7,72.1L94,228.814"/>
</svg>
