<svg xmlns="http://www.w3.org/2000/svg" width="50" height="50" viewBox="0 0 50 50">
  <defs>
    <style>
      .cls-1 {
        fill: none;
        stroke: #00eed5;
        stroke-width: 2px;
        fill-rule: evenodd;
      }
    </style>
  </defs>
  <path class="cls-1" d="M5.805,20.346l17.918,9.792a1.93,1.93,0,0,0,2.515,0l17.6-9.792s1.349-1.448,0-2.211L25.609,8.026a1.786,1.786,0,0,0-2.2,0l-17.6,9.792A1.547,1.547,0,0,0,5.805,20.346Z"/>
  <path class="cls-1" d="M8.634,22.241L6.12,23.5s-2.187,1.632,0,2.843l17.6,9.476s1.113,1.237,3.143,0l17.289-9.792s0.72-1.29-.314-1.9l-3.143-1.9"/>
  <path class="cls-1" d="M8.634,27.927L6.12,29.506s-1.873,1.4,0,2.527l17.6,9.792a2.143,2.143,0,0,0,2.829,0l17.6-9.792s1.585-1.211,0-2.211l-3.144-1.895"/>
</svg>
