<svg width="12" height="12" viewBox="0 0 12 12" fill="none" xmlns="http://www.w3.org/2000/svg">
<path d="M10.6 1.2L0.575 11.2C0.508333 11.2667 0.429167 11.2958 0.3375 11.2875C0.245833 11.2792 0.166667 11.2417 0.1 11.175C0.0333333 11.1083 0 11.0333 0 10.95C0 10.8667 0.0333333 10.7917 0.1 10.725L10.1 0.7H0.95C0.850833 0.7 0.767666 0.666334 0.7005 0.599001C0.6335 0.531834 0.6 0.448501 0.6 0.349001C0.6 0.249667 0.6335 0.166667 0.7005 0.1C0.767666 0.0333333 0.850833 0 0.95 0H10.55C10.7625 0 10.9407 0.0718332 11.0845 0.2155C11.2282 0.359333 11.3 0.5375 11.3 0.75V10.35C11.3 10.4492 11.2663 10.5323 11.199 10.5995C11.1318 10.6665 11.0485 10.7 10.949 10.7C10.8497 10.7 10.7667 10.6665 10.7 10.5995C10.6333 10.5323 10.6 10.4492 10.6 10.35V1.2Z" fill="#1F1F1F"/>
</svg>
