<svg width="18" height="18" viewBox="0 0 18 18" fill="none" xmlns="http://www.w3.org/2000/svg">
<path d="M8.98583 0C4.0252 0 0 4.0252 0 8.98583C0 13.9465 4.0252 18 8.98583 18C13.9465 18 18 13.9465 18 8.98583C18 4.0252 13.9465 0 8.98583 0ZM16.9795 9.43937C15.1087 9.29764 13.0961 9.46772 11.1402 9.97795C10.8283 9.12756 10.5165 8.30551 10.148 7.51181C12.189 6.85984 14.0882 5.86772 15.7039 4.64882C16.4976 5.89606 16.9795 7.37008 16.9795 8.98583C17.0079 9.15591 16.9795 9.29764 16.9795 9.43937ZM15.137 3.85512C13.578 5.04567 11.7354 5.9811 9.72283 6.63307C8.70236 4.53543 7.51181 2.74961 6.26457 1.44567C7.11496 1.13386 8.02205 0.96378 8.98583 0.96378C11.452 0.992126 13.663 2.09764 15.137 3.85512ZM5.30079 1.89921C6.51969 3.11811 7.71024 4.84724 8.75906 6.91654C6.17953 7.5685 3.54331 7.68189 1.19055 7.2C1.70079 4.87559 3.2315 2.94803 5.30079 1.89921ZM1.02047 8.16378C2.06929 8.36221 3.14646 8.47559 4.25197 8.47559C5.86772 8.47559 7.54016 8.24882 9.18425 7.79528C9.55276 8.56063 9.86457 9.38268 10.1764 10.2331C7.39843 11.0835 4.93228 12.4724 3.00472 14.2866C1.75748 12.8693 0.96378 10.9984 0.96378 8.95748C0.992126 8.70236 0.992126 8.44724 1.02047 8.16378ZM3.71339 14.9953C5.52756 13.2945 7.88032 11.9622 10.5165 11.1685C10.6299 11.537 10.7433 11.8772 10.8567 12.2457C11.2819 13.6913 11.5937 15.1087 11.7921 16.4693C10.9134 16.8095 9.97795 16.9795 8.98583 16.9795C6.97323 17.0079 5.13071 16.2425 3.71339 14.9953ZM12.7276 16.0724C12.5008 14.7402 12.2173 13.3795 11.7921 11.9906C11.6787 11.622 11.5654 11.2819 11.452 10.9417C13.2661 10.4882 15.1087 10.3465 16.8378 10.4598C16.4126 12.8693 14.8535 14.9386 12.7276 16.0724Z" fill="black"/>
</svg>
