<svg width="14" height="20" viewBox="0 0 14 20" fill="none" xmlns="http://www.w3.org/2000/svg">
<path d="M6.649 19.1C6.89671 19.1 7.13428 19.0016 7.30944 18.8265C7.4846 18.6513 7.583 18.4137 7.583 18.166V10.113H11.363C11.6053 10.115 11.8399 10.0278 12.022 9.86803C12.1075 9.79305 12.1763 9.70083 12.2236 9.59743C12.271 9.49403 12.296 9.38177 12.297 9.26803C12.297 9.04203 12.197 8.82703 12.022 8.66803C11.8399 8.50824 11.6053 8.42104 11.363 8.42303H7.583V5.02603C7.583 4.40903 7.856 3.81603 8.343 3.37603C8.85211 2.92935 9.50773 2.68553 10.185 2.69103H12.542C12.7844 2.69284 13.019 2.60526 13.201 2.44503C13.2865 2.37005 13.3553 2.27783 13.4026 2.17443C13.45 2.07103 13.475 1.95877 13.476 1.84503C13.476 1.61903 13.376 1.40403 13.2 1.24503C13.0182 1.08539 12.784 0.998189 12.542 1.00003H10.185C9.001 1.00003 7.865 1.42303 7.026 2.17803C6.188 2.93203 5.716 3.95703 5.716 5.02603V8.42303H1.934C1.69171 8.42104 1.45715 8.50824 1.275 8.66803C1.18947 8.74301 1.12075 8.83523 1.07336 8.93863C1.02596 9.04203 1.00096 9.15429 1 9.26803C1 9.49403 1.1 9.70903 1.275 9.86803C1.45715 10.0278 1.69171 10.115 1.934 10.113H5.714V18.166C5.714 18.682 6.133 19.1 6.649 19.1Z" fill="black" stroke="#212427" stroke-width="0.1"/>
</svg>
