<svg width="32" height="43" viewBox="0 0 32 43" fill="none" xmlns="http://www.w3.org/2000/svg">
<path d="M9.74757 0.932039L0.932039 9.70874C0.349515 10.3301 0 11.1456 0 12V21.3204H10.6796V19.1845V12.7767C10.6796 11.6117 11.6505 10.6408 12.8155 10.6408H22.4078H32V0H12C11.1456 0 10.3301 0.349515 9.74757 0.932039Z" fill="#0035F5"/>
<path d="M22.2524 41.7088L31.068 32.9321C31.6893 32.3107 32 31.534 32 30.6796V21.3593H21.3204V23.4952V29.9029C21.3204 31.068 20.3495 32.0389 19.1845 32.0389H9.59223H0V42.7185H20C20.8544 42.6408 21.6699 42.3301 22.2524 41.7088Z" fill="#0035F5"/>
</svg>
