<svg width="18" height="18" viewBox="0 0 18 18" fill="none" xmlns="http://www.w3.org/2000/svg">
<path d="M9 4.84615C8.17846 4.84615 7.37538 5.08977 6.69224 5.54621C6.00915 6.00263 5.47674 6.65138 5.16234 7.41037C4.84795 8.16942 4.76569 9.00462 4.92597 9.81037C5.08625 10.6161 5.48186 11.3562 6.06279 11.9372C6.64372 12.5181 7.38388 12.9138 8.18963 13.074C8.99538 13.2343 9.83058 13.1521 10.5896 12.8377C11.3486 12.5233 11.9973 11.9909 12.4538 11.3078C12.9102 10.6246 13.1538 9.82154 13.1538 9C13.1527 7.89868 12.7147 6.8428 11.9359 6.06405C11.1572 5.28531 10.1013 4.8473 9 4.84615ZM9 11.7692C8.45234 11.7692 7.91686 11.6069 7.46151 11.3025C7.0061 10.9983 6.65116 10.5657 6.44156 10.0598C6.23197 9.55375 6.17713 8.99695 6.28398 8.45972C6.39083 7.92258 6.65457 7.42911 7.04186 7.04186C7.42911 6.65457 7.92258 6.39083 8.45972 6.28398C8.99695 6.17713 9.55375 6.23197 10.0598 6.44156C10.5657 6.65116 10.9983 7.0061 11.3025 7.46151C11.6069 7.91686 11.7692 8.45234 11.7692 9C11.7692 9.7344 11.4774 10.4388 10.9581 10.9581C10.4388 11.4774 9.7344 11.7692 9 11.7692ZM13.1538 0H4.84615C3.5613 0.00137538 2.32946 0.512391 1.42092 1.42092C0.512391 2.32946 0.00137538 3.5613 0 4.84615V13.1538C0.00137538 14.4387 0.512391 15.6705 1.42092 16.5791C2.32946 17.4876 3.5613 17.9986 4.84615 18H13.1538C14.4387 17.9986 15.6705 17.4876 16.5791 16.5791C17.4876 15.6705 17.9986 14.4387 18 13.1538V4.84615C17.9986 3.5613 17.4876 2.32946 16.5791 1.42092C15.6705 0.512391 14.4387 0.00137538 13.1538 0ZM16.6154 13.1538C16.6154 14.0719 16.2507 14.9524 15.6015 15.6015C14.9524 16.2507 14.0719 16.6154 13.1538 16.6154H4.84615C3.9281 16.6154 3.04764 16.2507 2.39848 15.6015C1.74931 14.9524 1.38462 14.0719 1.38462 13.1538V4.84615C1.38462 3.9281 1.74931 3.04764 2.39848 2.39848C3.04764 1.74931 3.9281 1.38462 4.84615 1.38462H13.1538C14.0719 1.38462 14.9524 1.74931 15.6015 2.39848C16.2507 3.04764 16.6154 3.9281 16.6154 4.84615V13.1538ZM14.5385 4.5C14.5385 4.70538 14.4775 4.90616 14.3634 5.07694C14.2494 5.24771 14.0872 5.38082 13.8974 5.45941C13.7077 5.53801 13.4989 5.55858 13.2974 5.5185C13.096 5.47844 12.9109 5.37954 12.7657 5.23431C12.6205 5.08907 12.5215 4.90404 12.4815 4.7026C12.4414 4.50115 12.462 4.29235 12.5406 4.1026C12.6192 3.91284 12.7523 3.75066 12.9231 3.63655C13.0938 3.52244 13.2946 3.46154 13.5 3.46154C13.7754 3.46154 14.0395 3.57095 14.2343 3.76569C14.4291 3.96044 14.5385 4.22458 14.5385 4.5Z" fill="black"/>
</svg>
