<svg width="18" height="18" viewBox="0 0 18 18" fill="none" xmlns="http://www.w3.org/2000/svg">
<path d="M16.6154 0H1.38462C1.0174 0 0.665206 0.145883 0.405545 0.405545C0.145883 0.665206 0 1.0174 0 1.38462V16.6154C0 16.9826 0.145883 17.3348 0.405545 17.5945C0.665206 17.8542 1.0174 18 1.38462 18H16.6154C16.9826 18 17.3348 17.8542 17.5945 17.5945C17.8542 17.3348 18 16.9826 18 16.6154V1.38462C18 1.0174 17.8542 0.665206 17.5945 0.405545C17.3348 0.145883 16.9826 0 16.6154 0ZM16.6154 16.6154H1.38462V1.38462H16.6154V16.6154ZM6.23077 7.61538V13.1538C6.23077 13.3374 6.15783 13.5136 6.028 13.6434C5.89817 13.7732 5.72207 13.8462 5.53846 13.8462C5.35485 13.8462 5.17876 13.7732 5.04893 13.6434C4.9191 13.5136 4.84615 13.3374 4.84615 13.1538V7.61538C4.84615 7.43178 4.9191 7.25566 5.04893 7.12585C5.17876 6.99602 5.35485 6.92308 5.53846 6.92308C5.72207 6.92308 5.89817 6.99602 6.028 7.12585C6.15783 7.25566 6.23077 7.43178 6.23077 7.61538ZM13.8462 10.0385V13.1538C13.8462 13.3374 13.7732 13.5136 13.6434 13.6434C13.5136 13.7732 13.3374 13.8462 13.1538 13.8462C12.9702 13.8462 12.7941 13.7732 12.6643 13.6434C12.5345 13.5136 12.4615 13.3374 12.4615 13.1538V10.0385C12.4615 9.57942 12.2792 9.1392 11.9546 8.81465C11.63 8.49 11.1898 8.30769 10.7308 8.30769C10.2717 8.30769 9.83151 8.49 9.50695 8.81465C9.18231 9.1392 9 9.57942 9 10.0385V13.1538C9 13.3374 8.92708 13.5136 8.7972 13.6434C8.66742 13.7732 8.49129 13.8462 8.30769 13.8462C8.12409 13.8462 7.94797 13.7732 7.81818 13.6434C7.68831 13.5136 7.61538 13.3374 7.61538 13.1538V7.61538C7.61622 7.44582 7.67935 7.28243 7.79262 7.15625C7.90597 7.03012 8.0616 6.94994 8.23015 6.93094C8.39862 6.91194 8.56828 6.95546 8.70683 7.05323C8.84538 7.15099 8.94323 7.29618 8.98182 7.46132C9.45018 7.14364 9.99618 6.95951 10.5613 6.92872C11.1264 6.89793 11.6892 7.02165 12.1892 7.28658C12.6894 7.55151 13.1078 7.94769 13.3998 8.43249C13.6916 8.91738 13.846 9.47252 13.8462 10.0385ZM6.57692 5.19231C6.57692 5.39769 6.51602 5.59847 6.40191 5.76925C6.28781 5.94002 6.12562 6.07313 5.93586 6.15172C5.74611 6.23032 5.53731 6.25088 5.33587 6.21081C5.13442 6.17075 4.94939 6.07184 4.80415 5.92662C4.65893 5.78138 4.56002 5.59635 4.51996 5.3949C4.47989 5.19346 4.50045 4.98466 4.57905 4.7949C4.65764 4.60515 4.79075 4.44296 4.96152 4.32886C5.1323 4.21475 5.33308 4.15385 5.53846 4.15385C5.81388 4.15385 6.07802 4.26326 6.27277 4.458C6.46751 4.65275 6.57692 4.91689 6.57692 5.19231Z" fill="black"/>
</svg>
