<svg xmlns="http://www.w3.org/2000/svg" xmlns:xlink="http://www.w3.org/1999/xlink" width="198" zoomAndPan="magnify" viewBox="0 0 149.04 53.039997" height="60" preserveAspectRatio="xMidYMid meet" version="1.0"><defs><g/><clipPath id="617dcf1f4f"><path d="M 28 8 L 123 8 L 123 44.199219 L 28 44.199219 Z M 28 8 " clip-rule="nonzero"/></clipPath><clipPath id="ee5ba4d6da"><path d="M 0.433594 1 L 15 1 L 15 30 L 0.433594 30 Z M 0.433594 1 " clip-rule="nonzero"/></clipPath><clipPath id="29cf97f376"><path d="M 57 0.25 L 75 0.25 L 75 31 L 57 31 Z M 57 0.25 " clip-rule="nonzero"/></clipPath><clipPath id="e11320f4b4"><rect x="0" width="95" y="0" height="37"/></clipPath><clipPath id="fdb0d3e185"><path d="M 115.746094 2.851562 L 120.90625 2.851562 L 120.90625 8 L 115.746094 8 Z M 115.746094 2.851562 " clip-rule="nonzero"/></clipPath></defs><g clip-path="url(#617dcf1f4f)"><g transform="matrix(1, 0, 0, 1, 28, 8)"><g clip-path="url(#e11320f4b4)"><g clip-path="url(#ee5ba4d6da)"><g fill="#ffffff" fill-opacity="1"><g transform="translate(0.549001, 29.860471)"><g><path d="M 13.53125 -23.578125 L 7.90625 -5.546875 L 13.890625 -5.546875 L 13.890625 0 L 0.234375 0 L 0.234375 -4.5 L 6.34375 -23.125 L 0.921875 -23.125 L 0.921875 -28.671875 L 13.53125 -28.671875 Z M 13.53125 -23.578125 "/></g></g></g></g><g fill="#ffffff" fill-opacity="1"><g transform="translate(14.685915, 29.860471)"><g><path d="M 8.265625 -18.265625 L 11.078125 -18.265625 L 11.078125 -28.671875 L 18.46875 -28.671875 L 18.46875 0 L 11.078125 0 L 11.078125 -12 L 8.265625 -12 L 8.265625 0 L 0.890625 0 L 0.890625 -28.671875 L 8.265625 -28.671875 Z M 8.265625 -18.265625 "/></g></g></g><g fill="#ffffff" fill-opacity="1"><g transform="translate(34.043845, 29.860471)"><g><path d="M 8.15625 0 L 0.765625 0 L 0.765625 -28.671875 L 8.15625 -28.671875 Z M 8.15625 0 "/></g></g></g><g fill="#ffffff" fill-opacity="1"><g transform="translate(42.959739, 29.860471)"><g><path d="M 8.265625 -5.546875 L 13.171875 -5.546875 L 13.171875 0 L 0.890625 0 L 0.890625 -28.671875 L 8.265625 -28.671875 Z M 8.265625 -5.546875 "/></g></g></g><g clip-path="url(#29cf97f376)"><g fill="#ffffff" fill-opacity="1"><g transform="translate(56.333581, 29.860471)"><g><path d="M 9.671875 -29.28125 C 12.535156 -29.28125 14.71875 -28.59375 16.21875 -27.21875 C 17.71875 -25.851562 18.46875 -23.644531 18.46875 -20.59375 L 18.46875 -8.078125 C 18.46875 -5.046875 17.722656 -2.835938 16.234375 -1.453125 C 14.753906 -0.078125 12.566406 0.609375 9.671875 0.609375 C 6.785156 0.609375 4.597656 -0.0664062 3.109375 -1.421875 C 1.628906 -2.773438 0.890625 -4.992188 0.890625 -8.078125 L 0.890625 -20.59375 C 0.890625 -23.625 1.628906 -25.828125 3.109375 -27.203125 C 4.597656 -28.585938 6.785156 -29.28125 9.671875 -29.28125 Z M 8.265625 -22.6875 L 8.265625 -5.984375 C 8.265625 -5.421875 8.382812 -4.984375 8.625 -4.671875 C 8.875 -4.367188 9.222656 -4.21875 9.671875 -4.21875 C 10.128906 -4.21875 10.476562 -4.367188 10.71875 -4.671875 C 10.957031 -4.984375 11.078125 -5.421875 11.078125 -5.984375 L 11.078125 -22.6875 C 11.078125 -23.25 10.957031 -23.679688 10.71875 -23.984375 C 10.476562 -24.296875 10.128906 -24.453125 9.671875 -24.453125 C 8.734375 -24.453125 8.265625 -23.863281 8.265625 -22.6875 Z M 8.265625 -22.6875 "/></g></g></g></g><g fill="#ffffff" fill-opacity="1"><g transform="translate(75.691508, 29.860471)"><g><path d="M 11.359375 -14.421875 L 11.4375 -14.421875 L 11.4375 -28.671875 L 17.703125 -28.671875 L 17.703125 0 L 11.4375 0 L 7.265625 -16.015625 L 7.140625 -16.015625 L 7.140625 0 L 0.890625 0 L 0.890625 -28.671875 L 7.140625 -28.671875 Z M 11.359375 -14.421875 "/></g></g></g></g></g></g><path fill="#ffffff" d="M 118.28125 5.351562 C 118.570312 5.351562 118.757812 5.195312 118.757812 4.910156 C 118.757812 4.625 118.570312 4.484375 118.277344 4.484375 L 117.820312 4.484375 L 117.820312 5.351562 Z M 117.414062 4.113281 L 118.300781 4.113281 C 118.832031 4.113281 119.167969 4.398438 119.167969 4.902344 C 119.167969 5.285156 118.957031 5.523438 118.65625 5.632812 L 119.238281 6.589844 L 118.761719 6.589844 L 118.238281 5.714844 C 118.238281 5.710938 118.109375 5.714844 118.105469 5.714844 L 117.820312 5.714844 L 117.820312 6.589844 L 117.414062 6.589844 L 117.414062 4.113281 " fill-opacity="1" fill-rule="nonzero"/><g clip-path="url(#fdb0d3e185)"><path fill="#ffffff" d="M 118.246094 3.28125 C 117.964844 3.28125 117.695312 3.335938 117.441406 3.445312 C 117.195312 3.546875 116.972656 3.699219 116.78125 3.886719 C 116.59375 4.078125 116.441406 4.300781 116.339844 4.546875 C 116.230469 4.800781 116.175781 5.070312 116.175781 5.351562 C 116.175781 5.628906 116.230469 5.902344 116.339844 6.15625 C 116.441406 6.402344 116.59375 6.625 116.78125 6.8125 C 116.972656 7.003906 117.195312 7.152344 117.441406 7.257812 C 117.695312 7.363281 117.964844 7.417969 118.246094 7.417969 C 118.523438 7.417969 118.796875 7.363281 119.050781 7.257812 C 119.296875 7.152344 119.519531 7.003906 119.707031 6.8125 C 119.898438 6.625 120.046875 6.402344 120.152344 6.15625 C 120.257812 5.902344 120.3125 5.628906 120.3125 5.351562 C 120.3125 5.070312 120.257812 4.800781 120.152344 4.546875 C 120.046875 4.300781 119.898438 4.078125 119.707031 3.886719 C 119.519531 3.699219 119.296875 3.546875 119.050781 3.445312 C 118.796875 3.335938 118.523438 3.28125 118.246094 3.28125 Z M 118.246094 7.847656 C 117.910156 7.847656 117.582031 7.78125 117.273438 7.652344 C 116.976562 7.527344 116.707031 7.347656 116.480469 7.117188 C 116.25 6.886719 116.070312 6.621094 115.945312 6.324219 C 115.8125 6.015625 115.746094 5.6875 115.746094 5.351562 C 115.746094 5.011719 115.8125 4.6875 115.945312 4.378906 C 116.070312 4.082031 116.25 3.8125 116.480469 3.585938 C 116.707031 3.355469 116.976562 3.175781 117.273438 3.050781 C 117.582031 2.917969 117.910156 2.851562 118.246094 2.851562 C 118.582031 2.851562 118.910156 2.917969 119.21875 3.050781 C 119.515625 3.175781 119.78125 3.355469 120.011719 3.585938 C 120.242188 3.8125 120.421875 4.082031 120.546875 4.378906 C 120.675781 4.6875 120.742188 5.011719 120.742188 5.351562 C 120.742188 5.6875 120.675781 6.015625 120.546875 6.324219 C 120.421875 6.621094 120.242188 6.886719 120.011719 7.117188 C 119.78125 7.347656 119.515625 7.527344 119.21875 7.652344 C 118.910156 7.78125 118.582031 7.847656 118.246094 7.847656 " fill-opacity="1" fill-rule="nonzero"/></g></svg>