<svg width="18" height="18" viewBox="0 0 18 18" fill="none" xmlns="http://www.w3.org/2000/svg">
<path fill-rule="evenodd" clip-rule="evenodd" d="M0.0803566 0.448154C0.213791 0.173991 0.491976 0 0.796879 0H4.3411C4.58593 0 4.81717 0.112547 4.96823 0.305232L9.71117 6.35509L14.8679 0.282029C15.1528 -0.0534468 15.6557 -0.0944812 15.9911 0.190388C16.3266 0.475248 16.3676 0.978123 16.0828 1.3136L10.7149 7.63537L17.8303 16.7115C18.0184 16.9515 18.0531 17.2777 17.9196 17.5519C17.7862 17.826 17.5081 18 17.2031 18H13.6594C13.4146 18 13.1833 17.8875 13.0323 17.6948L7.79061 11.0091L1.90388 17.7274C1.61385 18.0584 1.11038 18.0916 0.779376 17.8015C0.448363 17.5116 0.415157 17.008 0.705191 16.6771L6.79 9.73274L0.169757 1.28854C-0.0183622 1.04859 -0.0530685 0.722317 0.0803566 0.448154ZM8.47705 9.3014C8.46176 9.27974 8.44526 9.25865 8.42755 9.2384L2.43422 1.59375H3.95326L8.96698 7.98908C9.01227 8.07777 9.07498 8.15943 9.15476 8.22862L15.5659 16.4062H14.0472L8.47705 9.3014Z" fill="black"/>
</svg>
