<svg width="21" height="18" viewBox="0 0 21 18" fill="none" xmlns="http://www.w3.org/2000/svg">
<path d="M9.13957 18C6.687 18 5.24992 13.1087 4.16734 8.32388C4.08513 7.96149 4.02067 7.67539 3.97398 7.49583C3.56949 5.93379 3.22419 5.93379 3.03872 5.93379C3.01768 5.93379 2.99597 5.93379 2.97427 5.93511C2.79406 5.95221 2.20673 6.33039 1.74239 6.73093C1.63782 6.82103 1.50101 6.86378 1.36421 6.84997C1.22741 6.83616 1.10179 6.76578 1.0176 6.65792L0.105369 5.47866C-0.0537945 5.27477 -0.0301171 4.9821 0.159301 4.80583C0.171798 4.79334 1.41683 3.63118 4.01936 1.39499C4.86253 0.671514 5.69124 0.305832 6.48508 0.305832C8.15236 0.305832 9.13234 1.90865 9.29479 3.04582C9.40923 3.84953 9.69796 5.65164 10.0564 7.32746C10.6135 9.9267 11.0035 10.6633 11.1495 10.8606C11.8756 10.5403 13.4626 8.19892 13.7836 6.40734C13.8803 5.86079 13.7994 5.59902 13.7218 5.55759C13.4469 5.40829 13.1733 5.33331 12.9089 5.33331C12.3472 5.33331 11.9723 5.67531 11.9683 5.6786C11.8118 5.82987 11.5777 5.86276 11.3856 5.76082C11.1936 5.65953 11.0897 5.4438 11.1265 5.22873C11.1357 5.18006 11.3442 4.00672 12.1038 2.78077C13.1292 1.12862 14.6649 0.172318 16.5446 0.0197312C16.7064 0.00657716 16.8669 0 17.0202 0C18.6296 0 19.4366 0.73268 19.8292 1.34632C20.8092 2.87942 20.4961 5.48787 18.9242 8.89148C16.565 13.9985 12.2663 18 9.13957 18ZM3.03807 4.92948C4.18839 4.92948 4.63497 6.041 4.94606 7.24393C4.9967 7.4373 5.06313 7.73195 5.14732 8.10355C5.45315 9.45513 5.96484 11.7176 6.70081 13.6749C7.78668 16.5642 8.69496 16.9963 9.13957 16.9963C11.5126 16.9963 15.5798 13.7361 18.014 8.46989C19.3938 5.48261 19.7477 3.08397 18.9841 1.88892C18.6092 1.30291 17.9488 1.00563 17.0215 1.00563C16.8959 1.00563 16.763 1.01155 16.6275 1.02141C15.0668 1.14901 13.8382 1.91128 12.9759 3.28391C12.7359 3.66603 12.5577 4.04619 12.4287 4.37635C12.5767 4.3461 12.7372 4.329 12.9089 4.329C13.3423 4.329 13.7764 4.44475 14.1999 4.67429C14.5801 4.87884 14.9879 5.37672 14.7721 6.5836C14.6057 7.51359 14.0769 8.76191 13.3929 9.84252C12.8431 10.7094 12.0124 11.7689 11.1798 11.888C11.1462 11.8932 11.1114 11.8959 11.0785 11.8959C10.4385 11.8959 9.89264 11.2243 9.1501 7.88388C8.65287 5.64703 8.31481 3.2872 8.30034 3.18723C8.19182 2.43021 7.54004 1.30949 6.48443 1.30949C5.93788 1.30949 5.32884 1.59493 4.67311 2.15726C2.85654 3.71733 1.70753 4.74927 1.18137 5.22873L1.49773 5.63783C1.90024 5.33397 2.47244 4.96434 2.9006 4.93277C2.94796 4.9308 2.994 4.92948 3.03807 4.92948Z" fill="black"/>
</svg>
