<svg width="23" height="18" viewBox="0 0 23 18" fill="none" xmlns="http://www.w3.org/2000/svg">
<path d="M15.2417 8.31888L10.313 5.04614C10.1893 4.96391 10.0455 4.9167 9.89686 4.90953C9.74836 4.90235 9.60059 4.9355 9.46944 5.00543C9.33829 5.07537 9.2287 5.17945 9.15231 5.30658C9.07593 5.43371 9.03562 5.57912 9.03573 5.72727V12.2727C9.03562 12.4209 9.07593 12.5663 9.15231 12.6934C9.2287 12.8205 9.33829 12.9246 9.46944 12.9946C9.60059 13.0645 9.74836 13.0976 9.89686 13.0905C10.0455 13.0833 10.1893 13.0361 10.313 12.9538L15.2417 9.68112C15.3543 9.60645 15.4467 9.50524 15.5106 9.38633C15.5745 9.26753 15.608 9.13485 15.608 9C15.608 8.86516 15.5745 8.73247 15.5106 8.61367C15.4467 8.49477 15.3543 8.39356 15.2417 8.31888ZM10.6786 10.7437V7.26141L13.3051 9L10.6786 10.7437ZM22.4178 3.0191C22.3211 2.64206 22.1358 2.29335 21.877 2.00172C21.6183 1.7101 21.2937 1.4839 20.93 1.34183C17.4102 -0.0122668 11.8081 3.88841e-06 11.5001 3.88841e-06C11.192 3.88841e-06 5.58983 -0.0122668 2.07 1.34183C1.70628 1.4839 1.38168 1.7101 1.12299 2.00172C0.864301 2.29335 0.678939 2.64206 0.58219 3.0191C0.31625 4.03978 0 5.90524 0 9C0 12.0948 0.31625 13.9602 0.58219 14.9809C0.678795 15.3581 0.864094 15.707 1.12278 15.9989C1.38149 16.2907 1.70616 16.517 2.07 16.6592C5.44198 17.9549 10.7197 18 11.4322 18H11.5678C12.2803 18 17.5611 17.9549 20.93 16.6592C21.2939 16.517 21.6185 16.2907 21.8772 15.9989C22.136 15.707 22.3212 15.3581 22.4178 14.9809C22.6838 13.9582 23 12.0948 23 9C23 5.90524 22.6838 4.03978 22.4178 3.0191ZM20.8273 14.5759C20.796 14.7014 20.7354 14.8177 20.6502 14.9153C20.5651 15.0129 20.4579 15.089 20.3376 15.1374C17.0877 16.3872 11.5606 16.3647 11.5072 16.3647H11.5001C11.4446 16.3647 5.92148 16.3851 2.66965 15.1374C2.54927 15.089 2.44213 15.0129 2.35699 14.9153C2.27186 14.8177 2.21116 14.7014 2.17987 14.5759C1.93036 13.6421 1.64286 11.922 1.64286 9C1.64286 6.07808 1.93036 4.35784 2.17268 3.42921C2.2034 3.30298 2.26383 3.18586 2.349 3.08751C2.43416 2.98917 2.54161 2.91242 2.66246 2.86364C5.79622 1.65784 11.0472 1.63637 11.4774 1.63637H11.5051C11.5606 1.63637 17.0888 1.61796 20.3355 2.86364C20.4559 2.91203 20.563 2.98815 20.6481 3.08574C20.7333 3.18334 20.794 3.29964 20.8253 3.42512C21.0697 4.35784 21.3572 6.07808 21.3572 9C21.3572 11.922 21.0697 13.6421 20.8273 14.5708V14.5759Z" fill="black"/>
</svg>
