<svg version="1.2" xmlns="http://www.w3.org/2000/svg" viewBox="0 0 406 252" width="406" height="252">
	<title>New Project</title>
	<style>
		.s0 { fill: #0035f5 } 
		.s1 { fill: #0329b2 } 
		.s2 { fill: #58dcc2 } 
		.s3 { fill: #37ac95 } 
		.s4 { fill: #ffffff } 
		.s5 { fill: none;stroke: #37ac95;stroke-miterlimit:100;stroke-width: 2 } 
	</style>
	<g id="Folder 1">
		<path id="Ellipse 1 copy" fill-rule="evenodd" class="s0" d="m203.92 32.36c103.17 0 186.81 28.54 186.81 63.75 0 35.2-83.64 63.74-186.81 63.74-103.18 0-186.82-28.54-186.82-63.74 0-35.21 83.64-63.75 186.82-63.75z"/>
		<path id="Shape 10" fill-rule="evenodd" class="s1" d="m16.79 97.64c-0.3 28.61-0.44 55.42-0.51 81.41 0-0.03-4.66 13.92 17.51 27.19 22.15 13.24 173.73 71 334.28 3.77 0-0.05 22.28-9.25 22.53-32.6 0.02-24.22 0.05-49.53 0.12-77.14-0.07 1.2-49.67 59.53-181.43 57.91 0.14 0.18-173.64-0.43-192.5-60.54z"/>
		<path id="Shape 1" fill-rule="evenodd" class="s2" d="m114.3 95.48l185.55-1.27c0 0 40.18-3.36 40.39-25.24 0 0 2.74-26.09-60.59-26.51 0 0-3.57-15.57-59.32-15.15 0 0-10.31-17.67-61.85-17.67 0 0-55.75 3.79-42.92 36.61 0 0-45.65 3.36-45.44 25.24 0 0 1.68 24.41 44.18 23.99z"/>
		<path id="Shape 2" fill-rule="evenodd" class="s3" d="m70.12 71.49v30.3c0 0 1.2 20.82 35.18 20.19h198.51c0 0 37.01-0.31 36.43-22.72v-26.51c0 0-11.04 18.62-38.95 20.2l-195.99 1.26c0 0-34.24-2.84-35.18-22.72z"/>
		<path id="Shape 3" fill-rule="evenodd" class="s4" d="m177.41 50.03v15.15c0 0 1.53 13.25 29.03 17.67 0 0 16.99 0 27.77-16.41v-15.14c0 0-16.14-6-27.77-6.32 0 0-20.82 0.95-29.03 5.05z"/>
		<path id="Shape 4" fill-rule="evenodd" class="s5" d="m197.61 58.87l7.57 5.05 10.1-7.57"/>
	</g>
</svg>