<svg width="95" height="95" viewBox="0 0 95 95" fill="none" xmlns="http://www.w3.org/2000/svg">
<path d="M12.9915 55.1252C15.9847 54.9673 18.2831 52.4129 18.1252 49.4197C17.9673 46.4265 15.4129 44.128 12.4197 44.2859C9.42647 44.4438 7.12801 46.9983 7.28592 49.9915C7.44383 52.9847 9.9983 55.2831 12.9915 55.1252Z" fill="#0035F5"/>
<circle cx="69.4102" cy="47.5" r="24.5" stroke="#757575" stroke-width="1.59783" stroke-dasharray="7 7"/>
<path d="M66.3641 56.0109L72.7941 50.5053L66.3529 45.0085" stroke="black" stroke-width="1.5" stroke-linecap="round" stroke-linejoin="round"/>
<path d="M15 50.0872L72.5 50.5" stroke="black" stroke-width="1.5" stroke-linecap="round" stroke-linejoin="round"/>
<path d="M39.1515 28.8587C43.5704 28.8588 47.6484 30.3184 50.9298 32.7816C50.4167 33.0553 49.9188 33.3536 49.4376 33.6751C46.5197 31.6464 42.9747 30.4564 39.1515 30.4564C29.1869 30.4564 21.1085 38.5348 21.1085 48.4993C21.1087 58.4638 29.187 66.5413 39.1515 66.5413C43.1035 66.5412 46.7574 65.2687 49.7296 63.1136C50.2173 63.4257 50.7214 63.7142 51.2404 63.9778C47.9073 66.5847 43.711 68.1389 39.1515 68.139C28.3046 68.1389 19.511 59.3462 19.5109 48.4993C19.5109 37.6523 28.3045 28.8587 39.1515 28.8587Z" fill="black"/>
<path d="M19.0781 33.6522C21.6387 33.6522 24.0593 34.2522 26.208 35.3172C25.4302 35.5139 24.678 35.7749 23.957 36.0936C22.4326 35.548 20.7901 35.2499 19.0781 35.2498C11.0813 35.25 4.5978 41.7335 4.59766 49.7303C4.59791 57.727 11.0814 64.2096 19.0781 64.2098C21.3622 64.2097 23.5221 63.6791 25.4434 62.7371C26.1945 62.9727 26.9725 63.1468 27.7715 63.2557C25.265 64.87 22.2811 65.8073 19.0781 65.8074C10.1989 65.8073 3.00026 58.6095 3 49.7303C3.00014 40.851 10.1989 33.6523 19.0781 33.6522Z" fill="black"/>
</svg>
