<svg width="95" height="95" viewBox="0 0 95 95" fill="none" xmlns="http://www.w3.org/2000/svg">
<path d="M24.1035 51.4922C35.3596 51.4925 44.4561 60.415 44.4561 71.3868C44.4559 82.3584 35.3596 91.2811 24.1035 91.2813C12.8473 91.2813 3.75011 82.3586 3.75 71.3868C3.75 60.4149 12.8472 51.4922 24.1035 51.4922Z" stroke="black" stroke-width="1.5"/>
<circle cx="47.0412" cy="48.9072" r="20.4149" stroke="#757575" stroke-width="1.37629" stroke-dasharray="7 7"/>
<path d="M71.3558 4.69843C82.3276 4.69854 91.2504 13.7957 91.2504 25.0519C91.2501 36.308 82.3275 45.4044 71.3558 45.4045C60.3841 45.4045 51.4615 36.3081 51.4613 25.0519C51.4613 13.7956 60.384 4.69843 71.3558 4.69843Z" stroke="black" stroke-width="1.5"/>
<path d="M46.9915 54.1252C49.9847 53.9673 52.2831 51.4129 52.1252 48.4197C51.9673 45.4265 49.4129 43.128 46.4197 43.2859C43.4265 43.4438 41.128 45.9983 41.2859 48.9915C41.4438 51.9847 43.9983 54.2831 46.9915 54.1252Z" fill="#0035F5"/>
</svg>
