<svg width="95" height="95" viewBox="0 0 95 95" fill="none" xmlns="http://www.w3.org/2000/svg">
<path d="M47.5 5C70.9721 5 90 24.0279 90 47.5C90 70.9721 70.9721 90 47.5 90C37.3115 90 27.9617 86.4131 20.6406 80.4355C21.2332 80.247 21.8048 80.0124 22.3535 79.7383C29.2892 85.1559 38.017 88.3857 47.5 88.3857C70.0808 88.3857 88.3857 70.0808 88.3857 47.5C88.3857 24.9192 70.0808 6.61426 47.5 6.61426C24.9192 6.61426 6.61426 24.9192 6.61426 47.5C6.61426 51.992 7.34036 56.3143 8.67871 60.3574C8.234 60.7857 7.82186 61.2472 7.44727 61.7393C5.8645 57.2874 5 52.4949 5 47.5C5 24.0279 24.0279 5 47.5 5Z" fill="black"/>
<path d="M19 80.5L89.5 10" stroke="#757575" stroke-width="1.5" stroke-dasharray="7 7"/>
<path d="M9.5 9.99998L44.5 44.5" stroke="black" stroke-width="1.5"/>
<path d="M58.9915 65.1252C61.9847 64.9673 64.2831 62.4129 64.1252 59.4197C63.9673 56.4265 61.4129 54.128 58.4197 54.2859C55.4265 54.4438 53.128 56.9983 53.2859 59.9915C53.4438 62.9847 55.9983 65.2831 58.9915 65.1252Z" fill="#0035F5"/>
</svg>
