<svg width="95" height="95" viewBox="0 0 95 95" fill="none" xmlns="http://www.w3.org/2000/svg">
<path d="M30.1152 24.1943C32.2133 24.4591 34.226 24.9899 36.1182 25.749L35.8018 26.54C37.6778 27.2928 39.4302 28.2797 41.0215 29.4629L41.5293 28.7793C43.1993 30.0211 44.6986 31.4708 45.9854 33.0908L45.3184 33.6221C46.5574 35.1823 47.5917 36.9044 48.3828 38.75L49.166 38.4141C49.972 40.2943 50.5344 42.2984 50.8164 44.3896L49.9727 44.5029C50.1044 45.4801 50.1729 46.478 50.1729 47.4912C50.1728 48.5043 50.1044 49.5014 49.9727 50.4785L50.8164 50.5918C50.5345 52.683 49.972 54.6871 49.166 56.5674L48.3828 56.2314C47.5917 58.0771 46.5575 59.8 45.3184 61.3604L45.9854 61.8896C44.6985 63.51 43.1995 64.9602 41.5293 66.2021L41.0215 65.5195C39.4303 66.7027 37.6776 67.6887 35.8018 68.4414L36.1182 69.2314C34.2259 69.9907 32.2134 70.5214 30.1152 70.7861L30.0088 69.9404C29.0284 70.0642 28.0283 70.1289 27.0127 70.1289C25.9971 70.1289 24.9969 70.0642 24.0166 69.9404L23.9102 70.7861C21.8117 70.5213 19.7987 69.9909 17.9062 69.2314L18.2246 68.4414C16.3486 67.6887 14.5951 66.7028 13.0039 65.5195L12.4951 66.2021C10.8252 64.9603 9.32665 63.5097 8.04004 61.8896L8.70703 61.3604C7.46787 59.8001 6.43369 58.0771 5.64258 56.2314L4.8584 56.5674C4.05256 54.6872 3.48989 52.6829 3.20801 50.5918L4.05371 50.4785C3.9549 49.7457 3.89153 49.0017 3.86621 48.248L3.85352 47.4912C3.85352 46.478 3.92195 45.4801 4.05371 44.5029L3.20801 44.3896C3.48994 42.2986 4.05253 40.2942 4.8584 38.4141L5.64258 38.75C6.4337 36.9043 7.46885 35.1824 8.70801 33.6221L8.04004 33.0918C9.32666 31.4717 10.8252 30.0211 12.4951 28.7793L13.0039 29.4629C14.5951 28.2797 16.3486 27.2928 18.2246 26.54L17.9062 25.749C19.7986 24.9897 21.8118 24.4592 23.9102 24.1943L24.0166 25.041C24.9969 24.9173 25.9971 24.8535 27.0127 24.8535C28.0283 24.8535 29.0285 24.9173 30.0088 25.041L30.1152 24.1943Z" stroke="#757575" stroke-width="1.70683" stroke-dasharray="7 7"/>
<path d="M68.1152 24.1943C70.2133 24.4591 72.226 24.9899 74.1182 25.749L73.8018 26.54C75.6778 27.2928 77.4302 28.2797 79.0215 29.4629L79.5293 28.7793C81.1993 30.0211 82.6986 31.4708 83.9854 33.0908L83.3184 33.6221C84.5574 35.1823 85.5917 36.9044 86.3828 38.75L87.166 38.4141C87.972 40.2943 88.5344 42.2984 88.8164 44.3896L87.9727 44.5029C88.1044 45.4801 88.1729 46.478 88.1729 47.4912C88.1728 48.5043 88.1044 49.5014 87.9727 50.4785L88.8164 50.5918C88.5345 52.683 87.972 54.6871 87.166 56.5674L86.3828 56.2314C85.5917 58.0771 84.5575 59.8 83.3184 61.3604L83.9854 61.8896C82.6985 63.51 81.1995 64.9602 79.5293 66.2021L79.0215 65.5195C77.4303 66.7027 75.6776 67.6887 73.8018 68.4414L74.1182 69.2314C72.2259 69.9907 70.2134 70.5214 68.1152 70.7861L68.0088 69.9404C67.0284 70.0642 66.0283 70.1289 65.0127 70.1289C63.9971 70.1289 62.9969 70.0642 62.0166 69.9404L61.9102 70.7861C59.8117 70.5213 57.7987 69.9909 55.9062 69.2314L56.2246 68.4414C54.3486 67.6887 52.5951 66.7028 51.0039 65.5195L50.4951 66.2021C48.8252 64.9603 47.3267 63.5097 46.04 61.8896L46.707 61.3604C45.4679 59.8001 44.4337 58.0771 43.6426 56.2314L42.8584 56.5674C42.0526 54.6872 41.4899 52.6829 41.208 50.5918L42.0537 50.4785C41.9549 49.7457 41.8915 49.0017 41.8662 48.248L41.8535 47.4912C41.8535 46.478 41.9219 45.4801 42.0537 44.5029L41.208 44.3896C41.4899 42.2986 42.0525 40.2942 42.8584 38.4141L43.6426 38.75C44.4337 36.9043 45.4689 35.1824 46.708 33.6221L46.04 33.0918C47.3267 31.4717 48.8252 30.0211 50.4951 28.7793L51.0039 29.4629C52.5951 28.2797 54.3486 27.2928 56.2246 26.54L55.9062 25.749C57.7986 24.9897 59.8118 24.4592 61.9102 24.1943L62.0166 25.041C62.9969 24.9173 63.9971 24.8535 65.0127 24.8535C66.0283 24.8535 67.0285 24.9173 68.0088 25.041L68.1152 24.1943Z" stroke="#757575" stroke-width="1.70683" stroke-dasharray="7 7"/>
<path d="M48.0127 2.85352C60.8212 2.85352 71.1729 13.0064 71.1729 25.4912C71.1727 37.9759 60.8211 48.1289 48.0127 48.1289C35.2045 48.1288 24.8537 37.9758 24.8535 25.4912C24.8535 13.0065 35.2044 2.85367 48.0127 2.85352Z" stroke="black" stroke-width="1.70683"/>
<path d="M47.9997 47.9368C60.8082 47.9368 71.1599 58.0897 71.1599 70.5745C71.1597 83.0592 60.8081 93.2122 47.9997 93.2122C35.1915 93.2121 24.8407 83.0591 24.8405 70.5745C24.8405 58.0898 35.1914 47.937 47.9997 47.9368Z" stroke="black" stroke-width="1.70683"/>
<path d="M45.9915 53.1252C48.9847 52.9673 51.2831 50.4129 51.1252 47.4197C50.9673 44.4265 48.4129 42.128 45.4197 42.2859C42.4265 42.4438 40.128 44.9983 40.2859 47.9915C40.4438 50.9847 42.9983 53.2831 45.9915 53.1252Z" fill="#0035F5"/>
</svg>
