<svg xmlns="http://www.w3.org/2000/svg" width="50" height="50" viewBox="0 0 50 50">
  <defs>
    <style>
      .cls-1 {
        fill: none;
      }

      .cls-1, .cls-2, .cls-3 {
        stroke: #000;
        stroke-width: 2px;
      }

      .cls-1, .cls-2 {
        fill-rule: evenodd;
      }

      .cls-2, .cls-3 {
        fill: #fff;
      }
    </style>
  </defs>
  <path class="cls-1" d="M9.456,7.548H40.591a8,8,0,0,1,8,8V33.217a8,8,0,0,1-8,8H9.456a8,8,0,0,1-8-8V15.548A8,8,0,0,1,9.456,7.548Z"/>
  <path class="cls-1" d="M8.974,32.828h5.709a0.776,0.776,0,0,1,0,1.551H8.974A0.776,0.776,0,0,1,8.974,32.828Z"/>
  <path id="Rectangle_2_copy" data-name="Rectangle 2 copy" class="cls-1" d="M22.2,32.828h5.709a0.776,0.776,0,0,1,0,1.551H22.2A0.776,0.776,0,1,1,22.2,32.828Z"/>
  <path id="Rectangle_2_copy_2" data-name="Rectangle 2 copy 2" class="cls-1" d="M34.968,32.828h5.709a0.776,0.776,0,0,1,0,1.551H34.968A0.776,0.776,0,1,1,34.968,32.828Z"/>
  <path class="cls-2" d="M33.125,14.764a3.792,3.792,0,1,1-3.8,3.792A3.8,3.8,0,0,1,33.125,14.764Z"/>
  <circle id="Ellipse_4_copy" data-name="Ellipse 4 copy" class="cls-3" cx="37.734" cy="18.547" r="3.797"/>
</svg>
