<svg xmlns="http://www.w3.org/2000/svg" width="55" height="55" viewBox="0 0 55 55">
  <defs>
    <style>
      .cls-1 {
        fill: none;
      }

      .cls-1, .cls-2, .cls-3 {
        stroke: #000;
        stroke-width: 2px;
      }

      .cls-1, .cls-2 {
        fill-rule: evenodd;
      }

      .cls-2, .cls-3 {
        fill: #fff;
      }
    </style>
  </defs>
  <path class="cls-1" d="M1.865,35.693L5.389,13.305s0.684-2.5,3.021-2.487H37.359s4.649-.444,4.531,4.975h3.272a4.6,4.6,0,0,1,3.524,2.238l4.783,8.956-1.007,9.95a2.143,2.143,0,0,1-2.266,1.99H4.885A3,3,0,0,1,1.865,35.693Z"/>
  <path class="cls-1" d="M40.128,19.026l-0.755,6.468s-0.973,2.02,1.762,1.99l11.076-.249"/>
  <path class="cls-2" d="M13.318,31.117a5.7,5.7,0,1,1-5.763,5.7A5.729,5.729,0,0,1,13.318,31.117Z"/>
  <circle id="Ellipse_1_copy" data-name="Ellipse 1 copy" class="cls-3" cx="14.328" cy="36.813" r="2.891"/>
  <path id="Ellipse_1_copy_2" data-name="Ellipse 1 copy 2" class="cls-2" d="M40.254,31.117a5.7,5.7,0,1,1-5.763,5.7A5.729,5.729,0,0,1,40.254,31.117Z"/>
  <circle id="Ellipse_1_copy_2-2" data-name="Ellipse 1 copy 2" class="cls-3" cx="41.25" cy="36.813" r="2.906"/>
</svg>
