<svg width="72" height="78" viewBox="0 0 72 78" fill="none" xmlns="http://www.w3.org/2000/svg">
<path d="M1.7959 77.9893C0.787224 77.887 8.43062e-08 77.0356 1.74846e-07 76L4.37114e-06 28L0.0107466 27.7959C0.106206 26.8543 0.854352 26.1062 1.7959 26.0107L2 26L37 26L37 27.5L2 27.5C1.72386 27.5 1.5 27.7239 1.5 28L1.5 76C1.5 76.2417 1.67145 76.4437 1.89941 76.4902L2 76.5L50 76.5C50.2761 76.5 50.5 76.2761 50.5 76L50.5 46L52 46L52 76C52 77.1046 51.1046 78 50 78L2 78L1.7959 77.9893Z" fill="black"/>
<path d="M72 50L71.9893 50.2041C71.8938 51.1457 71.1457 51.8938 70.2041 51.9893L70 52H66V50.5H70C70.2761 50.5 70.5 50.2761 70.5 50V46H72V50ZM58 52H52V50.5H58V52ZM72 38H70.5V30H72V38ZM21.5 22H20L20 14H21.5L21.5 22ZM72 22H70.5V14L72 14V22ZM26 1.5L22 1.5C21.7239 1.5 21.5 1.72386 21.5 2V6H20V2C20 0.895431 20.8954 4.0266e-08 22 0L26 0V1.5ZM70.2041 0.0107422C71.2128 0.113005 72 0.96435 72 2V6H70.5V2C70.5 1.72386 70.2761 1.5 70 1.5L66 1.5V0L70 0L70.2041 0.0107422ZM42 1.5L34 1.5V0L42 0V1.5ZM58 1.5L50 1.5V0L58 0V1.5Z" fill="#757575"/>
<path d="M27.7832 56.7385C30.6724 56.5861 32.891 54.1204 32.7386 51.2313C32.5861 48.3421 30.1204 46.1236 27.2313 46.276C24.3421 46.4284 22.1236 48.8941 22.276 51.7832C22.4284 54.6724 24.8941 56.891 27.7832 56.7385Z" fill="#0035F5"/>
<path d="M31.5 48.5L57 19" stroke="black" stroke-width="1.5"/>
<path d="M45.5 19H57V30" stroke="black" stroke-width="1.5"/>
</svg>
