<svg width="90" height="83" viewBox="0 0 90 83" fill="none" xmlns="http://www.w3.org/2000/svg">
<path d="M65.7832 61.1866C68.6724 61.0342 70.891 58.5685 70.7386 55.6793C70.5861 52.7902 68.1204 50.5716 65.2313 50.724C62.3421 50.8764 60.1236 53.3421 60.276 56.2313C60.4284 59.1204 62.8941 61.339 65.7832 61.1866Z" fill="#0035F5"/>
<circle cx="17.208" cy="17.208" r="16.208" stroke="black" stroke-width="1.5"/>
<rect x="1.75" y="40.6074" width="37.7404" height="37.7404" rx="4.36831" stroke="black" stroke-width="1.5"/>
<path d="M70.0752 74.1797C68.1968 77.433 63.5014 77.4331 61.623 74.1797L46.9951 48.8437C45.1173 45.5904 47.4652 41.5245 51.2217 41.5244L80.4766 41.5244C84.2332 41.5244 86.5812 45.5904 84.7031 48.8437L70.0752 74.1797Z" stroke="black" stroke-width="1.5"/>
<path d="M16.1112 58.2067L65.7623 58.2067" stroke="#757575" stroke-width="1.61906" stroke-dasharray="7 7"/>
<path d="M15.5 17C27.553 17.5397 58 20 67.3813 54.4289" stroke="#757575" stroke-width="1.61906" stroke-dasharray="7 7"/>
</svg>
