<svg width="94" height="60" viewBox="0 0 94 60" fill="none" xmlns="http://www.w3.org/2000/svg">
<path d="M30 0.25C46.4305 0.25 59.75 13.5695 59.75 30C59.75 37.732 56.7993 44.7742 51.9639 50.0645C51.6103 49.7089 51.2178 49.3926 50.7949 49.1191C55.4229 44.0882 58.25 37.3747 58.25 30C58.25 14.398 45.602 1.75 30 1.75C14.398 1.75 1.75 14.398 1.75 30C1.75 45.602 14.398 58.25 30 58.25C33.5726 58.25 36.9893 57.584 40.1357 56.374C40.2351 56.8731 40.3876 57.3529 40.5869 57.8076C37.2974 59.0607 33.7294 59.75 30 59.75C13.5695 59.75 0.25 46.4305 0.25 30C0.25 13.5695 13.5695 0.25 30 0.25Z" fill="black"/>
<path d="M67.7881 58.7549L67.8848 59.499C66.613 59.6649 65.3163 59.75 64 59.75C62.6837 59.75 61.387 59.6649 60.1152 59.499L60.2119 58.7549L60.3096 58.0107C61.5171 58.1682 62.7488 58.25 64 58.25C65.2512 58.25 66.4829 58.1682 67.6904 58.0107L67.7881 58.7549ZM46.8027 52.4141C48.7468 53.9079 50.8904 55.1543 53.1865 56.1064L52.8994 56.7998L52.6123 57.4922C50.1934 56.4891 47.9355 55.1764 45.8887 53.6035L46.8027 52.4141ZM82.1113 53.6035C80.0645 55.1764 77.8066 56.4891 75.3877 57.4922L75.1006 56.7998L74.8135 56.1064C77.1096 55.1543 79.2532 53.9079 81.1973 52.4141L82.1113 53.6035ZM37.8936 40.8135C38.8457 43.1096 40.0921 45.2532 41.5859 47.1973L40.3965 48.1113C38.8236 46.0645 37.5109 43.8066 36.5078 41.3877L37.2002 41.1006L37.8936 40.8135ZM90.7998 41.1006L91.4922 41.3877C90.4891 43.8066 89.1764 46.0645 87.6035 48.1113L86.4141 47.1973C87.9079 45.2532 89.1543 43.1096 90.1064 40.8135L90.7998 41.1006ZM35.2451 26.2119L35.9893 26.3096C35.8318 27.5171 35.75 28.7488 35.75 30C35.75 31.2512 35.8318 32.4829 35.9893 33.6904L35.2451 33.7881L34.501 33.8848C34.3351 32.613 34.25 31.3163 34.25 30C34.25 28.6837 34.3351 27.387 34.501 26.1152L35.2451 26.2119ZM93.499 26.1152C93.6649 27.387 93.75 28.6837 93.75 30C93.75 31.3163 93.6649 32.613 93.499 33.8848L92.7549 33.7881L92.0107 33.6904C92.1682 32.4829 92.25 31.2512 92.25 30C92.25 28.7488 92.1682 27.5171 92.0107 26.3096L92.7549 26.2119L93.499 26.1152ZM41.5859 12.8027C40.0921 14.7468 38.8457 16.8904 37.8936 19.1865L37.2002 18.8994L36.5078 18.6123C37.5109 16.1934 38.8236 13.9355 40.3965 11.8887L41.5859 12.8027ZM87.6035 11.8887C89.1764 13.9355 90.4891 16.1934 91.4922 18.6123L90.7998 18.8994L90.1064 19.1865C89.1543 16.8904 87.9079 14.7468 86.4141 12.8027L87.6035 11.8887ZM75.3877 2.50781C77.8066 3.51087 80.0645 4.82364 82.1113 6.39648L81.1973 7.58594C79.2532 6.09205 77.1096 4.84571 74.8135 3.89355L75.1006 3.2002L75.3877 2.50781ZM64 0.25C65.3163 0.25 66.613 0.335089 67.8848 0.500977L67.7881 1.24512L67.6904 1.98926C66.4829 1.83175 65.2512 1.75 64 1.75C62.7488 1.75 61.5171 1.83175 60.3096 1.98926L60.2119 1.24512L60.1152 0.500977C61.387 0.335089 62.6837 0.25 64 0.25Z" fill="#757575"/>
<path d="M53.7832 51.7385C56.6724 51.5861 58.891 49.1204 58.7386 46.2313C58.5861 43.3421 56.1204 41.1236 53.2313 41.276C50.3421 41.4284 48.1236 43.8941 48.276 46.7832C48.4284 49.6724 50.8941 51.891 53.7832 51.7385Z" fill="#0035F5"/>
</svg>
