<svg width="95" height="95" viewBox="0 0 95 95" fill="none" xmlns="http://www.w3.org/2000/svg">
<path d="M68.1186 77.5162C53.685 77.5162 42.0121 66.0737 42.0121 51.9937C42.0123 37.9138 53.6851 26.4722 68.1186 26.4722C82.5518 26.4725 94.2238 37.914 94.224 51.9937C94.224 66.0736 82.5519 77.5159 68.1186 77.5162Z" stroke="black" stroke-width="1.5"/>
<path d="M44.6738 69.3274C42.3273 69.0312 40.0762 68.4372 37.96 67.5881L38.2383 66.8928C36.1238 66.0444 34.148 64.9325 32.3545 63.5989L31.9092 64.1995C30.0412 62.8105 28.364 61.1892 26.9248 59.3772L27.5117 58.9104C26.1147 57.1514 24.9477 55.2094 24.0557 53.1282L23.3682 53.4241C22.4667 51.3211 21.8368 49.0795 21.5215 46.7405L22.2637 46.6409C22.1151 45.5389 22.0381 44.414 22.0381 43.2717C22.0381 42.1296 22.1151 41.0053 22.2637 39.9036L21.5225 39.804C21.8378 37.4653 22.4669 35.2241 23.3682 33.1213L24.0557 33.4163C24.9477 31.335 26.1147 29.393 27.5117 27.634L26.9248 27.1682C28.3641 25.3559 30.041 23.7341 31.9092 22.345L32.3545 22.9456C34.1481 21.6118 36.1238 20.4991 38.2383 19.6506L37.96 18.9573C40.0766 18.108 42.3278 17.5141 44.6748 17.218L44.7676 17.9612C45.8726 17.8217 47.0001 17.7502 48.1445 17.7502C49.2889 17.7503 50.4157 17.8217 51.5205 17.9612L51.6143 17.218C53.9612 17.5142 56.2125 18.1079 58.3291 18.9573L58.0498 19.6506C60.1643 20.4991 62.14 21.6118 63.9336 22.9456L64.3799 22.345C66.248 23.7341 67.9251 25.356 69.3643 27.1682L68.7773 27.634C70.1742 29.393 71.3404 31.3352 72.2324 33.4163L72.9209 33.1213C73.8221 35.224 74.4513 37.4654 74.7666 39.804L74.0244 39.9036C74.1359 40.7301 74.2068 41.5693 74.2354 42.4192L74.25 43.2717C74.25 44.414 74.173 45.5389 74.0244 46.6409L74.7676 46.7405C74.4522 49.0794 73.8223 51.3211 72.9209 53.4241L72.2324 53.1282C71.3404 55.2093 70.1743 57.1514 68.7773 58.9104L69.3643 59.3772C67.9252 61.1892 66.2477 62.8105 64.3799 64.1995L63.9336 63.5989C62.1401 64.9325 60.1643 66.0444 58.0498 66.8928L58.3291 67.5881C56.2129 68.4373 53.9617 69.0312 51.6152 69.3274L51.6143 69.3264L51.5205 68.5832C50.4157 68.7227 49.2888 68.7942 48.1445 68.7942C47.0001 68.7942 45.8725 68.7227 44.7676 68.5832L44.6738 69.3264L44.6738 69.3274Z" stroke="#757575" stroke-width="1.5" stroke-dasharray="7 7"/>
<path d="M27.8564 77.5162C13.4229 77.5162 1.74997 66.0737 1.74997 51.9937C1.75016 37.9138 13.423 26.4722 27.8564 26.4722C42.2896 26.4725 53.9617 37.914 53.9619 51.9937C53.9619 66.0736 42.2897 77.5159 27.8564 77.5162Z" stroke="black" stroke-width="1.5"/>
<path d="M48.0085 46.419C45.0153 46.5769 42.7169 49.1314 42.8748 52.1246C43.0327 55.1178 45.5871 57.4162 48.5803 57.2583C51.5735 57.1004 53.872 54.546 53.7141 51.5528C53.5562 48.5596 51.0017 46.2611 48.0085 46.419Z" fill="#0035F5"/>
</svg>
