<svg width="95" height="95" viewBox="0 0 95 95" fill="none" xmlns="http://www.w3.org/2000/svg">
<path d="M47.4196 45.2859C44.4264 45.4438 42.128 47.9983 42.2859 50.9915C42.4438 53.9847 44.9983 56.2831 47.9915 56.1252C50.9847 55.9673 53.2831 53.4128 53.1252 50.4196C52.9673 47.4264 50.4128 45.128 47.4196 45.2859Z" fill="#0035F5"/>
<path d="M24.1123 81.0371C30.7397 85.6674 38.8019 88.3857 47.5 88.3857C52.3153 88.3857 56.9352 87.5503 61.2256 86.0215C61.6669 86.452 62.136 86.854 62.6309 87.2236C57.9298 89.0153 52.8302 90 47.5 90C38.013 90 29.2527 86.8907 22.1807 81.6367C22.8438 81.4826 23.489 81.2817 24.1123 81.0371ZM88.3936 35.8887C89.4395 39.5794 90 43.4742 90 47.5C90 55.7277 87.6592 63.4076 83.6113 69.915C83.342 69.3578 83.0363 68.8217 82.6982 68.3086C86.3098 62.2126 88.3857 55.0992 88.3857 47.5C88.3857 43.7546 87.8787 40.1278 86.9355 36.6816C87.4387 36.4457 87.9252 36.1805 88.3936 35.8887ZM10.375 26.8027C10.7037 27.2915 11.0621 27.7587 11.4482 28.2012C8.36463 33.9496 6.61426 40.5202 6.61426 47.5C6.61426 51.4996 7.19113 55.3642 8.26172 59.0176C7.82984 59.5333 7.43408 60.0803 7.0791 60.6553C5.73179 56.5127 5 52.092 5 47.5C5 39.9854 6.95296 32.9278 10.375 26.8027ZM47.5 5C56.7697 5 65.3449 7.96969 72.3301 13.0068C71.8968 13.349 71.4844 13.7163 71.0947 14.1064C64.4287 9.38791 56.2885 6.61426 47.5 6.61426C42.1322 6.61426 37.0066 7.64997 32.3105 9.53027C31.9116 9.09616 31.4855 8.68756 31.0352 8.30664C36.0989 6.17684 41.662 5 47.5 5Z" fill="black"/>
<path d="M44.3857 74.3274C42.0392 74.0312 39.7881 73.4372 37.6718 72.5881L37.9502 71.8928C35.8357 71.0444 33.8599 69.9325 32.0664 68.5989L31.6211 69.1995C29.7531 67.8105 28.0759 66.1892 26.6367 64.3772L27.2236 63.9104C25.8266 62.1514 24.6596 60.2094 23.7675 58.1282L23.08 58.4241C22.1785 56.3211 21.5487 54.0795 21.2334 51.7405L21.9756 51.6409C21.827 50.5389 21.75 49.414 21.75 48.2717C21.75 47.1296 21.827 46.0053 21.9756 44.9036L21.2343 44.804C21.5496 42.4653 22.1788 40.2241 23.0801 38.1213L23.7676 38.4163C24.6596 36.335 25.8266 34.393 27.2236 32.634L26.6367 32.1682C28.076 30.3559 29.7529 28.7341 31.6211 27.345L32.0664 27.9456C33.86 26.6118 35.8356 25.4991 37.9502 24.6506L37.6718 23.9573C39.7885 23.108 42.0397 22.5141 44.3867 22.218L44.4795 22.9612C45.5844 22.8217 46.7119 22.7502 47.8564 22.7502C49.0007 22.7503 50.1276 22.8217 51.2324 22.9612L51.3261 22.218C53.6731 22.5142 55.9244 23.1079 58.041 23.9573L57.7617 24.6506C59.8762 25.4991 61.8519 26.6118 63.6455 27.9456L64.0918 27.345C65.9598 28.7341 67.637 30.356 69.0761 32.1682L68.4892 32.634C69.8861 34.393 71.0523 36.3352 71.9443 38.4163L72.6328 38.1213C73.534 40.224 74.1632 42.4654 74.4785 44.804L73.7363 44.9036C73.8477 45.7301 73.9187 46.5693 73.9472 47.4192L73.9619 48.2717C73.9619 49.414 73.8849 50.5389 73.7363 51.6409L74.4795 51.7405C74.1641 54.0794 73.5342 56.3211 72.6328 58.4241L71.9443 58.1282C71.0523 60.2093 69.8862 62.1514 68.4892 63.9104L69.0761 64.3772C67.6371 66.1892 65.9596 67.8105 64.0918 69.1995L63.6455 68.5989C61.8519 69.9325 59.8761 71.0444 57.7617 71.8928L58.041 72.5881C55.9248 73.4373 53.6736 74.0312 51.3271 74.3274L51.3261 74.3264L51.2324 73.5832C50.1276 73.7227 49.0007 73.7942 47.8564 73.7942C46.7119 73.7942 45.5844 73.7227 44.4795 73.5832L44.3857 74.3264L44.3857 74.3274Z" stroke="#757575" stroke-width="1.5" stroke-dasharray="7 7"/>
</svg>
