<svg width="95" height="95" viewBox="0 0 95 95" fill="none" xmlns="http://www.w3.org/2000/svg">
<g clip-path="url(#clip0_142_2639)">
<path d="M89.8491 43.804C90.1806 47.6257 89.9971 51.5564 89.2383 55.51C84.8146 78.5615 62.5415 93.6622 39.49 89.2384C32.0314 87.807 25.4075 84.5042 20.0057 79.9137C20.6174 79.7496 21.215 79.5448 21.7947 79.3015C26.8509 83.3956 32.9583 86.3412 39.7943 87.6531C61.9703 91.9089 83.3972 77.3819 87.653 55.2058C88.3589 51.5275 88.5445 47.8701 88.2677 44.308C88.8064 44.1711 89.3341 44.0024 89.8491 43.804ZM55.51 5.76168C64.6136 7.50875 72.4754 12.0414 78.386 18.3048C77.896 18.5591 77.4217 18.8422 76.9656 19.1518C71.3083 13.2615 63.8367 9.00338 55.2057 7.34701C33.0296 3.09122 11.6028 17.6182 7.34696 39.7943C6.30997 45.1978 6.39038 50.5564 7.42269 55.6334C6.93822 56.0368 6.48076 56.4738 6.05312 56.9407C4.78189 51.3734 4.61632 45.458 5.76163 39.4901C10.1854 16.4386 32.4585 1.3379 55.51 5.76168Z" fill="black"/>
<path d="M14 66L39.5 50.5L51 58L82.5 33.5" stroke="#262222" stroke-width="1.5" stroke-linecap="round"/>
<path d="M82.9915 39.1252C85.9847 38.9673 88.2831 36.4128 88.1252 33.4196C87.9673 30.4264 85.4129 28.128 82.4197 28.2859C79.4265 28.4438 77.128 30.9982 77.2859 33.9914C77.4438 36.9846 79.9983 39.2831 82.9915 39.1252Z" fill="#0035F5"/>
<path d="M44.3857 74.3274C42.0392 74.0312 39.7881 73.4372 37.6718 72.5881L37.9502 71.8928C35.8357 71.0444 33.8599 69.9325 32.0664 68.5989L31.6211 69.1995C29.7531 67.8105 28.0759 66.1892 26.6367 64.3772L27.2236 63.9104C25.8266 62.1514 24.6596 60.2094 23.7675 58.1282L23.08 58.4241C22.1785 56.3211 21.5487 54.0795 21.2334 51.7405L21.9756 51.6409C21.827 50.5389 21.75 49.414 21.75 48.2717C21.75 47.1296 21.827 46.0053 21.9756 44.9036L21.2343 44.804C21.5496 42.4653 22.1788 40.2241 23.0801 38.1213L23.7676 38.4163C24.6596 36.335 25.8266 34.393 27.2236 32.634L26.6367 32.1682C28.076 30.3559 29.7529 28.7341 31.6211 27.345L32.0664 27.9456C33.86 26.6118 35.8356 25.4991 37.9502 24.6506L37.6718 23.9573C39.7885 23.108 42.0397 22.5141 44.3867 22.218L44.4795 22.9612C45.5844 22.8217 46.7119 22.7502 47.8564 22.7502C49.0007 22.7503 50.1276 22.8217 51.2324 22.9612L51.3261 22.218C53.6731 22.5142 55.9244 23.1079 58.041 23.9573L57.7617 24.6506C59.8762 25.4991 61.8519 26.6118 63.6455 27.9456L64.0918 27.345C65.9598 28.7341 67.637 30.356 69.0761 32.1682L68.4892 32.634C69.8861 34.393 71.0523 36.3352 71.9443 38.4163L72.6328 38.1213C73.534 40.224 74.1632 42.4654 74.4785 44.804L73.7363 44.9036C73.8477 45.7301 73.9187 46.5693 73.9472 47.4192L73.9619 48.2717C73.9619 49.414 73.8849 50.5389 73.7363 51.6409L74.4795 51.7405C74.1641 54.0794 73.5342 56.3211 72.6328 58.4241L71.9443 58.1282C71.0523 60.2093 69.8862 62.1514 68.4892 63.9104L69.0761 64.3772C67.6371 66.1892 65.9596 67.8105 64.0918 69.1995L63.6455 68.5989C61.8519 69.9325 59.8761 71.0444 57.7617 71.8928L58.041 72.5881C55.9248 73.4373 53.6736 74.0312 51.3271 74.3274L51.3261 74.3264L51.2324 73.5832C50.1276 73.7227 49.0007 73.7942 47.8564 73.7942C46.7119 73.7942 45.5844 73.7227 44.4795 73.5832L44.3857 74.3264L44.3857 74.3274Z" stroke="#757575" stroke-width="1.5" stroke-dasharray="7 7"/>
</g>
<defs>
<clipPath id="clip0_142_2639">
<rect width="95" height="95" fill="white"/>
</clipPath>
</defs>
</svg>
