<svg width="95" height="95" viewBox="0 0 95 95" fill="none" xmlns="http://www.w3.org/2000/svg">
<path d="M47.1199 19.7937V27.9988C47.1199 29.8232 48.397 31.4162 50.1858 31.781C51.8366 32.1192 53.9724 32.8089 56.1037 34.2105" stroke="black" stroke-width="1.5" stroke-linecap="round" stroke-linejoin="round"/>
<path d="M71.1435 33.6633L64.0374 37.7659C62.4578 38.6781 61.7148 40.5781 62.2932 42.309C62.8272 43.9064 63.2988 46.1001 63.1475 48.6497" stroke="black" stroke-width="1.5" stroke-linecap="round" stroke-linejoin="round"/>
<path d="M71.1435 61.4068L64.0375 57.3043C62.4579 56.3921 60.4422 56.6991 59.2318 58.0651C58.115 59.3288 56.4509 60.8328 54.1682 61.9764" stroke="black" stroke-width="1.5" stroke-linecap="round" stroke-linejoin="round"/>
<path d="M47.12 75.2763V67.0712C47.12 65.2469 45.843 63.6539 44.0542 63.289C42.4034 62.9508 40.2675 62.2611 38.1362 60.8595" stroke="black" stroke-width="1.5" stroke-linecap="round" stroke-linejoin="round"/>
<path d="M23.0919 61.4069L30.198 57.3043C31.7776 56.3921 32.5208 54.4921 31.9423 52.7612C31.4084 51.1638 30.9366 48.9701 31.0879 46.4205" stroke="black" stroke-width="1.5" stroke-linecap="round" stroke-linejoin="round"/>
<path d="M23.0919 33.6634L30.198 37.7659C31.7776 38.6781 33.7933 38.3711 35.0036 37.005C36.1205 35.7413 37.7847 34.2374 40.0674 33.0938" stroke="black" stroke-width="1.5" stroke-linecap="round" stroke-linejoin="round"/>
<path d="M52.1169 12.5631C48.6773 13.008 45.2378 13.008 41.7982 12.5631C41.3532 9.12351 41.3532 5.68394 41.7982 2.24437C45.2378 1.7994 48.6773 1.7994 52.1169 2.24437C52.5618 5.68394 52.5618 9.12351 52.1169 12.5631Z" stroke="black" stroke-width="1.5" stroke-linecap="round" stroke-linejoin="round"/>
<path d="M19.332 25.7208C18.0015 28.9245 16.2795 31.9013 14.1748 34.6557C10.9711 33.3252 7.99432 31.6032 5.23999 29.4985C6.57043 26.2948 8.29237 23.318 10.3971 20.5637C13.6008 21.8941 16.5776 23.6161 19.332 25.7208Z" stroke="black" stroke-width="1.5" stroke-linecap="round" stroke-linejoin="round"/>
<path d="M14.3351 60.6904C16.4397 63.4447 18.1618 66.4215 19.4922 69.6252C16.7379 71.7299 13.7611 73.4519 10.5573 74.7824C8.45264 72.028 6.73059 69.0512 5.40015 65.8475C8.15447 63.7428 11.1313 62.0208 14.3351 60.6904Z" stroke="black" stroke-width="1.5" stroke-linecap="round" stroke-linejoin="round"/>
<path d="M42.123 82.507C45.5626 82.062 49.0021 82.062 52.4417 82.507C52.8867 85.9466 52.8867 89.3861 52.4417 92.8257C49.0021 93.2707 45.5626 93.2707 42.123 92.8257C41.6781 89.3861 41.6781 85.9466 42.123 82.507Z" stroke="black" stroke-width="1.5" stroke-linecap="round" stroke-linejoin="round"/>
<path d="M74.9079 69.3494C76.2383 66.1457 77.9604 63.1689 80.0651 60.4146C83.2688 61.745 86.2457 63.467 89 65.5717C87.6695 68.7754 85.9475 71.7522 83.8428 74.5066C80.6391 73.1761 77.6622 71.4541 74.9079 69.3494Z" stroke="black" stroke-width="1.5" stroke-linecap="round" stroke-linejoin="round"/>
<path d="M79.905 34.3797C77.8003 31.6253 76.0782 28.6485 74.7478 25.4448C77.5021 23.3401 80.479 21.6181 83.6827 20.2877C85.7874 23.042 87.5093 26.0188 88.8398 29.2225C86.0854 31.3272 83.1087 33.0492 79.905 34.3797Z" stroke="black" stroke-width="1.5" stroke-linecap="round" stroke-linejoin="round"/>
<path d="M46.9915 53.5534C49.9847 53.3955 52.2831 50.841 52.1252 47.8478C51.9673 44.8546 49.4129 42.5562 46.4197 42.7141C43.4265 42.872 41.128 45.4265 41.2859 48.4197C41.4438 51.4128 43.9983 53.7113 46.9915 53.5534Z" fill="#0035F5"/>
<path d="M47 57.25C45.6333 57.25 44.3311 56.9962 43.1416 56.5361L42.873 57.2334C40.1742 56.1898 38.0076 54.1553 36.8711 51.6006L37.5557 51.2959C37.0369 50.1296 36.75 48.8472 36.75 47.5C36.75 46.1528 37.0369 44.8704 37.5557 43.7041L36.8711 43.4004C38.0075 40.8454 40.1741 38.8114 42.873 37.7676L43.1416 38.4639C44.3311 38.0038 45.6333 37.75 47 37.75C48.3667 37.75 49.6689 38.0038 50.8584 38.4639L51.1279 37.7676C53.8266 38.8115 55.9937 40.8455 57.1299 43.4004L56.4443 43.7041C56.8983 44.7247 57.1743 45.8341 57.2363 46.998L57.25 47.5C57.25 48.8472 56.9631 50.1296 56.4443 51.2959L57.1299 51.6006C55.9935 54.1552 53.8265 56.1896 51.1279 57.2334L50.8584 56.5361C49.6689 56.9962 48.3667 57.25 47 57.25Z" stroke="#757575" stroke-width="1.5" stroke-dasharray="7 7"/>
</svg>
