<svg width="95" height="95" viewBox="0 0 95 95" fill="none" xmlns="http://www.w3.org/2000/svg">
<path d="M58 88H7V35H58V88ZM8.5 86.5H56.5V36.5H8.5V86.5Z" fill="black"/>
<path d="M57.9915 42.1252C60.9847 41.9673 63.2831 39.4129 63.1252 36.4197C62.9673 33.4265 60.4129 31.128 57.4197 31.2859C54.4265 31.4438 52.128 33.9983 52.2859 36.9915C52.4438 39.9847 54.9983 42.2831 57.9915 42.1252Z" fill="#0035F5"/>
<path d="M54.3076 61.7803C51.8067 61.4789 49.4057 60.8735 47.1455 60.0078L47.4131 59.3086C45.137 58.4368 43.0089 57.2919 41.0732 55.918L40.6387 56.5293L40.6387 56.5303C38.6114 55.0913 36.7904 53.4054 35.2227 51.5215L35.2217 51.5215L35.7979 51.042C34.2612 49.1953 32.9764 47.1534 31.9922 44.9629L31.3105 45.2705C30.3105 43.045 29.6115 40.6693 29.2607 38.1885L30.001 38.083C29.8354 36.9113 29.75 35.7153 29.75 34.5C29.75 33.2847 29.8354 32.0887 30.001 30.917L29.2607 30.8125C29.6114 28.3316 30.3106 25.956 31.3106 23.7305L31.9922 24.0371C32.9764 21.8466 34.2612 19.8047 35.7979 17.958L35.2227 17.4795C36.7904 15.5955 38.6113 13.9098 40.6387 12.4707L41.0732 13.082C43.0089 11.7081 45.1371 10.5632 47.4131 9.6914L47.1455 8.99316C49.4057 8.12742 51.8066 7.52208 54.3076 7.2207L54.3975 7.96582C55.5768 7.82372 56.7793 7.75 58 7.75C59.2207 7.75 60.4232 7.82372 61.6025 7.96582L61.6924 7.2207L61.6934 7.2207C64.1943 7.52215 66.5953 8.12736 68.8555 8.99316L68.5869 9.6914C70.863 10.5632 72.9911 11.7081 74.9268 13.082L75.3613 12.4707L75.3623 12.4707C77.3896 13.9098 79.2107 15.5955 80.7783 17.4795L80.2022 17.958C81.7388 19.8047 83.0236 21.8466 84.0078 24.0371L84.6904 23.7305C85.6903 25.956 86.3896 28.3317 86.7402 30.8125L85.999 30.917C86.1439 31.9421 86.2274 32.9859 86.2461 34.0449L86.25 34.5C86.25 35.7153 86.1646 36.9113 85.999 38.083L86.7402 38.1885C86.3895 40.6692 85.6904 43.0451 84.6904 45.2705L84.0078 44.9629C83.0236 47.1534 81.7388 49.1953 80.2021 51.042L80.7783 51.5215C79.2106 53.4054 77.3895 55.0913 75.3623 56.5303L75.3613 56.5293L74.9268 55.918C72.9911 57.2919 70.863 58.4368 68.5869 59.3086L68.8555 60.0078C66.5954 60.8736 64.1943 61.4788 61.6934 61.7803L61.6924 61.7793L61.6025 61.0342C60.4232 61.1763 59.2207 61.25 58 61.25C56.7793 61.25 55.5768 61.1763 54.3975 61.0342L54.3076 61.7793L54.3076 61.7803Z" stroke="#757575" stroke-width="1.5" stroke-dasharray="7 7"/>
</svg>
