<svg width="95" height="95" viewBox="0 0 95 95" fill="none" xmlns="http://www.w3.org/2000/svg">
<path d="M48 91.7357C35.9044 91.7357 24.9838 90.194 17.1123 87.7201C13.1722 86.4818 10.0381 85.0226 7.90527 83.4379C5.75858 81.8427 4.75019 80.219 4.75 78.6576C4.75 77.096 5.75838 75.4716 7.90528 73.8763C10.0381 72.2916 13.1722 70.8324 17.1123 69.5941C24.9838 67.1202 35.9044 65.5785 48 65.5785C60.0956 65.5785 71.0162 67.1202 78.8877 69.5941C82.8278 70.8324 85.9619 72.2916 88.0947 73.8763C90.2416 75.4716 91.25 77.096 91.25 78.6576C91.2498 80.219 90.2414 81.8428 88.0947 83.4379C85.9619 85.0226 82.8278 86.4818 78.8877 87.7201C71.0162 90.194 60.0956 91.7357 48 91.7357Z" stroke="black" stroke-width="1.5"/>
<path d="M48 72.9071C35.9044 72.9071 24.9838 71.3654 17.1123 68.8915C13.1722 67.6532 10.0381 66.194 7.90527 64.6092C5.75858 63.0141 4.75019 61.3904 4.75 59.829C4.75 58.2674 5.75838 56.643 7.90528 55.0477C10.0381 53.463 13.1722 52.0038 17.1123 50.7655C24.9838 48.2916 35.9044 46.7499 48 46.7499C60.0956 46.7499 71.0162 48.2916 78.8877 50.7655C82.8278 52.0038 85.9619 53.463 88.0947 55.0477C90.2416 56.643 91.25 58.2674 91.25 59.829C91.2498 61.3904 90.2414 63.0141 88.0947 64.6093C85.9619 66.194 82.8278 67.6532 78.8877 68.8915C71.0162 71.3654 60.0956 72.9071 48 72.9071Z" stroke="black" stroke-width="1.5"/>
<path d="M45.5713 56.0081C43.9271 55.9799 42.3071 55.9224 40.7158 55.8391L40.7539 55.0911C39.1152 55.0052 37.5076 54.8906 35.9365 54.7493L35.8701 55.4963C34.2203 55.3479 32.6102 55.1696 31.0459 54.9641L31.1426 54.2209C29.4987 54.005 27.9062 53.7583 26.373 53.4836L26.2422 54.2219C24.5881 53.9256 23.0012 53.5965 21.4902 53.2375L21.6621 52.5081C20.0223 52.1184 18.4755 51.6931 17.0332 51.2375L16.8086 51.9524C15.1511 51.4288 13.6262 50.8641 12.251 50.2629L12.5498 49.5764C10.9352 48.8705 9.54732 48.1196 8.40723 47.3381L7.9834 47.9563C6.41079 46.8783 5.26842 45.7252 4.62012 44.5198L5.27734 44.1653C4.92315 43.5064 4.75008 42.8523 4.75 42.2004C4.75 41.5483 4.92304 40.8937 5.27735 40.2346L4.62012 39.8811C5.2683 38.6755 6.41071 37.5226 7.9834 36.4446L8.40723 37.0618C9.54724 36.2804 10.9354 35.5303 12.5498 34.8245L12.251 34.1379C13.6262 33.5368 15.1511 32.9721 16.8086 32.4485L17.0332 33.1623C18.4755 32.7067 20.0223 32.2815 21.6621 31.8918L21.4902 31.1633C23.0012 30.8043 24.5881 30.4753 26.2422 30.1789L26.373 30.9163C27.9062 30.6416 29.4987 30.3949 31.1426 30.1789L31.0459 29.4368C32.6103 29.2313 34.2203 29.0529 35.8701 28.9045L35.9365 29.6506C37.5076 29.5093 39.1152 29.3947 40.7539 29.3088L40.7158 28.5618C42.3071 28.4784 43.9271 28.4219 45.5713 28.3938L45.584 29.1418C46.3838 29.1282 47.1893 29.1213 48 29.1213C48.8107 29.1213 49.6162 29.1282 50.416 29.1418L50.4297 28.3938C52.0738 28.4219 53.6939 28.4784 55.2852 28.5618L55.2461 29.3088C56.8848 29.3947 58.4924 29.5093 60.0635 29.6506L60.1309 28.9045C61.7807 29.0529 63.3907 29.2313 64.9551 29.4368L64.8574 30.179C66.5013 30.3949 68.0938 30.6416 69.627 30.9163L69.7588 30.179C71.4129 30.4753 72.9998 30.8043 74.5107 31.1633L74.3379 31.8918C75.9777 32.2815 77.5245 32.7068 78.9668 33.1624L79.1924 32.4485C80.8499 32.9721 82.3748 33.5367 83.75 34.1379L83.4502 34.8245C85.0646 35.5303 86.4528 36.2804 87.5928 37.0618L88.0176 36.4446C89.5901 37.5226 90.7328 38.6755 91.3809 39.8811L90.7227 40.2346C91.077 40.8937 91.25 41.5484 91.25 42.2004C91.2499 42.8524 91.0769 43.5064 90.7227 44.1653L91.3809 44.5198C90.7327 45.7252 89.59 46.8784 88.0176 47.9563L87.5928 47.3381C86.4527 48.1196 85.0648 48.8706 83.4502 49.5764L83.75 50.2629C82.3748 50.8641 80.8498 51.4288 79.1924 51.9524L78.9668 51.2375C77.5245 51.6931 75.9777 52.1184 74.3379 52.5081L74.5107 53.2375C72.9998 53.5966 71.4128 53.9256 69.7588 54.2219L69.627 53.4836C68.0938 53.7583 66.5013 54.005 64.8574 54.2209L64.9551 54.9641C63.3907 55.1696 61.7807 55.3479 60.1309 55.4963L60.0635 54.7493C58.4924 54.8906 56.8848 55.0052 55.2461 55.0911L55.2852 55.8391C53.6939 55.9224 52.0738 55.9799 50.4297 56.0081L50.416 55.2581C49.6162 55.2717 48.8107 55.2786 48 55.2786C47.1893 55.2786 46.3838 55.2717 45.584 55.2581L45.5713 56.0081Z" stroke="#757575" stroke-width="1.5" stroke-dasharray="5 5"/>
<path d="M48 36.4214C35.9044 36.4214 24.9838 34.8796 17.1123 32.4058C13.1722 31.1674 10.0381 29.7083 7.90527 28.1235C5.75858 26.5284 4.75019 24.9047 4.75 23.3433C4.75 21.7817 5.75838 20.1573 7.90528 18.562C10.0381 16.9772 13.1722 15.5181 17.1123 14.2798C24.9838 11.8059 35.9044 10.2642 48 10.2642C60.0956 10.2642 71.0162 11.8059 78.8877 14.2798C82.8278 15.5181 85.9619 16.9773 88.0947 18.562C90.2416 20.1573 91.25 21.7817 91.25 23.3433C91.2498 24.9047 90.2414 26.5284 88.0947 28.1235C85.9619 29.7083 82.8278 31.1674 78.8877 32.4058C71.0162 34.8796 60.0956 36.4214 48 36.4214Z" stroke="black" stroke-width="1.5"/>
<path d="M47.9915 60.1252C50.9847 59.9673 53.2831 57.4128 53.1252 54.4196C52.9673 51.4264 50.4129 49.128 47.4197 49.2859C44.4265 49.4438 42.128 51.9982 42.2859 54.9914C42.4438 57.9846 44.9983 60.2831 47.9915 60.1252Z" fill="#0035F5"/>
</svg>
