<svg width="95" height="95" viewBox="0 0 95 95" fill="none" xmlns="http://www.w3.org/2000/svg">
<path d="M39.787 17.3189L43.8169 11.0299L37.5298 7" stroke="black" stroke-width="1.5" stroke-linecap="round" stroke-linejoin="round"/>
<path d="M50.8529 11.1722C70.5076 13.1404 85.8535 29.7299 85.8535 49.9036C85.8535 55.5942 84.6324 60.9999 82.4384 65.8724" stroke="black" stroke-width="1.5" stroke-linecap="round" stroke-linejoin="round"/>
<path d="M11.4152 65.8725C9.22117 61 8 55.5943 8 49.9037C8 29.73 23.346 13.1404 43.0007 11.1723" stroke="black" stroke-width="1.5" stroke-linecap="round" stroke-linejoin="round"/>
<path d="M78.5041 72.6703C71.4356 82.46 59.9241 88.8324 46.9247 88.8324C33.9254 88.8324 22.4159 82.462 15.3454 72.6703" stroke="black" stroke-width="1.5" stroke-linecap="round" stroke-linejoin="round"/>
<path d="M79.1737 59.6121L82.1513 66.4608L89 63.4811" stroke="black" stroke-width="1.5" stroke-linecap="round" stroke-linejoin="round"/>
<path d="M22.3792 72.9409L14.9525 72.1675L14.1771 79.5962" stroke="black" stroke-width="1.5" stroke-linecap="round" stroke-linejoin="round"/>
<path d="M46.9915 54.5534C49.9847 54.3955 52.2831 51.841 52.1252 48.8478C51.9673 45.8546 49.4129 43.5562 46.4197 43.7141C43.4265 43.872 41.128 46.4265 41.2859 49.4197C41.4438 52.4128 43.9983 54.7113 46.9915 54.5534Z" fill="#0035F5"/>
<path d="M43.3857 74.3274C41.0392 74.0312 38.7881 73.4372 36.6718 72.5881L36.9502 71.8928C34.8357 71.0444 32.8599 69.9325 31.0664 68.5989L30.6211 69.1995C28.7531 67.8105 27.0759 66.1892 25.6367 64.3772L26.2236 63.9104C24.8266 62.1514 23.6596 60.2094 22.7675 58.1282L22.08 58.4241C21.1785 56.3211 20.5487 54.0795 20.2334 51.7405L20.9756 51.6409C20.827 50.5389 20.75 49.414 20.75 48.2717C20.75 47.1296 20.827 46.0053 20.9756 44.9036L20.2343 44.804C20.5496 42.4653 21.1788 40.2241 22.0801 38.1213L22.7676 38.4163C23.6596 36.335 24.8266 34.393 26.2236 32.634L25.6367 32.1682C27.076 30.3559 28.7529 28.7341 30.6211 27.345L31.0664 27.9456C32.86 26.6118 34.8356 25.4991 36.9502 24.6506L36.6718 23.9573C38.7885 23.108 41.0397 22.5141 43.3867 22.218L43.4795 22.9612C44.5844 22.8217 45.7119 22.7502 46.8564 22.7502C48.0007 22.7503 49.1276 22.8217 50.2324 22.9612L50.3261 22.218C52.6731 22.5142 54.9244 23.1079 57.041 23.9573L56.7617 24.6506C58.8762 25.4991 60.8519 26.6118 62.6455 27.9456L63.0918 27.345C64.9598 28.7341 66.637 30.356 68.0761 32.1682L67.4892 32.634C68.8861 34.393 70.0523 36.3352 70.9443 38.4163L71.6328 38.1213C72.534 40.224 73.1632 42.4654 73.4785 44.804L72.7363 44.9036C72.8477 45.7301 72.9187 46.5693 72.9472 47.4192L72.9619 48.2717C72.9619 49.414 72.8849 50.5389 72.7363 51.6409L73.4795 51.7405C73.1641 54.0794 72.5342 56.3211 71.6328 58.4241L70.9443 58.1282C70.0523 60.2093 68.8862 62.1514 67.4892 63.9104L68.0761 64.3772C66.6371 66.1892 64.9596 67.8105 63.0918 69.1995L62.6455 68.5989C60.8519 69.9325 58.8761 71.0444 56.7617 71.8928L57.041 72.5881C54.9248 73.4373 52.6736 74.0312 50.3271 74.3274L50.3261 74.3264L50.2324 73.5832C49.1276 73.7227 48.0007 73.7942 46.8564 73.7942C45.7119 73.7942 44.5844 73.7227 43.4795 73.5832L43.3857 74.3264L43.3857 74.3274Z" stroke="#757575" stroke-width="1.5" stroke-dasharray="7 7"/>
</svg>
