<svg width="95" height="95" viewBox="0 0 95 95" fill="none" xmlns="http://www.w3.org/2000/svg">
<path d="M47.5 3.25C61.9341 3.25 74.7528 10.1619 82.8301 20.8555L81.5918 21.7061C73.786 11.4052 61.4209 4.75 47.5 4.75C23.8898 4.75 4.75 23.8898 4.75 47.5C4.75 71.1102 23.8898 90.25 47.5 90.25C60.224 90.25 71.6473 84.6889 79.4785 75.8672L80.8867 76.5391C72.7742 85.8582 60.8258 91.75 47.5 91.75C23.0614 91.75 3.25 71.9386 3.25 47.5C3.25 23.0614 23.0614 3.25 47.5 3.25Z" fill="black"/>
<path d="M59.2071 30.0648L59.6781 29.4805C60.1315 29.8466 60.572 30.2345 61.0025 30.6396L60.9537 32.7134C60.9072 32.6638 60.8626 32.6123 60.8156 32.5631C60.1554 31.871 59.4602 31.2324 58.7361 30.6477L59.2071 30.0648ZM48.629 25.3892L48.7432 24.6487C50.7232 24.9556 52.6707 25.5194 54.5303 26.3406L54.2274 27.0277L53.9246 27.7133C52.1867 26.9458 50.3661 26.4175 48.5142 26.1304L48.629 25.3892ZM37.1263 26.6245L36.8561 25.9239C38.7524 25.1913 40.7241 24.7198 42.7165 24.5066L42.7956 25.2517L42.8754 25.9975C41.012 26.1969 39.1686 26.6389 37.3964 27.3236L37.1263 26.6245ZM27.2019 32.9807C27.8274 32.2061 28.51 31.463 29.2492 30.7579C29.9884 30.0527 30.7628 29.4059 31.566 28.8177L32.009 29.4235L32.452 30.028C31.701 30.578 30.9767 31.183 30.2845 31.8432C29.5925 32.5034 28.9539 33.1986 28.3692 33.9228L27.7855 33.4524L27.2019 32.9807ZM58.3713 65.5152L57.9283 64.9094C58.6792 64.3594 59.4037 63.7543 60.0958 63.0941C60.1448 63.0474 60.1923 62.9989 60.2407 62.9518L60.2233 63.6932L62.99 62.1822C62.416 62.875 61.7977 63.5437 61.1312 64.1795C60.3919 64.8846 59.6175 65.5315 58.8143 66.1197L58.3713 65.5152ZM47.5042 68.9406C49.3678 68.7411 51.2116 68.2985 52.9839 67.6137L53.254 68.3143L53.5242 69.0134C51.628 69.7461 49.6562 70.2189 47.6638 70.4322L47.5042 68.9406ZM22.3694 43.9163C22.6763 41.9362 23.2409 39.9882 24.0621 38.1286L24.7484 38.4321L25.4348 38.7342C24.6673 40.4723 24.1382 42.2932 23.8512 44.1454L23.11 44.0305L22.3694 43.9163ZM36.1529 67.9111L36.4557 67.224C38.1938 67.9916 40.0147 68.5206 41.8668 68.8077L41.6371 70.2901C39.657 69.9832 37.7096 69.4179 35.8501 68.5967L36.1529 67.9111ZM23.6454 55.8027C22.9129 53.9068 22.4406 51.9351 22.2274 49.943L23.7189 49.7834C23.9184 51.6468 24.3604 53.4903 25.0451 55.2624L24.3453 55.5333L23.6454 55.8027ZM28.4794 63.4097C27.7743 62.6706 27.1273 61.8959 26.5392 61.0928L27.1443 60.6505L27.7495 60.2068C28.2994 60.9577 28.9046 61.6823 29.5647 62.3743C30.2249 63.0663 30.9202 63.705 31.6442 64.2897L31.1732 64.874L30.7022 65.4569C29.9277 64.8315 29.1844 64.1488 28.4794 63.4097Z" fill="#757575"/>
<path d="M45.9915 53.1252C48.9847 52.9673 51.2831 50.4128 51.1252 47.4196C50.9673 44.4264 48.4129 42.128 45.4197 42.2859C42.4265 42.4438 40.128 44.9982 40.2859 47.9914C40.4438 50.9846 42.9983 53.2831 45.9915 53.1252Z" fill="#0035F5"/>
</svg>
