<svg width="95" height="95" viewBox="0 0 95 95" fill="none" xmlns="http://www.w3.org/2000/svg">
<g clip-path="url(#clip0_146_2802)">
<path d="M87.422 32.8939C88.7382 36.4971 89.5855 40.3398 89.8834 44.3545C91.6207 67.7622 74.0533 88.1463 50.6456 89.8835C43.0717 90.4456 35.8158 88.9835 29.4043 85.9595C29.9522 85.6416 30.4756 85.2882 30.9719 84.9021C36.9204 87.5369 43.5845 88.7889 50.5261 88.2737C73.0449 86.6024 89.9449 66.9928 88.2736 44.474C87.9964 40.7388 87.2223 37.1595 86.0267 33.7926C86.511 33.5201 86.9766 33.2197 87.422 32.8939ZM44.3544 5.11664C53.5987 4.43055 62.3702 6.75742 69.709 11.2638C69.3023 11.637 68.9181 12.0339 68.5584 12.4518C61.5615 8.23956 53.2383 6.076 44.4739 6.72647C21.9551 8.39775 5.05511 28.0073 6.72639 50.5262C7.13363 56.0132 8.60792 61.1657 10.9278 65.7981C10.5652 66.3138 10.2375 66.8549 9.94632 67.4172C7.26795 62.3736 5.56633 56.7059 5.11656 50.6456C3.37931 27.2379 20.9467 6.85389 44.3544 5.11664Z" fill="black"/>
<path d="M5.00469 77.5001L22 57.5001" stroke="black" stroke-width="1.86672"/>
<path d="M5.50468 77.3767L64.3005 77.3767" stroke="#757575" stroke-width="1.5" stroke-dasharray="8.07 8.07"/>
<path d="M76.5 27.9999L73.5767 43.2909" stroke="#262222" stroke-width="1.72929" stroke-linecap="round"/>
<path d="M75.0214 19.2436L52 21.5001" stroke="#262222" stroke-width="1.72929" stroke-linecap="round"/>
<path d="M26 55L37.5 66L75.5 19" stroke="#262222" stroke-width="1.5" stroke-linecap="round"/>
<path d="M37.9701 68.2287C40.4531 68.0977 42.3597 65.9787 42.2287 63.4958C42.0977 61.0128 39.9787 59.1062 37.4958 59.2372C35.0128 59.3682 33.1062 61.4872 33.2372 63.9701C33.3682 66.4531 35.4872 68.3597 37.9701 68.2287Z" fill="#0035F5"/>
</g>
<defs>
<clipPath id="clip0_146_2802">
<rect width="95" height="95" fill="white"/>
</clipPath>
</defs>
</svg>
