<svg width="95" height="95" viewBox="0 0 95 95" fill="none" xmlns="http://www.w3.org/2000/svg">
<g clip-path="url(#clip0_146_2966)">
<path d="M10.1036 80.4531L87 80.4531" stroke="#757575" stroke-width="1.5" stroke-dasharray="10.55 10.55"/>
<path d="M8.79578 88.3003L85.6921 88.3003" stroke="#757575" stroke-width="1.5" stroke-dasharray="10.55 10.55"/>
<path d="M48.3421 72.8936C36.7024 72.8935 26.1934 71.4099 18.6185 69.0293C14.8268 67.8376 11.8106 66.4333 9.75812 64.9082C7.6921 63.373 6.72199 61.8103 6.72199 60.3076C6.72199 58.8049 7.6921 57.2422 9.75812 55.707C11.8106 54.1819 14.8268 52.7776 18.6185 51.5859C26.1934 49.2053 36.7024 47.7217 48.3421 47.7217C59.9821 47.7217 70.4917 49.2052 78.0667 51.5859C81.8585 52.7776 84.8746 54.1819 86.9271 55.707C88.993 57.2422 89.9632 58.8049 89.9632 60.3076C89.9632 61.8103 88.993 63.3731 86.9271 64.9082C84.8746 66.4333 81.8585 67.8376 78.0667 69.0293C70.4917 71.41 59.9821 72.8936 48.3421 72.8936Z" stroke="black" stroke-width="1.44349"/>
<path d="M48.3421 54.4431C36.7024 54.4431 26.1934 52.9595 18.6185 50.5789C14.8268 49.3872 11.8106 47.9828 9.75812 46.4578C7.6921 44.9226 6.72199 43.3599 6.72199 41.8572C6.72199 40.3544 7.6921 38.7918 9.75812 37.2566C11.8106 35.7315 14.8268 34.3272 18.6185 33.1355C26.1934 30.7549 36.7024 29.2713 48.3421 29.2712C59.9821 29.2712 70.4917 30.7548 78.0667 33.1355C81.8585 34.3272 84.8746 35.7315 86.9271 37.2566C88.993 38.7917 89.9632 40.3545 89.9632 41.8572C89.9632 43.3599 88.993 44.9226 86.9271 46.4578C84.8746 47.9829 81.8585 49.3872 78.0667 50.5789C70.4917 52.9596 59.9821 54.4431 48.3421 54.4431Z" stroke="black" stroke-width="1.44349"/>
<path d="M48.3421 35.8936C36.7024 35.8935 26.1934 34.4099 18.6185 32.0293C14.8268 30.8376 11.8106 29.4333 9.75812 27.9082C7.6921 26.373 6.72199 24.8103 6.72199 23.3076C6.72199 21.8049 7.6921 20.2422 9.75812 18.707C11.8106 17.1819 14.8268 15.7776 18.6185 14.5859C26.1934 12.2053 36.7024 10.7217 48.3421 10.7217C59.9821 10.7217 70.4917 12.2052 78.0667 14.5859C81.8585 15.7776 84.8746 17.1819 86.9271 18.707C88.993 20.2422 89.9632 21.8049 89.9632 23.3076C89.9632 24.8103 88.993 26.3731 86.9271 27.9082C84.8746 29.4333 81.8585 30.8376 78.0667 32.0293C70.4917 34.41 59.9821 35.8936 48.3421 35.8936Z" stroke="black" stroke-width="1.44349"/>
<path d="M77.9701 74.2287C80.4531 74.0977 82.3597 71.9787 82.2287 69.4958C82.0977 67.0128 79.9787 65.1062 77.4958 65.2372C75.0128 65.3682 73.1062 67.4872 73.2372 69.9701C73.3682 72.4531 75.4872 74.3597 77.9701 74.2287Z" fill="#0035F5"/>
</g>
<defs>
<clipPath id="clip0_146_2966">
<rect width="95" height="95" fill="white"/>
</clipPath>
</defs>
</svg>
