<svg width="95" height="95" viewBox="0 0 95 95" fill="none" xmlns="http://www.w3.org/2000/svg">
<path d="M39.787 17.3189L43.8169 11.0299L37.5298 7" stroke="black" stroke-width="1.5" stroke-linecap="round" stroke-linejoin="round"/>
<path d="M50.8529 11.1722C70.5076 13.1404 85.8535 29.7299 85.8535 49.9036C85.8535 55.5942 84.6324 60.9999 82.4384 65.8724" stroke="black" stroke-width="1.5" stroke-linecap="round" stroke-linejoin="round"/>
<path d="M11.4152 65.8724C9.22117 60.9999 8 55.5942 8 49.9036C8 29.7299 23.346 13.1404 43.0007 11.1722" stroke="black" stroke-width="1.5" stroke-linecap="round" stroke-linejoin="round"/>
<path d="M78.5041 72.6703C71.4356 82.46 59.9241 88.8324 46.9247 88.8324C33.9254 88.8324 22.4159 82.462 15.3454 72.6703" stroke="black" stroke-width="1.5" stroke-linecap="round" stroke-linejoin="round"/>
<path d="M79.1737 59.6121L82.1513 66.4608L89 63.4811" stroke="black" stroke-width="1.5" stroke-linecap="round" stroke-linejoin="round"/>
<path d="M22.3792 72.9409L14.9525 72.1675L14.1771 79.5962" stroke="black" stroke-width="1.5" stroke-linecap="round" stroke-linejoin="round"/>
<path d="M73.3373 66.345C79.1633 66.0376 84.136 70.5112 84.4436 76.3372C84.7509 82.1634 80.2765 87.1362 74.4503 87.4435C68.6244 87.7507 63.6523 83.2763 63.345 77.4503C63.0379 71.6244 67.5114 66.6525 73.3373 66.345Z" stroke="black" stroke-width="1.5"/>
<path d="M64.75 3.25V20.75H46.25V3.25H64.75Z" stroke="#0B0B0B" stroke-width="1.5"/>
<path d="M12.6743 67.2346C15.1604 67.267 17.2022 65.2778 17.2346 62.7916C17.267 60.3054 15.2778 58.2637 12.7916 58.2313C10.3054 58.1989 8.26371 60.1881 8.2313 62.6742C8.1989 65.1604 10.1881 67.2021 12.6743 67.2346Z" fill="#0035F5"/>
</svg>
