<svg width="75" height="87" viewBox="0 0 75 87" fill="none" xmlns="http://www.w3.org/2000/svg">
<path d="M52 9L37 1L1.5 21.4959C1.1906 21.6746 1 22.0047 1 22.362V63.3231L36.4922 85.1644C36.8051 85.357 37.1982 85.3625 37.5163 85.1788L73 64.6923" stroke="black" stroke-width="1.5" stroke-linecap="round"/>
<path d="M2.38461 63.3231L72.5 18" stroke="#757575" stroke-width="1.5" stroke-linecap="round" stroke-dasharray="7 7"/>
<path d="M73 64.5H21.5" stroke="#757575" stroke-width="1.5" stroke-linecap="round" stroke-dasharray="7 7"/>
<path d="M50.9915 39.1252C53.9847 38.9673 56.2831 36.4128 56.1252 33.4197C55.9673 30.4265 53.4129 28.128 50.4197 28.2859C47.4265 28.4438 45.128 30.9983 45.2859 33.9915C45.4438 36.9847 47.9983 39.2831 50.9915 39.1252Z" fill="#0035F5"/>
<path d="M73.5 64.5V19.5" stroke="#757575" stroke-width="1.5" stroke-linecap="round" stroke-dasharray="7 7"/>
</svg>
