<svg width="93" height="44" viewBox="0 0 93 44" fill="none" xmlns="http://www.w3.org/2000/svg">
<path d="M84.2623 35.6404C88.7694 32.0889 91.6593 26.5838 91.6593 20.4016C91.6593 9.68911 82.9818 1 72.2693 1C61.5569 1 55.9202 6.96554 50.593 14.2194" stroke="black" stroke-width="1.5" stroke-linecap="round" stroke-linejoin="round"/>
<path d="M1 20.4016C1 9.68911 9.67755 1 20.39 1C33.3579 1 39.8379 10.6988 46.3296 20.4016C52.8174 30.1004 59.2975 39.7915 72.2693 39.7915" stroke="#757575" stroke-width="1.5" stroke-linecap="round" stroke-linejoin="round" stroke-dasharray="7 7"/>
<path d="M41.7453 27.0133C36.4954 34.0659 30.3597 39.7916 20.39 39.7916C12.8809 39.7916 6.36983 35.5283 3.15106 29.2881" stroke="black" stroke-width="1.5" stroke-linecap="round" stroke-linejoin="round"/>
<path d="M66.9731 43.1612L72.2694 39.7916L67.9519 35.2381" stroke="black" stroke-width="1.5" stroke-linecap="round" stroke-linejoin="round"/>
<path d="M9.13977 31.1375L3.14714 29.2844L2.46625 35.5246" stroke="black" stroke-width="1.5" stroke-linecap="round" stroke-linejoin="round"/>
<path d="M50.4809 7.95224L50.5892 14.2273L56.7288 12.9235" stroke="black" stroke-width="1.5" stroke-linecap="round" stroke-linejoin="round"/>
<path d="M39.2428 35.5919C42.3616 35.4274 44.7565 32.7658 44.5919 29.647C44.4274 26.5283 41.7658 24.1334 38.647 24.2979C35.5283 24.4624 33.1334 27.1241 33.2979 30.2428C33.4624 33.3616 36.1241 35.7565 39.2428 35.5919Z" fill="#0035F5"/>
</svg>
