<svg width="92" height="95" viewBox="0 0 92 95" fill="none" xmlns="http://www.w3.org/2000/svg">
<path d="M31.0149 30.0225C31.3681 30.4717 31.7543 30.9024 32.1716 31.3124C31.922 31.7876 31.7167 32.2826 31.554 32.7924C30.9217 32.2182 30.3482 31.6016 29.8357 30.9499L30.4256 30.4858L31.0149 30.0225ZM28.2281 20.048C28.0169 21.8112 28.1538 23.6033 28.6303 25.3139L27.1859 25.7165C26.6568 23.8169 26.5048 21.8274 26.7394 19.8695L28.2281 20.048ZM32.8458 10.4333L33.3098 11.0232C32.6259 11.5609 31.9835 12.1731 31.3946 12.8593C30.8056 13.5457 30.2977 14.2741 29.87 15.0319L29.2164 14.6628L28.5636 14.2944C29.0391 13.452 29.6033 12.6434 30.2562 11.8825C30.9091 11.1217 31.6222 10.4418 32.3825 9.84398L32.8458 10.4333ZM54.7604 29.0463C54.285 29.8884 53.7213 30.6966 53.0685 31.4574C52.7852 31.7876 52.4891 32.1014 52.1841 32.401C51.8906 32.0008 51.5757 31.6088 51.2347 31.2311C51.4735 30.9915 51.7061 30.7417 51.9301 30.4806C52.519 29.7943 53.0264 29.0663 53.4541 28.3087L54.1069 28.6772L54.7604 29.0463ZM43.2843 8.23639C41.5211 8.0252 39.7291 8.16206 38.0184 8.63858L37.6159 7.1942C39.5155 6.66503 41.5049 6.5131 43.4629 6.74764L43.2843 8.23639ZM56.1382 17.6242C56.6673 19.5237 56.8192 21.5132 56.5847 23.4711L55.096 23.2926C55.3071 21.5294 55.1702 19.7374 54.6938 18.0267L56.1382 17.6242ZM51.4491 10.2639C52.2101 10.9168 52.8905 11.6304 53.4884 12.3907L52.8991 12.8541L52.3092 13.3181C51.7713 12.6341 51.1587 11.9912 50.4723 11.4022C49.786 10.8134 49.0581 10.3059 48.3005 9.87828L48.6695 9.22473L49.038 8.57191C49.8802 9.04732 50.6883 9.61107 51.4491 10.2639Z" fill="#757575"/>
<path d="M83.7264 52.755C78.4268 59.1434 68.9513 60.0266 62.5627 54.7273C62.2278 54.4494 61.9091 54.1586 61.6045 53.8588C61.9995 53.5588 62.3861 53.2377 62.7578 52.8907C63.0015 53.1255 63.2557 53.3532 63.5204 53.5728C69.2714 58.3432 77.8012 57.5481 82.5719 51.7973C87.3422 46.0465 86.5476 37.5172 80.7972 32.7465C75.2851 28.1739 67.2207 28.7145 62.3596 33.8309C61.8803 33.5892 61.382 33.3922 60.8695 33.238C66.2172 27.1467 75.4765 26.3837 81.7549 31.592C88.1429 36.8917 89.0256 46.3666 83.7264 52.755Z" fill="black"/>
<path d="M9.59575 43.568C14.8953 37.1796 24.3708 36.2964 30.7594 41.5957C31.0944 41.8736 31.413 42.1644 31.7176 42.4642C31.3226 42.7642 30.936 43.0853 30.5643 43.4323C30.3206 43.1975 30.0664 42.9698 29.8017 42.7502C24.0507 37.9798 15.5209 38.7749 10.7502 44.5257C5.97991 50.2765 6.77447 58.8058 12.525 63.5765C18.0371 68.1491 26.1014 67.6085 30.9625 62.4921C31.4418 62.7338 31.9402 62.9308 32.4527 63.085C27.1049 69.1763 17.8456 69.9393 11.5673 64.731C5.17917 59.4313 4.29651 49.9564 9.59575 43.568Z" fill="black"/>
<path d="M61.6702 65.63C61.3095 65.1867 60.9162 64.7626 60.4921 64.3596C60.7338 63.8803 60.9308 63.382 61.085 62.8695C61.7268 63.433 62.3105 64.04 62.8338 64.6831L62.2516 65.1569L61.6702 65.63ZM64.6228 75.5566C64.8045 73.7902 64.6378 72.0006 64.1329 70.2982L65.5704 69.8716C66.1311 71.7621 66.3162 73.7488 66.1143 75.7103L64.6228 75.5566ZM60.166 85.247L59.6921 84.6649C60.367 84.1158 60.9992 83.4931 61.5765 82.7972C62.154 82.101 62.6496 81.3642 63.0647 80.5994L63.7243 80.9576L64.3832 81.3151C63.9218 82.1653 63.3712 82.9831 62.731 83.7549C62.0909 84.5264 61.3892 85.2181 60.639 85.8285L60.166 85.247ZM37.9442 67.0018C38.4055 66.1518 38.9557 65.3343 39.5957 64.5627C39.8735 64.2279 40.1643 63.9092 40.4642 63.6045C40.7644 63.9998 41.0858 64.3865 41.4331 64.7585C41.1982 65.002 40.9698 65.2557 40.7502 65.5204C40.1729 66.2164 39.6776 66.9528 39.2627 67.7174L38.6038 67.3599L37.9442 67.0018ZM49.7655 87.6175C51.532 87.7993 53.3214 87.6326 55.0239 87.1276L55.4505 88.5651C53.5599 89.1259 51.5734 89.3109 49.6118 89.109L49.7655 87.6175ZM36.757 78.4452C36.1963 76.5547 36.0112 74.568 36.2131 72.6065L37.7046 72.7602C37.5228 74.5266 37.6895 76.3162 38.1945 78.0186L36.757 78.4452ZM41.568 85.7264C40.7963 85.0862 40.1041 84.3841 39.4936 83.6338L40.0751 83.1607L40.6572 82.6869C41.2064 83.3618 41.8296 83.9944 42.5257 84.5719C43.2217 85.1492 43.958 85.6445 44.7227 86.0594L44.3645 86.719L44.007 87.3779C43.157 86.9166 42.3396 86.3664 41.568 85.7264Z" fill="#757575"/>
<path d="M63.0023 53.6513L53.1537 62.8167" stroke="black" stroke-width="1.5"/>
<path d="M30.3198 42.6717L40.1684 33.5063" stroke="black" stroke-width="1.5"/>
<path d="M53.0787 58.3173L52.6621 63.325L57.1614 63.25" stroke="black" stroke-width="1.5" stroke-linecap="round"/>
<path d="M40.2434 38.0057L40.6601 32.998L36.1607 33.073" stroke="black" stroke-width="1.5" stroke-linecap="round"/>
<path d="M47.2428 54.5919C50.3616 54.4274 52.7565 51.7658 52.5919 48.647C52.4274 45.5283 49.7658 43.1334 46.647 43.2979C43.5283 43.4624 41.1334 46.1241 41.2979 49.2428C41.4624 52.3616 44.1241 54.7565 47.2428 54.5919Z" fill="#0035F5"/>
</svg>
