<svg width="95" height="78" viewBox="0 0 95 78" fill="none" xmlns="http://www.w3.org/2000/svg">
<path d="M13.7307 33.926C13.5489 35.3089 13.4556 36.7181 13.4556 38.1512" stroke="black" stroke-width="1.5" stroke-linecap="round" stroke-linejoin="round"/>
<path d="M18.3674 20.9776C23.0041 13.5512 30.5622 8.13212 39.4336 6.33533" stroke="black" stroke-width="1.5" stroke-linecap="round" stroke-linejoin="round"/>
<path d="M0 70.6201H45.9245C61.9903 70.6201 75.3311 58.9518 77.9318 43.6252" stroke="black" stroke-width="1.5" stroke-linecap="round" stroke-linejoin="round"/>
<path d="M50.3795 5.98843C64.4045 7.91203 75.5752 18.7956 77.9318 32.6795" stroke="#757575" stroke-width="1.5" stroke-linecap="round" stroke-linejoin="round" stroke-dasharray="7 7"/>
<path d="M13.7306 33.926C13.0799 37.955 13.2019 42.0606 14.0608 46.0107C15.3958 52.1642 18.5133 57.9494 23.2793 62.5191" stroke="black" stroke-width="1.5" stroke-linecap="round" stroke-linejoin="round"/>
<path d="M63.1052 70.6201H94.3348" stroke="black" stroke-width="1.5" stroke-linecap="round" stroke-linejoin="round"/>
<path d="M88.3033 64.8015L94.122 70.6201L88.3033 76.4388" stroke="black" stroke-width="1.5" stroke-linecap="round" stroke-linejoin="round"/>
<path d="M57.0282 1L50.1091 5.45249L54.5639 12.3717" stroke="black" stroke-width="1.5" stroke-linecap="round" stroke-linejoin="round"/>
<path d="M45.2428 44.5919C48.3616 44.4274 50.7565 41.7658 50.5919 38.647C50.4274 35.5283 47.7658 33.1334 44.647 33.2979C41.5283 33.4624 39.1334 36.1241 39.2979 39.2428C39.4624 42.3616 42.1241 44.7565 45.2428 44.5919Z" fill="#0035F5"/>
</svg>
