<svg width="80" height="85" viewBox="0 0 80 85" fill="none" xmlns="http://www.w3.org/2000/svg">
<path d="M52.5332 64.7386C55.4224 64.5861 57.641 62.1205 57.4886 59.2313C57.3361 56.3421 54.8704 54.1236 51.9813 54.276C49.0921 54.4284 46.8736 56.8941 47.026 59.7833C47.1784 62.6724 49.6441 64.891 52.5332 64.7386Z" fill="#0035F5"/>
<path d="M68.9056 45.421L31.875 74.808" stroke="black" stroke-width="1.5" stroke-linecap="round" stroke-linejoin="round"/>
<path d="M41.709 75.2717L31.75 74.9099L33.6576 65.1252" stroke="black" stroke-width="1.5" stroke-linecap="round" stroke-linejoin="round"/>
<path d="M59.0156 45L68.9779 45.3618L67.067 55.1465" stroke="black" stroke-width="1.5" stroke-linecap="round" stroke-linejoin="round"/>
<path d="M56.5 74.7155L74.8507 74.7155C77.0466 74.7155 78.8269 72.9351 78.8269 70.7393L78.8269 4.97624C78.8269 2.7804 77.0466 0.999973 74.8507 0.999974L39.3876 0.999977C37.1918 0.999977 35.4113 2.7804 35.4113 4.97624L35.4113 37" stroke="black" stroke-width="1.5" stroke-linecap="round" stroke-linejoin="round"/>
<path d="M0.75 78.498C1.1642 78.498 1.49998 78.8339 1.5 79.248V82.6475C1.5 82.842 1.65797 83 1.85254 83H5.02734C5.4414 83.0002 5.77734 83.3359 5.77734 83.75C5.77734 84.1641 5.4414 84.4998 5.02734 84.5H1.85254C0.829546 84.5 0 83.6705 0 82.6475V79.248C2.22282e-05 78.8339 0.3358 78.498 0.75 78.498ZM17.7256 83C18.1398 83 18.4756 83.3358 18.4756 83.75C18.4756 84.1642 18.1398 84.5 17.7256 84.5H11.376C10.962 84.4998 10.626 84.1641 10.626 83.75C10.626 83.3359 10.962 83.0002 11.376 83H17.7256ZM30.4248 83C30.839 83 31.1748 83.3358 31.1748 83.75C31.1748 84.1642 30.839 84.5 30.4248 84.5H24.0752C23.661 84.5 23.3252 84.1642 23.3252 83.75C23.3252 83.3358 23.661 83 24.0752 83H30.4248ZM43.124 83C43.538 83.0002 43.874 83.3359 43.874 83.75C43.874 84.1641 43.538 84.4998 43.124 84.5H36.7744C36.3602 84.5 36.0244 84.1642 36.0244 83.75C36.0244 83.3358 36.3602 83 36.7744 83H43.124ZM53.75 78.498C54.1642 78.498 54.5 78.8339 54.5 79.248V82.6475C54.5 83.6705 53.6705 84.5 52.6475 84.5H49.4727C49.0586 84.4998 48.7227 84.1641 48.7227 83.75C48.7227 83.3359 49.0586 83.0002 49.4727 83H52.6475C52.842 83 53 82.842 53 82.6475V79.248C53 78.8339 53.3358 78.498 53.75 78.498ZM0.75 64.8994C1.16415 64.8994 1.49989 65.2353 1.5 65.6494V72.4492C1.4998 72.8633 1.16409 73.1992 0.75 73.1992C0.335908 73.1992 0.000197272 72.8633 0 72.4492V65.6494C0.000109526 65.2353 0.335854 64.8994 0.75 64.8994ZM54.5 72.4492C54.4998 72.8633 54.1641 73.1992 53.75 73.1992C53.3359 73.1992 53.0002 72.8633 53 72.4492V69.75H54.5V72.4492ZM0.75 51.3008C1.16409 51.3008 1.4998 51.6367 1.5 52.0508V58.8506C1.49989 59.2647 1.16414 59.6006 0.75 59.6006C0.335855 59.6006 0.000110659 59.2647 0 58.8506V52.0508C0.000196797 51.6367 0.335908 51.3008 0.75 51.3008ZM5.02734 40C5.4414 40.0002 5.77734 40.3359 5.77734 40.75C5.77734 41.1641 5.4414 41.4998 5.02734 41.5H1.85254C1.65797 41.5 1.5 41.658 1.5 41.8525V45.252C1.49998 45.6661 1.1642 46.002 0.75 46.002C0.335801 46.002 2.35256e-05 45.6661 0 45.252V41.8525C0 40.8295 0.829547 40 1.85254 40H5.02734ZM52.6475 40C53.6705 40 54.5 40.8295 54.5 41.8525V45.252C54.5 45.6661 54.1642 46.002 53.75 46.002C53.3358 46.002 53 45.6661 53 45.252V41.8525C53 41.658 52.842 41.5 52.6475 41.5H49.4727C49.0586 41.4998 48.7227 41.1641 48.7227 40.75C48.7227 40.3359 49.0586 40.0002 49.4727 40H52.6475ZM17.7256 40C18.1398 40 18.4756 40.3358 18.4756 40.75C18.4756 41.1642 18.1398 41.5 17.7256 41.5H11.376C10.962 41.4998 10.626 41.1641 10.626 40.75C10.626 40.3359 10.962 40.0002 11.376 40H17.7256ZM30.4248 40C30.839 40 31.1748 40.3358 31.1748 40.75C31.1748 41.1642 30.839 41.5 30.4248 41.5H24.0752C23.661 41.5 23.3252 41.1642 23.3252 40.75C23.3252 40.3358 23.661 40 24.0752 40H30.4248ZM43.124 40C43.538 40.0002 43.874 40.3359 43.874 40.75C43.874 41.1641 43.538 41.4998 43.124 41.5H36.7744C36.3602 41.5 36.0244 41.1642 36.0244 40.75C36.0244 40.3358 36.3602 40 36.7744 40H43.124Z" fill="#757575"/>
</svg>
