<svg width="95" height="95" viewBox="0 0 95 95" fill="none" xmlns="http://www.w3.org/2000/svg">
<path d="M17.7307 42.926C17.5488 44.3089 17.4555 45.7181 17.4555 47.1512" stroke="black" stroke-width="1.5" stroke-linecap="round" stroke-linejoin="round"/>
<path d="M22.3673 29.9776C27.0041 22.5512 34.5621 17.1321 43.4336 15.3353" stroke="black" stroke-width="1.5" stroke-linecap="round" stroke-linejoin="round"/>
<path d="M3.99997 79.6201H49.9245C65.9903 79.6201 79.3311 67.9518 81.9318 52.6252" stroke="black" stroke-width="1.5" stroke-linecap="round" stroke-linejoin="round"/>
<path d="M54.3794 14.9884C68.4044 16.912 79.5752 27.7956 81.9318 41.6795" stroke="#757575" stroke-width="1.5" stroke-linecap="round" stroke-linejoin="round" stroke-dasharray="7 7"/>
<path d="M17.7306 42.926C17.0798 46.955 17.2018 51.0606 18.0607 55.0107C19.3958 61.1643 22.5133 66.9494 27.2792 71.5191" stroke="black" stroke-width="1.5" stroke-linecap="round" stroke-linejoin="round"/>
<path d="M67 79.6201H91.3349" stroke="black" stroke-width="1.5" stroke-linecap="round" stroke-linejoin="round"/>
<path d="M85.3033 73.8015L91.122 79.6201L85.3033 85.4388" stroke="black" stroke-width="1.5" stroke-linecap="round" stroke-linejoin="round"/>
<path d="M61.0282 10L54.1091 14.4525L58.5639 21.3717" stroke="black" stroke-width="1.5" stroke-linecap="round" stroke-linejoin="round"/>
<path d="M49.2428 53.5919C52.3616 53.4274 54.7565 50.7658 54.5919 47.647C54.4274 44.5283 51.7658 42.1334 48.647 42.2979C45.5283 42.4624 43.1334 45.1241 43.2979 48.2428C43.4624 51.3616 46.1241 53.7565 49.2428 53.5919Z" fill="#0035F5"/>
</svg>
