<svg width="95" height="95" viewBox="0 0 95 95" fill="none" xmlns="http://www.w3.org/2000/svg">
<g clip-path="url(#clip0_142_2718)">
<path d="M90.0578 62.7873C83.5877 78.0623 66.0765 85.4731 50.5532 79.357L49.8199 79.0576C45.6019 77.2709 41.9856 74.6406 39.0862 71.4445C39.7114 71.5252 40.3426 71.5488 40.9756 71.5108C43.7522 74.3066 47.1378 76.5879 51.0386 78.1249C66.1277 84.07 83.1799 76.6576 89.1251 61.5686C95.0702 46.4795 87.6571 29.4269 72.5679 23.4818C57.4789 17.5371 40.4271 24.9504 34.482 40.0393C34.1639 40.8467 33.8868 41.6606 33.6443 42.4772C33.0627 42.7659 32.5116 43.1101 31.9938 43.5041C32.3201 42.1788 32.7358 40.8589 33.25 39.5539L33.5497 38.8197C39.9171 23.7875 56.9774 16.371 72.3129 21.9685L73.0534 22.2497C88.8231 28.463 96.5703 46.2843 90.3572 62.0541L90.0578 62.7873Z" fill="black"/>
<path d="M8.15361 47.529C7.91376 46.5911 7.71531 45.6333 7.56436 44.6566C7.41335 43.6797 7.31323 42.7064 7.2587 41.7394L8.38928 41.6763C8.44176 42.6065 8.54045 43.5429 8.6858 44.4833C8.8312 45.4239 9.0199 46.347 9.25077 47.2498L8.15361 47.529ZM9.96362 30.5731C9.34393 32.334 8.8932 34.1658 8.62667 36.0456L8.06583 35.9653L8.06502 35.9665L7.80327 35.9288L7.50514 35.886C7.78232 33.9313 8.25129 32.0273 8.89554 30.1967L9.42862 30.385L9.96362 30.5731ZM13.1991 58.0389C12.0323 56.4882 11.0102 54.8147 10.1559 53.0349L10.6655 52.7901L10.6664 52.7899L11.177 52.545C11.9987 54.2567 12.9814 55.8669 14.1039 57.3585L13.1991 58.0389ZM15.6769 20.9181C14.4218 22.3216 13.3061 23.8452 12.3471 25.4655L11.8597 25.1762L11.8589 25.1773L11.5021 24.9656L11.3715 24.888C12.3684 23.2038 13.5279 21.62 14.8326 20.1612L15.6769 20.9181ZM21.8891 65.8134C20.2048 64.8165 18.6212 63.657 17.1623 62.3523L17.9183 61.5081C19.3217 62.7632 20.8454 63.8789 22.4656 64.8379L21.8891 65.8134ZM24.64 14.1768C22.9283 14.9985 21.3184 15.9822 19.8267 17.1047L19.146 16.198C20.6966 15.0313 22.3704 14.01 24.1502 13.1557L24.3949 13.6653L24.64 14.1768ZM32.9665 69.1191L32.9666 69.12L32.8871 69.6797C30.9324 69.4026 29.0284 68.9335 27.1978 68.2893L27.5732 67.2214C29.3342 67.8411 31.1659 68.2918 33.0458 68.5584L32.9665 69.1191ZM35.4775 10.8228L35.4774 10.8218L35.5089 11.3901C34.5787 11.4426 33.6422 11.5403 32.7017 11.6856C31.7611 11.831 30.8382 12.0207 29.9354 12.2516L29.6558 11.1525C30.5938 10.9127 31.5518 10.7151 32.5284 10.5642C33.5053 10.4132 34.4786 10.3121 35.4455 10.2576L35.4775 10.8228ZM44.5302 69.0313C43.5919 69.2712 42.6338 69.4697 41.6568 69.6207C40.6802 69.7716 39.7071 69.8716 38.7405 69.9262L38.6755 68.7959C39.6059 68.7434 40.5428 68.6446 41.4835 68.4992C42.4239 68.3539 43.3464 68.1652 44.249 67.9344L44.3902 68.4837L44.5302 69.0313ZM46.6121 12.9644C44.8512 12.3447 43.0193 11.893 41.1394 11.6265L41.2196 11.0647L41.2186 11.0649L41.299 10.505C43.2536 10.7821 45.1578 11.2503 46.9882 11.8944L46.6121 12.9644ZM55.04 63.9858C53.4894 65.1526 51.8158 66.1746 50.036 67.029L49.7903 66.5196L49.7911 66.5185L49.5452 66.008C51.2569 65.1864 52.867 64.2036 54.3587 63.0812L55.04 63.9858ZM56.2669 18.6767C54.8635 17.4217 53.3398 16.306 51.7196 15.347L52.0087 14.8586L52.0078 14.8587L52.2969 14.3703C53.9811 15.3672 55.5648 16.5269 57.0237 17.8315L56.2669 18.6767ZM62.8145 55.2958C61.8177 56.9801 60.658 58.5636 59.3534 60.0225L58.9304 59.6452L58.9312 59.6441L58.5083 59.2668C59.7634 57.8633 60.8791 56.3397 61.8381 54.7194L62.8145 55.2958ZM63.5895 27.3603L63.0082 27.6399C62.1865 25.9282 61.2028 24.3182 60.0804 22.8265L60.9869 22.1449C62.1536 23.6954 63.1748 25.3694 64.0292 27.149L63.5895 27.3603ZM66.6799 44.2979C66.4028 46.2525 65.9346 48.1566 65.2905 49.9871L64.2206 49.6119C64.8403 47.851 65.292 46.0192 65.5585 44.1392L66.1971 44.2303L66.6799 44.2979ZM66.6208 35.5282C66.7718 36.5048 66.8728 37.4778 66.9273 38.4444L65.7951 38.5097C65.7426 37.5793 65.6448 36.6422 65.4994 35.7016C65.354 34.7611 65.1644 33.8388 64.9336 32.9362L65.5799 32.7701L66.0324 32.6547C66.2724 33.593 66.4698 34.5513 66.6208 35.5282Z" fill="#757575"/>
<path d="M33.2428 50.5919C36.3616 50.4274 38.7565 47.7658 38.5919 44.647C38.4274 41.5283 35.7658 39.1334 32.647 39.2979C29.5283 39.4624 27.1334 42.1241 27.2979 45.2428C27.4624 48.3616 30.1241 50.7565 33.2428 50.5919Z" fill="#0035F5"/>
</g>
<defs>
<clipPath id="clip0_142_2718">
<rect width="95" height="95" fill="white"/>
</clipPath>
</defs>
</svg>
