<svg width="95" height="95" viewBox="0 0 95 95" fill="none" xmlns="http://www.w3.org/2000/svg">
<g clip-path="url(#clip0_123_90)">
<path d="M8.19539 38.8474C10.0323 38.8474 11.5213 37.3594 11.5213 35.5239C11.5213 33.6885 10.0323 32.2005 8.19539 32.2005C6.35852 32.2005 4.8694 33.6885 4.8694 35.5239C4.8694 37.3594 6.35852 38.8474 8.19539 38.8474Z" stroke="black" stroke-width="1.5" stroke-linecap="round" stroke-linejoin="round"/>
<path d="M88.1198 61.9188C82.1442 77.9837 66.6644 89.4282 48.5071 89.4282C25.1747 89.4282 6.26007 70.5288 6.26007 47.2141" stroke="black" stroke-width="1.5" stroke-linecap="round" stroke-linejoin="round"/>
<path d="M9.07437 32.0358C15.1741 16.2192 30.5297 5.00006 48.5071 5.00006C71.8395 5.00006 90.7542 23.8995 90.7542 47.2142" stroke="black" stroke-width="1.5" stroke-linecap="round" stroke-linejoin="round"/>
<path d="M89.214 61.853C91.0509 61.853 92.54 60.365 92.54 58.5295C92.54 56.6941 91.0509 55.2061 89.214 55.2061C87.3771 55.2061 85.8881 56.6941 85.8881 58.5295C85.8881 60.365 87.3771 61.853 89.214 61.853Z" stroke="black" stroke-width="1.5" stroke-linecap="round" stroke-linejoin="round"/>
<path d="M26.915 66.8584C22.2161 61.6579 19.3512 54.7704 19.3436 47.2142C19.3436 40.5876 21.5423 34.4752 25.2482 29.5635" stroke="#757575" stroke-width="1.5" stroke-linecap="round" stroke-linejoin="round" stroke-dasharray="7 7"/>
<path d="M62.8799 72.9125C58.6775 75.2328 53.8444 76.5525 48.7047 76.5525C43.4333 76.5475 38.4862 75.1543 34.2103 72.72" stroke="#757575" stroke-width="1.5" stroke-linecap="round" stroke-linejoin="round" stroke-dasharray="7 7"/>
<path d="M74.4612 33.2314C76.5511 37.021 77.8252 41.3044 78.0329 45.8285C78.3673 53.0985 76.0546 59.8189 71.9713 65.1105" stroke="#757575" stroke-width="1.5" stroke-linecap="round" stroke-linejoin="round" stroke-dasharray="7 7"/>
<path d="M35.0437 21.2372C39.5045 18.889 44.6441 17.6554 50.0928 17.9062C56.0482 18.1798 61.5805 20.2949 66.1299 23.6842" stroke="#757575" stroke-width="1.5" stroke-linecap="round" stroke-linejoin="round" stroke-dasharray="7 7"/>
<path d="M69.4634 30.1005C71.7144 30.1005 73.5392 28.2769 73.5392 26.0273C73.5392 23.7777 71.7144 21.9541 69.4634 21.9541C67.2125 21.9541 65.3877 23.7777 65.3877 26.0273C65.3877 28.2769 67.2125 30.1005 69.4634 30.1005Z" stroke="black" stroke-width="1.5" stroke-linecap="round" stroke-linejoin="round"/>
<path d="M26.1474 70.9594L27.5229 63.6185C27.5863 63.279 28.0017 63.1423 28.255 63.3778L33.7391 68.4491C33.9848 68.6771 33.8962 69.0849 33.5796 69.1888L26.7199 71.4559C26.4007 71.5623 26.0866 71.2862 26.15 70.9569L26.1474 70.9594Z" stroke="black" stroke-width="1.5" stroke-linecap="round" stroke-linejoin="round"/>
<path d="M74.7921 66.8934L69.2412 63.3584L65.7075 68.9073L71.2585 72.4423L74.7921 66.8934Z" stroke="black" stroke-width="1.5" stroke-linecap="round" stroke-linejoin="round"/>
<path d="M29.9623 22.2176H25.4838L23.2445 26.0932L25.4838 29.9689H29.9623L32.2016 26.0932L29.9623 22.2176Z" stroke="black" stroke-width="1.5" stroke-linecap="round" stroke-linejoin="round"/>
<path d="M48.9915 52.1252C51.9847 51.9673 54.2831 49.4129 54.1252 46.4197C53.9673 43.4265 51.4129 41.128 48.4197 41.2859C45.4265 41.4438 43.128 43.9983 43.2859 46.9915C43.4438 49.9847 45.9983 52.2831 48.9915 52.1252Z" fill="#0035F5"/>
</g>
<defs>
<clipPath id="clip0_123_90">
<rect width="95" height="95" fill="white"/>
</clipPath>
</defs>
</svg>
