<svg width="95" height="95" viewBox="0 0 95 95" fill="none" xmlns="http://www.w3.org/2000/svg">
<path d="M41 92.1807L41 90.8672C41.1356 90.8688 41.2713 90.8721 41.4072 90.8721C59.7867 90.8719 74.6864 75.9723 74.6865 57.5928C74.6865 39.2132 59.7868 24.3136 41.4072 24.3135C41.2713 24.3135 41.1356 24.3177 41 24.3193L41 23.0059C41.1356 23.0043 41.2713 23 41.4072 23C60.5123 23.0001 76 38.4877 76 57.5928C75.9999 76.6978 60.5122 92.1854 41.4072 92.1855C41.2713 92.1855 41.1356 92.1822 41 92.1807Z" fill="black"/>
<path d="M44.3066 35.6953C43.3197 35.5666 42.3125 35.5 41.2891 35.5C41.1926 35.5 41.0962 35.5037 41 35.5049L41 34.0049C41.0962 34.0038 41.1926 34 41.2891 34C42.3777 34 43.4497 34.0718 44.501 34.209L44.3066 35.6953ZM55.3467 40.2695C53.7572 39.0481 52.0044 38.0291 50.1279 37.251L50.416 36.5596L50.415 36.5586L50.7031 35.8682C52.7025 36.6974 54.5685 37.7824 56.2607 39.083L55.3467 40.2695ZM62.6299 49.7529C61.8517 47.8765 60.8327 46.1245 59.6113 44.5352L60.7998 43.6221C62.1003 45.3144 63.1856 47.1803 64.0147 49.1797L63.3232 49.4658L62.6299 49.7529ZM64.9307 61.708L64.9316 61.708L64.1865 61.6104C64.3153 60.6234 64.3818 59.6162 64.3818 58.5928C64.3818 57.5692 64.3153 56.5613 64.1865 55.5742L65.0654 55.46L65.6738 55.3818C65.8109 56.4327 65.8818 57.5045 65.8818 58.5928C65.8818 59.6537 65.8149 60.699 65.6846 61.7246L65.6738 61.8047L64.9307 61.708ZM59.6113 72.6504C60.8328 71.0609 61.8517 69.3082 62.6299 67.4316L63.3232 67.7197L64.0146 68.0068C63.1855 70.0062 62.1003 71.8722 60.7998 73.5645L59.6113 72.6504ZM50.415 80.627L50.416 80.627L50.1279 79.9336C52.0045 79.1554 53.7571 78.1365 55.3467 76.915L56.2607 78.1035C54.5685 79.404 52.7024 80.4892 50.7031 81.3184L50.415 80.627ZM41 83.1816L41 81.6816C41.0962 81.6828 41.1926 81.6855 41.2891 81.6855C42.3125 81.6855 43.3197 81.619 44.3066 81.4902L44.416 82.3213L44.501 82.9775C43.4497 83.1147 42.3777 83.1855 41.2891 83.1855C41.1926 83.1855 41.0962 83.1828 41 83.1816Z" fill="#757575"/>
<path d="M41 5.00488V6.31836C40.8644 6.31673 40.7287 6.31348 40.5928 6.31348C22.2133 6.31361 7.31361 21.2133 7.31348 39.5928C7.31348 57.9724 22.2132 72.8719 40.5928 72.8721C40.7287 72.8721 40.8644 72.8678 41 72.8662V74.1797C40.8644 74.1813 40.7287 74.1855 40.5928 74.1855C21.4877 74.1854 6 58.6979 6 39.5928C6.00013 20.4878 21.4878 5.00013 40.5928 5C40.7287 5 40.8644 5.00332 41 5.00488Z" fill="black"/>
<path d="M41 5V54" stroke="black" stroke-width="1.5"/>
<path d="M41 73V92" stroke="black" stroke-width="1.5"/>
<path d="M40.9915 58.1252C43.9847 57.9673 46.2831 55.4129 46.1252 52.4197C45.9673 49.4265 43.4129 47.128 40.4197 47.2859C37.4265 47.4438 35.128 49.9983 35.2859 52.9915C35.4438 55.9847 37.9983 58.2831 40.9915 58.1252Z" fill="#0035F5"/>
</svg>
