<svg width="95" height="95" viewBox="0 0 95 95" fill="none" xmlns="http://www.w3.org/2000/svg">
<g clip-path="url(#clip0_123_148)">
<path d="M49.8105 38.4277L50.2432 38.1777V38.1768L53.4795 43.7842H53.4805L53.0469 44.0342L56.2842 49.6406L56.7168 49.3906V49.3896L59.9531 54.9971H59.9541L59.5205 55.2471L62.7578 60.8535L63.1904 60.6035V60.6025L66.4268 66.208V66.209L65.9941 66.459L69.2314 72.0654L69.6641 71.8154V71.8145L72.9004 77.4209V77.4219L72.4678 77.6719L75.7041 83.2783L76.1377 83.0283V83.0273L79.374 88.6338V88.6348L78.9414 88.8848L80.127 90.9375H77.7559V91.4375H71.2822V90.9375H64.8086V91.4375H58.335V90.9375H51.8613V91.4375H45.3887V90.9375H38.915V91.4375H32.4414V90.9375H25.9678V91.4375H19.4941V90.9375H17.123L18.3086 88.8848L17.876 88.6348L17.875 88.6338L21.1113 83.0273L21.1123 83.0283L21.5459 83.2783L24.7822 77.6719L24.3496 77.4219L24.3486 77.4209L27.585 71.8145L27.5859 71.8154L28.0186 72.0654L31.2559 66.459L30.8232 66.209L30.8223 66.208L34.0586 60.6025L34.0596 60.6035L34.4922 60.8535L37.7295 55.2471L37.2959 54.9971L40.5322 49.3896L40.5332 49.3906L40.9658 49.6406L44.2031 44.0342L43.7695 43.7842L47.0059 38.1768L47.0068 38.1777L47.4395 38.4277L48.625 36.374L49.8105 38.4277Z" stroke="#757575" stroke-dasharray="7 7"/>
<path d="M92.2559 68.1875H17.9941L55.125 3.87402L92.2559 68.1875Z" stroke="black"/>
<path d="M79.0059 68.3125H4.74414L41.875 3.99902L79.0059 68.3125Z" stroke="black"/>
<path d="M48.9915 40.1252C51.9847 39.9673 54.2831 37.4129 54.1252 34.4197C53.9673 31.4265 51.4129 29.128 48.4197 29.2859C45.4265 29.4438 43.128 31.9983 43.2859 34.9915C43.4438 37.9847 45.9983 40.2831 48.9915 40.1252Z" fill="#0035F5"/>
</g>
<defs>
<clipPath id="clip0_123_148">
<rect width="95" height="95" fill="white"/>
</clipPath>
</defs>
</svg>
