<svg width="95" height="95" viewBox="0 0 95 95" fill="none" xmlns="http://www.w3.org/2000/svg">
<g clip-path="url(#clip0_123_153)">
<path d="M85.0059 92.3125H10.7441L47.875 27.999L85.0059 92.3125Z" stroke="black"/>
<path d="M59.3332 4.99756L66.9325 4.99736L66.933 4.99651L66.9327 5.49702L74.532 5.49682L74.5318 4.99716L74.5309 4.99667L82.1302 4.99647L82.131 4.99696L82.1312 5.49662L85.0652 5.49684L83.5984 8.03741L84.0314 8.28741L80.2316 14.8689L79.7986 14.6189L75.9988 21.2003L76.4318 21.4503L72.6325 28.0309L72.1995 27.7809L68.3997 34.3624L68.8327 34.6124L65.0329 41.1938L64.5999 40.9438L60.8001 47.5253L61.2331 47.7753L57.4338 54.3559L57.0008 54.1059L53.201 60.6874L53.634 60.9374L49.8342 67.5188L49.4012 67.2688L47.9344 69.8094L46.4672 67.2686L46.0344 67.5182L46.033 67.5186L42.2336 60.9373L42.2349 60.937L42.6677 60.6873L38.8683 54.1061L38.435 54.3566L34.6355 47.7753L35.0688 47.5248L31.2693 40.9436L30.836 41.1941L30.8347 41.1944L27.0357 34.6123L27.4685 34.3627L23.6691 27.7814L23.2363 28.0311L23.2349 28.0314L19.4355 21.4502L19.4368 21.4498L19.8696 21.2002L16.0702 14.6189L15.6374 14.8686L15.636 14.8689L11.8366 8.28767L11.8379 8.28731L12.2707 8.03765L10.8027 5.49637L13.7375 5.49709L13.7373 4.99743L13.7365 4.99694L21.3357 4.99674L21.3366 4.99723L21.3368 5.49689L28.936 5.49669L28.9358 4.99703L28.935 4.99654L36.5343 4.99634L36.5351 4.99683L36.5353 5.49649L44.1346 5.49628L44.1339 4.99747L51.7336 4.99643L51.7345 4.99692L51.7342 5.49742L59.3334 5.49722L59.3332 4.99756Z" stroke="#757575" stroke-dasharray="7 7"/>
<path d="M47.9915 74.1252C50.9847 73.9673 53.2831 71.4129 53.1252 68.4197C52.9673 65.4265 50.4129 63.128 47.4197 63.2859C44.4265 63.4438 42.128 65.9983 42.2859 68.9915C42.4438 71.9847 44.9983 74.2831 47.9915 74.1252Z" fill="#0035F5"/>
</g>
<defs>
<clipPath id="clip0_123_153">
<rect width="95" height="95" fill="white"/>
</clipPath>
</defs>
</svg>
