<svg width="91" height="95" viewBox="0 0 91 95" fill="none" xmlns="http://www.w3.org/2000/svg">
<path d="M45.392 66.7367C69.9091 66.7367 89.7841 58.2935 89.7841 47.8782C89.7841 37.4629 69.9091 29.0197 45.392 29.0197C20.875 29.0197 1 37.4629 1 47.8782C1 58.2935 20.875 66.7367 45.392 66.7367Z" stroke="black" stroke-width="1.5" stroke-linecap="round" stroke-linejoin="round"/>
<path d="M67.5917 86.3399C76.6116 81.1322 73.9861 59.6984 61.7276 38.466C49.4691 17.2337 32.2195 4.243 23.1996 9.45064C14.1797 14.6583 16.8052 36.0922 29.0637 57.3245C41.3223 78.5569 58.5717 91.5475 67.5917 86.3399Z" stroke="#757575" stroke-width="1.5" stroke-linecap="round" stroke-linejoin="round" stroke-dasharray="7 7"/>
<path d="M61.7169 57.3031C73.9754 36.0707 76.6009 14.6369 67.581 9.42922C58.5611 4.22158 41.3115 17.2122 29.053 38.4446C16.7945 59.677 14.169 81.1109 23.1889 86.3185C32.2088 91.5261 49.4584 78.5355 61.7169 57.3031Z" stroke="#757575" stroke-width="1.5" stroke-linecap="round" stroke-linejoin="round" stroke-dasharray="7 7"/>
<path d="M45.241 53.1252C48.2342 52.9673 50.5327 50.4128 50.3748 47.4197C50.2168 44.4265 47.6624 42.128 44.6692 42.2859C41.676 42.4438 39.3775 44.9983 39.5354 47.9915C39.6934 50.9847 42.2478 53.2831 45.241 53.1252Z" fill="#0035F5"/>
</svg>
