<svg width="80" height="89" viewBox="0 0 80 89" fill="none" xmlns="http://www.w3.org/2000/svg">
<path d="M44.5 0.25C58.2265 0.25 70.493 6.50013 78.6094 16.3096L77.3672 17.1631C69.5254 7.74525 57.7132 1.75 44.5 1.75C20.8898 1.75 1.75 20.8898 1.75 44.5C1.75 68.1102 20.8898 87.25 44.5 87.25C57.9634 87.25 69.9706 81.0242 77.8066 71.2969L79.1973 71.9609C71.092 82.1882 58.5631 88.75 44.5 88.75C20.0614 88.75 0.25 68.9386 0.25 44.5C0.25 20.0614 20.0614 0.25 44.5 0.25Z" fill="black"/>
<path d="M45.0283 66.1465L44.8145 65.9326C44.8756 65.9252 44.937 65.9201 44.998 65.9121L45.0283 66.1465ZM55.7793 62.2285L56.2363 62.8223C54.6475 64.0431 52.8953 65.0631 51.0176 65.8418L50.7295 65.1484L50.4424 64.4561C52.1973 63.7283 53.8363 62.7756 55.3223 61.6338L55.7793 62.2285ZM62.8252 53.0527L63.5186 53.3408C62.7398 55.2186 61.72 56.9707 60.499 58.5596L59.9053 58.1025L59.3105 57.6455C60.4525 56.1594 61.405 54.5206 62.1328 52.7656L62.8252 53.0527ZM65.0762 41.4844C65.2049 42.4716 65.2715 43.4784 65.2715 44.5C65.2715 45.5216 65.2049 46.5285 65.0762 47.5156L64.332 47.418L63.5889 47.3213C63.7093 46.3983 63.7715 45.4565 63.7715 44.5C63.7715 43.5435 63.7092 42.6017 63.5889 41.6787L64.332 41.5811L65.0762 41.4844ZM20.7646 41.6787C20.7567 41.7394 20.7506 41.8005 20.7432 41.8613L20.5293 41.6475L20.7646 41.6787ZM25.043 31.3535C23.9009 32.8397 22.9485 34.4793 22.2207 36.2344L21.5273 35.9463L20.835 35.6592C21.6137 33.7814 22.6326 32.0283 23.8535 30.4395L25.043 31.3535ZM60.499 30.4395C61.72 32.0283 62.7398 33.7814 63.5186 35.6592L62.8252 35.9463L62.1328 36.2344C61.405 34.4793 60.4526 32.8396 59.3105 31.3535L59.9053 30.8965L60.499 30.4395ZM33.623 23.8506L33.9111 24.5439C32.1561 25.2718 30.5164 26.2242 29.0303 27.3662L28.1162 26.1768C29.705 24.9558 31.4582 23.9369 33.3359 23.1582L33.623 23.8506ZM51.0176 23.1582C52.8951 23.9368 54.6477 24.956 56.2363 26.1768L55.3223 27.3662C53.8363 26.2244 52.1973 25.2717 50.4424 24.5439L50.7295 23.8506L51.0176 23.1582ZM42.1768 21.4053C43.1982 21.4053 44.2053 21.4719 45.1924 21.6006L45.0947 22.3438L44.998 23.0879C44.0752 22.9675 43.1331 22.9053 42.1768 22.9053C41.2204 22.9053 40.2783 22.9675 39.3555 23.0879L39.2578 22.3438L39.1611 21.6006C40.1482 21.4718 41.1553 21.4053 42.1768 21.4053Z" fill="#757575"/>
<path d="M42.9915 50.1252C45.9847 49.9673 48.2831 47.4128 48.1252 44.4197C47.9673 41.4265 45.4129 39.128 42.4197 39.2859C39.4265 39.4438 37.128 41.9983 37.2859 44.9915C37.4438 47.9847 39.9983 50.2831 42.9915 50.1252Z" fill="#0035F5"/>
</svg>
