<svg width="73" height="95" viewBox="0 0 73 95" fill="none" xmlns="http://www.w3.org/2000/svg">
<path d="M35.0138 63.8651C35.1811 64.0847 35.4949 64.1271 35.7145 63.9598L38.6135 61.7511L39.5225 62.9442L36.6236 65.153L36.4547 65.2681C35.648 65.7628 34.5994 65.621 33.9528 64.93L33.8206 64.7742L31.6119 61.8752L32.805 60.9662L35.0138 63.8651ZM51.1177 54.1098L45.3197 58.5273L44.4106 57.3342L50.2086 52.9167L51.1177 54.1098ZM62.7128 45.2755L56.9148 49.6929L56.0058 48.4998L61.8037 44.0823L62.7128 45.2755ZM71.7877 35.8469L71.9029 36.0157C72.3975 36.8225 72.2557 37.8711 71.5648 38.5176L71.4089 38.6498L68.51 40.8586L67.6009 39.6654L70.4999 37.4567C70.7194 37.2893 70.7618 36.9755 70.5946 36.7559L68.3858 33.857L69.579 32.9479L71.7877 35.8469ZM65.1621 27.1507L63.9689 28.0598L59.5514 22.2618L60.7446 21.3528L65.1621 27.1507ZM56.3277 15.5556L55.1345 16.4647L50.7171 10.6667L51.9102 9.75764L56.3277 15.5556ZM18.9808 42.8219L17.7877 43.731L13.9431 38.685L15.1362 37.7759L18.9808 42.8219ZM11.5043 26.1703L8.60531 28.379C8.38566 28.5464 8.34326 28.8601 8.51061 29.0797L10.7194 31.9787L9.52621 32.8878L7.31746 29.9888C6.68982 29.165 6.80004 28.0107 7.5404 27.3181L7.69624 27.1859L10.5952 24.9771L11.5043 26.1703ZM42.6505 0.567567C43.5148 0.0377096 44.657 0.237757 45.2846 1.06149L47.4933 3.96047L46.3002 4.86953L44.0914 1.97056C43.9241 1.75095 43.6103 1.70861 43.3907 1.87586L40.4917 4.08461L39.5826 2.89146L42.4816 0.682717L42.6505 0.567567ZM23.0994 17.3359L17.3015 21.7534L16.3924 20.5602L22.1903 16.1427L23.0994 17.3359ZM34.6945 8.5015L28.8966 12.919L27.9875 11.7258L33.7855 7.30836L34.6945 8.5015Z" fill="#757575"/>
<path d="M1.44735 55.8402C0.699258 56.5243 0.575831 57.6773 1.19402 58.5082L27.2995 93.593L27.43 93.7503C28.0686 94.4486 29.1155 94.6022 29.9278 94.1169L30.098 94.0036L65.1828 67.8982L65.3401 67.7677C66.0385 67.1291 66.192 66.0822 65.7066 65.2699L65.5934 65.0997L54.4029 50.0601L53.1995 50.9555L64.39 65.9951C64.5547 66.2167 64.5088 66.5299 64.2873 66.6947L29.2025 92.8002C28.981 92.9649 28.6678 92.919 28.5029 92.6976L2.39744 57.6128C2.23263 57.3912 2.27866 57.078 2.50011 56.9131L37.5849 30.8077C37.8064 30.6428 38.1197 30.6888 38.2845 30.9103L45.8047 41.0172L47.0081 40.1217L39.4879 30.0149C38.8697 29.184 37.7299 28.9709 36.8596 29.491L36.6895 29.6042L1.60468 55.7097L1.44735 55.8402Z" fill="black"/>
<path d="M37.9915 53.1252C40.9847 52.9673 43.2831 50.4128 43.1252 47.4197C42.9673 44.4265 40.4129 42.128 37.4197 42.2859C34.4265 42.4438 32.128 44.9983 32.2859 47.9915C32.4438 50.9847 34.9983 53.2831 37.9915 53.1252Z" fill="#0035F5"/>
<path d="M27.5 57L33 53" stroke="black" stroke-width="1.5"/>
<path d="M43 43.5L47 40" stroke="black" stroke-width="1.5"/>
</svg>
