<svg width="83" height="85" viewBox="0 0 83 85" fill="none" xmlns="http://www.w3.org/2000/svg">
<path d="M39.3716 70L34.8716 77.7943L31 84.5" stroke="black" stroke-width="1.5"/>
<path d="M39.8551 70L70.6633 70C74.3497 70 77.3387 68.3335 77.3387 66.2781L77.3387 4.7219C77.3387 2.66653 74.3497 0.999998 70.6632 0.999998L11.1259 1C7.43944 1 4.45037 2.66653 4.45037 4.72191L4.45037 34.6971" stroke="black" stroke-width="1.5" stroke-linecap="round" stroke-linejoin="round"/>
<path d="M76.9915 41.1252C79.9847 40.9673 82.2831 38.4128 82.1252 35.4197C81.9673 32.4265 79.4129 30.128 76.4197 30.2859C73.4265 30.4438 71.128 32.9983 71.2859 35.9915C71.4438 38.9847 73.9983 41.2831 76.9915 41.1252Z" fill="#0035F5"/>
<path d="M20.2116 55.149L38.415 34.7077L18.3198 16.5782" stroke="#757575" stroke-width="1.0563" stroke-dasharray="4.93 4.93"/>
<path d="M63.2679 54.0989L43.8245 34.6445L63.3028 15" stroke="#757575" stroke-width="1.0563" stroke-dasharray="4.93 4.93"/>
</svg>
