<svg width="85" height="85" viewBox="0 0 85 85" fill="none" xmlns="http://www.w3.org/2000/svg">
<circle cx="42.5" cy="42.5" r="41.693" stroke="black" stroke-width="1.61392"/>
<path d="M39.113 82.5674C39.9144 82.6871 40.7291 82.769 41.5554 82.8115C42.382 82.854 43.2017 82.8563 44.0114 82.8193L44.0368 83.375L44.0622 83.9297C43.2168 83.9683 42.3611 83.9662 41.4987 83.9219C40.6364 83.8775 39.7849 83.7921 38.948 83.667L39.03 83.1172L39.113 82.5674ZM53.9548 81.4785C52.4201 82.2017 50.8051 82.7793 49.1296 83.1943L48.9958 82.6543L48.862 82.1162C50.4655 81.719 52.0111 81.1649 53.4802 80.4727L53.9548 81.4785ZM29.9333 79.2627C31.3237 80.102 32.8048 80.8106 34.3591 81.3701L34.1706 81.8926L33.9831 82.416C32.359 81.8314 30.8115 81.0906 29.3591 80.2139L29.9333 79.2627ZM61.74 75.0488L62.1511 75.4229C60.999 76.6868 59.7257 77.8361 58.3503 78.8525L58.0202 78.4053L57.6892 77.959C59.0064 76.9856 60.2265 75.8842 61.3298 74.6738L61.74 75.0488ZM22.7204 72.6895C23.6938 74.0066 24.7952 75.2268 26.0056 76.3301L25.6306 76.7402L25.2566 77.1514C23.9927 75.9994 22.8433 74.7259 21.8269 73.3506L22.2741 73.0205L22.7204 72.6895ZM66.8923 66.5078L67.4157 66.6963C66.8311 68.3204 66.0903 69.8679 65.2136 71.3203L64.738 71.0322L64.2624 70.7451C65.1016 69.3548 65.8103 67.8745 66.3698 66.3203L66.8923 66.5078ZM18.5632 63.8623C18.9604 65.4658 19.5145 67.0113 20.2068 68.4805L19.1999 68.9551C18.4768 67.4205 17.9001 65.8053 17.4851 64.1299L18.5632 63.8623ZM68.9294 56.6172C68.968 57.4625 68.9659 58.3174 68.9216 59.1797C68.8773 60.0421 68.7918 60.8934 68.6667 61.7305L67.5671 61.5664C67.6869 60.7649 67.7697 59.9495 67.8122 59.123C67.8547 58.2966 67.856 57.4775 67.8191 56.668L68.3747 56.6426L68.9294 56.6172ZM18.112 54.1123C17.9922 54.9138 17.9094 55.7292 17.8669 56.5557C17.8244 57.3821 17.8231 58.2021 17.8601 59.0117L17.3044 59.0361L16.7497 59.0615C16.7111 58.2161 16.7132 57.3605 16.7575 56.498C16.8019 55.6358 16.8873 54.7851 17.0124 53.9482L18.112 54.1123ZM66.4782 46.7246C67.2014 48.2593 67.779 49.8743 68.1941 51.5498L67.655 51.6826L67.1159 51.8164C66.7187 50.2129 66.1647 48.6673 65.4724 47.1982L65.9763 46.9619L66.4782 46.7246ZM20.9402 44.6465L21.4167 44.9336C20.5774 46.324 19.8688 47.8051 19.3093 49.3594L18.7868 49.1709L18.2634 48.9824C18.848 47.3585 19.5879 45.8117 20.4646 44.3594L20.9402 44.6465ZM60.4226 38.5283C61.6865 39.6804 62.8358 40.9537 63.8523 42.3291L63.405 42.6592L62.9587 42.9902C61.9852 41.673 60.8841 40.452 59.6735 39.3486L60.0485 38.9385L60.4226 38.5283ZM27.6589 37.2734L27.99 37.7197C26.6728 38.6931 25.4526 39.7945 24.3493 41.0049L23.9392 40.6299L23.528 40.2559C24.6801 38.992 25.9535 37.8426 27.3288 36.8262L27.6589 37.2734ZM52.9743 33.7627C54.1358 34.2516 55.2536 34.8211 56.32 35.4648L55.7448 36.417C54.8171 35.857 53.8494 35.3553 52.8464 34.917C52.9073 34.5378 52.9499 34.1528 52.9743 33.7627Z" fill="#757575"/>
<path d="M41.9915 38.1252C44.9847 37.9673 47.2831 35.4128 47.1252 32.4197C46.9673 29.4265 44.4129 27.128 41.4197 27.2859C38.4265 27.4438 36.128 29.9983 36.2859 32.9915C36.4438 35.9847 38.9983 38.2831 41.9915 38.1252Z" fill="#0035F5"/>
</svg>
