<svg width="83" height="84" viewBox="0 0 83 84" fill="none" xmlns="http://www.w3.org/2000/svg">
<path d="M32.787 11.3189L36.8169 5.02985L30.5298 1" stroke="black" stroke-width="1.5" stroke-linecap="round" stroke-linejoin="round"/>
<path d="M43.8529 5.17224C63.5076 7.14036 78.8535 23.7299 78.8535 43.9036C78.8535 49.5942 77.6324 54.9999 75.4384 59.8724" stroke="black" stroke-width="1.5" stroke-linecap="round" stroke-linejoin="round"/>
<path d="M4.4152 59.8725C2.22117 55 1 49.5943 1 43.9037C1 23.73 16.346 7.14042 36.0007 5.1723" stroke="black" stroke-width="1.5" stroke-linecap="round" stroke-linejoin="round"/>
<path d="M71.5041 66.6703C64.4356 76.46 52.9241 82.8324 39.9247 82.8324C26.9254 82.8324 15.4159 76.462 8.34537 66.6703" stroke="black" stroke-width="1.5" stroke-linecap="round" stroke-linejoin="round"/>
<path d="M72.1737 53.6121L75.1513 60.4608L82 57.4811" stroke="black" stroke-width="1.5" stroke-linecap="round" stroke-linejoin="round"/>
<path d="M15.3792 66.941L7.95255 66.1675L7.17709 73.5963" stroke="black" stroke-width="1.5" stroke-linecap="round" stroke-linejoin="round"/>
<path d="M39.9915 48.5534C42.9847 48.3955 45.2831 45.841 45.1252 42.8478C44.9673 39.8546 42.4129 37.5562 39.4197 37.7141C36.4265 37.872 34.128 40.4265 34.2859 43.4197C34.4438 46.4128 36.9983 48.7113 39.9915 48.5534Z" fill="#0035F5"/>
<circle cx="40.215" cy="42.8395" r="25.561" transform="rotate(2.9428 40.215 42.8395)" stroke="#757575" stroke-width="1.11135" stroke-dasharray="5.19 5.19"/>
</svg>
