<svg id="icon" xmlns="http://www.w3.org/2000/svg" width="42" height="39" viewBox="0 0 42 39">
  <defs>
    <style>
      .cls-1 {
        fill: none;
        stroke: #000;
        stroke-width: 2px;
        fill-rule: evenodd;
      }
    </style>
  </defs>
  <path class="cls-1" d="M28.427,35.123H4.367a0.937,0.937,0,0,1-1.174-.893V15.772s-0.037-.695-1.174-0.744c0,0-1.284-.174-0.587-0.894l15.551-12.8s0.44-.77,1.467,0L24.466,6.1V3.565a0.962,0.962,0,0,1,.88-0.893h2.934a0.916,0.916,0,0,1,.733,1.042V9.668L34.3,14.134s0.88,1.018-.44,1.042H32.682v4.614"/>
  <path class="cls-1" d="M25.039,22.4s5.117-.753,7.475-3.251c0,0,3.693,2.949,7.653,3.251v5.238s0.489,6.832-7.653,9.932c0,0-7.386-3.326-7.475-9.573V22.4Z"/>
  <path class="cls-1" d="M10.527,34.228V21.868h8.557v12.36"/>
</svg>
